{
.appVersion = "3260";
.formatVersion = 3;
DisplayStrings = (
"dgi/j.ss01 jtXX
O0127 ‘’ĄĘĮīľ
ťįųŲ
junk tranquilo
jackjuggler
tntnt
just a nude
don't drink and drive





inicialize",
d,
"ȷj",
"ȷjnonono",
"‚„“”‘’«»‹›\"'",
"‘’",
"ĄĘĮ",
"̨ą",
"Īnoioīon",
"nľn",
"į",
"ħ",
"ﬀ",
"/caroncomb.alt ťť",
"į/_corner.LeftSerifL.lowercase uų",
"ų",
"iuiuiuiu
inininini
iooioio
uououououn
invertebrate
bqbqbqbq
vovovo
nhnhnhn
nnnnoooo
bobobo
nnnuiuiuiuinnn
ananana
vovovnonono
wowowyoyoyo
KOKOKOKO
VOVOVO
HHHHHH
WOWOWO
060606060
90909090
91919191
24242424
7474747
n4n4n4n4
H4H4H4H4    



",
"/.notdef"
);
axes = (
{
name = Width;
tag = wdth;
}
);
customParameters = (
{
name = blueScale;
value = 0.04;
},
{
name = "EditView Line Height";
value = 1000;
}
);
date = "2022-12-17 14:34:51 +0000";
familyName = Aujournuit;
featurePrefixes = (
{
code = "languagesystem latn dflt;
languagesystem latn NLD;
languagesystem latn CAT;
languagesystem latn CSY;
languagesystem latn DEU;
languagesystem latn ENG;
languagesystem latn ESP;
languagesystem latn FRA;
languagesystem latn HUN;

";
name = Languagesystems;
}
);
features = (
{
automatic = 1;
code = "feature locl;
feature clig;
feature sups;
feature frac;
feature ordn;
feature case;
feature ss01;
";
tag = aalt;
},
{
automatic = 1;
code = "lookup ccmp_Other_1 {
	@CombiningTopAccents = [acutecomb brevecomb caroncomb circumflexcomb commaturnedabovecomb dieresiscomb dotaccentcomb gravecomb hungarumlautcomb macroncomb ringcomb tildecomb];
	lookupflag UseMarkFilteringSet @CombiningTopAccents;
	sub i' @CombiningTopAccents by idotless;
	sub j' @CombiningTopAccents by jdotless;
} ccmp_Other_1;

lookup ccmp_latn_1 {
	lookupflag 0;
	sub Ldot by L periodcentered.loclCAT.case;
	sub ldot by l periodcentered.loclCAT;
} ccmp_latn_1;

script latn;
lookup ccmp_latn_1;
";
tag = ccmp;
},
{
automatic = 1;
code = "script latn;
language AZE;
lookup locl_latn_0 {
	sub i by idotaccent;
} locl_latn_0;
language CRT;
lookup locl_latn_0;
language KAZ;
lookup locl_latn_0;

glyphs = (
{
glyphname = A;
kernLeft = A;
kernRight = A;
lastChange = "2024-03-24 15:33:24 +0000";
layers = (
{
associatedMasterId = m003;
layerId = "B826CCEB-93D1-4672-AA88-F03DC20D1A32";
width = 600;
},
{
associatedMasterId = m003;
layerId = "E785B07C-7638-40DD-A08B-5080B4C14061";
width = 600;
},
{
associatedMasterId = m003;
background = {
shapes = (
{
angle = 180;
pos = (333,697);
ref = V;
},
{
pos = (63,0);
ref = M;
}
);
};
hints = (
{
name = _corner.LeftSerifL;
options = 1;
origin = (0,0);
type = Corner;
},
{
name = _corner.LeftSerifL;
origin = (0,8);
scale = (-1,1);
type = Corner;
},
{
name = _corner.LeftSerifS;
origin = (0,9);
type = Corner;
},
{
name = _corner.LeftSerifS;
origin = (0,21);
scale = (-1,1);
type = Corner;
},
{
name = _corner.LeftSerifL;
origin = (0,3);
scale = (1,-1);
type = Corner;
},
{
name = _corner.LeftSerifL;
options = 1;
origin = (0,4);
type = Corner;
}
);
layerId = "90E045BC-9ABB-4824-A778-A133EFAB567D";
name = "18 Dec 22 at 14:01";
shapes = (
{
closed = 1;
nodes = (
(297,0,l),
(254,230,o),
(212,484,o),
(177,700,c),
(120,700,l),
(138,618,l),
(106,400,o),
(68,170,o),
(36,0,c),
(82,0,l),
(91,116,o),
(104,231,o),
(117,333,cs),
(118,341,o),
(128,341,o),
(150,341,cs),
(177,341,o),
(182,341,o),
(184,332,cs),
(198,249,o),
(222,85,o),
(232,0,c)
);
},
{
closed = 1;
nodes = (
(128,421,o),
(136,476,o),
(143,532,cs),
(144,541,o),
(145,542,o),
(147,542,cs),
(149,542,o),
(150,541,o),
(151,536,cs),
(160,479,o),
(170,422,o),
(178,368,cs),
(180,357,o),
(172,357,o),
(150,357,cs),
(125,357,o),
(120,356,o),
(121,365,cs)
);
}
);
width = 333;
},
{
anchors = (
{
name = bottom;
pos = (180,0);
},
{
name = ogonek;
pos = (346,10);
},
{
name = top;
pos = (166,700);
}
);
background = {
hints = (
{
name = _corner.LeftSerifL;
options = 1;
origin = (0,0);
type = Corner;
},
{
name = _corner.LeftSerifL;
origin = (0,3);
scale = (1,-1);
type = Corner;
},
{
name = _corner.LeftSerifL;
options = 1;
origin = (0,4);
type = Corner;
},
{
name = _corner.LeftSerifL;
origin = (0,11);
scale = (-1,1);
type = Corner;
},
{
name = _corner.LeftSerifS;
options = 1;
origin = (0,12);
type = Corner;
},
{
name = _corner.LeftSerifS;
origin = (0,25);
scale = (-1,1);
type = Corner;
}
);
shapes = (
{
closed = 1;
nodes = (
(309,0,l),
(266,230,o),
(227,484,o),
(192,700,c),
(135,700,l),
(150,603,ls),
(151,597,o),
(151,594,o),
(150,589,cs),
(121,394,o),
(83,168,o),
(51,0,c),
(97,0,l),
(106,116,o),
(118,231,o),
(131,333,cs),
(132,341,o),
(142,341,o),
(164,341,cs),
(166,341,ls),
(192,341,o),
(197,341,o),
(199,332,cs),
(213,249,o),
(237,85,o),
(247,0,c)
);
},
{
closed = 1;
nodes = (
(143,421,o),
(151,476,o),
(158,532,cs),
(159,541,o),
(160,542,o),
(162,542,cs),
(164,542,o),
(165,541,o),
(166,536,cs),
(175,479,o),
(185,422,o),
(193,368,cs),
(195,357,o),
(187,357,o),
(166,357,cs),
(164,357,ls),
(140,357,o),
(135,356,o),
(136,365,cs)
);
}
);
};
guides = (
{
angle = 263.9326;
pos = (122,272);
}
);
hints = (
{
name = _corner.LeftSerifL;
options = 1;
origin = (0,0);
type = Corner;
},
{
name = _corner.LeftSerifL;
origin = (0,3);
scale = (1,-1);
type = Corner;
},
{
name = _corner.LeftSerifL;
options = 1;
origin = (0,4);
type = Corner;
},
{
name = _corner.LeftSerifL;
origin = (0,11);
scale = (-1,1);
type = Corner;
},
{
name = _corner.LeftSerifS;
options = 1;
origin = (0,12);
type = Corner;
},
{
name = _corner.LeftSerifS;
origin = (0,25);
scale = (-1,1);
type = Corner;
}
);
layerId = m003;
name = Regular;
shapes = (
{
closed = 1;
nodes = (
(309,0,l),
(266,230,o),
(227,484,o),
(192,700,c),
(135,700,l),
(150,603,ls),
(151,597,o),
(151,594,o),
(150,589,cs),
(121,394,o),
(83,168,o),
(51,0,c),
(97,0,l),
(106,116,o),
(118,231,o),
(131,333,cs),
(132,341,o),
(142,341,o),
(164,341,cs),
(166,341,ls),
(192,341,o),
(197,341,o),
(199,332,cs),
(213,249,o),
(237,85,o),
(247,0,c)
);
},
{
closed = 1;
nodes = (
(143,421,o),
(151,476,o),
(158,532,cs),
(159,541,o),
(160,542,o),
(162,542,cs),
(164,542,o),
(165,541,o),
(166,536,cs),
(175,479,o),
(185,422,o),
(193,368,cs),
(195,357,o),
(187,357,o),
(166,357,cs),
(164,357,ls),
(140,357,o),
(135,356,o),
(136,365,cs)
);
}
);
width = 360;
},
{
associatedMasterId = m002;
layerId = "1E95C0D6-5627-4013-ABEC-B07E75554CAB";
width = 600;
},
{
associatedMasterId = m002;
layerId = "780A5F4A-0330-47B7-AC7B-10D31B855CE2";
width = 600;
},
{
associatedMasterId = m002;
background = {
shapes = (
{
angle = 180;
pos = (333,697);
ref = V;
},
{
pos = (63,0);
ref = M;
}
);
};
hints = (
{
name = _corner.LeftSerifL;
options = 1;
origin = (0,0);
type = Corner;
},
{
name = _corner.LeftSerifL;
origin = (0,8);
scale = (-1,1);
type = Corner;
},
{
name = _corner.LeftSerifS;
origin = (0,9);
type = Corner;
},
{
name = _corner.LeftSerifS;
origin = (0,21);
scale = (-1,1);
type = Corner;
},
{
name = _corner.LeftSerifL;
origin = (0,3);
scale = (1,-1);
type = Corner;
},
{
name = _corner.LeftSerifL;
options = 1;
origin = (0,4);
type = Corner;
}
);
layerId = "661F7699-5DED-465E-8E15-6BCDC1FDCA67";
name = "18 Dec 22 at 14:01";
shapes = (
{
closed = 1;
nodes = (
(297,0,l),
(254,230,o),
(212,484,o),
(177,700,c),
(120,700,l),
(138,618,l),
(106,400,o),
(68,170,o),
(36,0,c),
(82,0,l),
(91,116,o),
(104,231,o),
(117,333,cs),
(118,341,o),
(128,341,o),
(150,341,cs),
(177,341,o),
(182,341,o),
(184,332,cs),
(198,249,o),
(222,85,o),
(232,0,c)
);
},
{
closed = 1;
nodes = (
(128,421,o),
(136,476,o),
(143,532,cs),
(144,541,o),
(145,542,o),
(147,542,cs),
(149,542,o),
(150,541,o),
(151,536,cs),
(160,479,o),
(170,422,o),
(178,368,cs),
(180,357,o),
(172,357,o),
(150,357,cs),
(125,357,o),
(120,356,o),
(121,365,cs)
);
}
);
width = 333;
},
{
associatedMasterId = m003;
layerId = "B2DA110A-38A4-419B-853E-D7226147048C";
width = 600;
},
{
associatedMasterId = m002;
background = {
shapes = (
{
angle = 180;
pos = (774,697);
ref = V;
}
);
};
hints = (
{
name = _corner.LeftSerifL;
options = 1;
origin = (0,0);
type = Corner;
},
{
name = _corner.LeftSerifL;
origin = (0,4);
scale = (-1,1);
type = Corner;
},
{
name = _corner.LeftSerifS;
options = 1;
origin = (0,5);
type = Corner;
},
{
name = _corner.LeftSerifS;
origin = (0,15);
scale = (-1,1);
type = Corner;
},
{
name = _corner.LeftSerifL;
origin = (0,1);
scale = (1,-1);
type = Corner;
},
{
name = _corner.LeftSerifL;
options = 1;
origin = (0,2);
type = Corner;
}
);
layerId = "93E31409-10EF-41DE-BC49-626A53968B9A";
name = "21 Feb 23 at 14:33";
shapes = (
{
closed = 1;
nodes = (
(657,0,l),
(408,700,l),
(346,700,l),
(372,626,l),
(101,0,l),
(147,0,l),
(265,289,ls),
(286,341,o),
(307,341,o),
(379,341,cs),
(466,341,o),
(470,341,o),
(490,287,cs),
(514,221,o),
(550,111,o),
(587,0,c)
);
},
{
closed = 1;
nodes = (
(322,458,o),
(341,507,o),
(358,555,cs),
(366,577,o),
(373,589,o),
(379,589,cs),
(385,589,o),
(391,579,o),
(398,559,cs),
(448,413,ls),
(468,356,o),
(451,357,o),
(379,357,cs),
(304,357,o),
(287,358,o),
(305,410,cs)
);
}
);
width = 768;
},
{
anchors = (
{
name = bottom;
pos = (446,0);
},
{
name = ogonek;
pos = (849,10);
},
{
name = top;
pos = (446,700);
}
);
associatedMasterId = m002;
background = {
hints = (
{
name = _corner.LeftSerifL;
options = 1;
origin = (0,0);
type = Corner;
},
{
name = _corner.LeftSerifL;
origin = (0,3);
scale = (1,-1);
type = Corner;
},
{
name = _corner.LeftSerifL;
options = 1;
origin = (0,4);
type = Corner;
},
{
name = _corner.LeftSerifL;
origin = (0,8);
scale = (-1,1);
type = Corner;
},
{
name = _corner.LeftSerifS;
options = 1;
origin = (0,9);
type = Corner;
},
{
name = _corner.LeftSerifS;
origin = (0,21);
scale = (-1,1);
type = Corner;
}
);
shapes = (
{
closed = 1;
nodes = (
(836,0,l),
(713,233,o),
(590,467,o),
(467,700,c),
(396,700,l),
(431,626,l),
(307,417,o),
(184,209,o),
(60,0,c),
(119,0,l),
(169,96,o),
(219,193,o),
(269,289,cs),
(296,341,o),
(316,341,o),
(438,341,cs),
(586,341,o),
(589,341,o),
(617,287,cs),
(667,191,o),
(716,96,o),
(766,0,c)
);
},
{
closed = 1;
nodes = (
(362,464,o),
(389,517,o),
(417,571,cs),
(427,591,o),
(432,599,o),
(441,599,cs),
(447,599,o),
(452,593,o),
(462,575,cs),
(491,521,o),
(519,467,o),
(548,413,cs),
(578,357,o),
(572,357,o),
(438,357,cs),
(313,357,o),
(307,357,o),
(334,410,cs)
);
}
);
};
layerId = "DD04EC06-22C3-4BDD-8DDC-D5615E77D389";
name = "27 Apr 23 at 13:08";
width = 820;
},
{
anchors = (
{
name = bottom;
pos = (484,0);
},
{
name = ogonek;
pos = (887,10);
},
{
name = top;
pos = (492,700);
}
);
background = {
hints = (
{
name = _corner.LeftSerifL;
options = 1;
origin = (0,0);
type = Corner;
},
{
name = _corner.LeftSerifL;
origin = (0,3);
scale = (1,-1);
type = Corner;
},
{
name = _corner.LeftSerifL;
options = 1;
origin = (0,4);
type = Corner;
},
{
name = _corner.LeftSerifL;
origin = (0,11);
scale = (-1,1);
type = Corner;
},
{
name = _corner.LeftSerifS;
options = 1;
origin = (0,12);
type = Corner;
},
{
name = _corner.LeftSerifS;
origin = (0,25);
scale = (-1,1);
type = Corner;
}
);
shapes = (
{
closed = 1;
nodes = (
(847,0,l),
(731,233,o),
(614,467,o),
(497,700,c),
(427,700,l),
(458,634,ls),
(460,629,o),
(461,624,o),
(458,618,cs),
(344,412,o),
(229,206,o),
(111,0,c),
(170,0,l),
(217,96,o),
(261,193,o),
(309,289,cs),
(335,341,o),
(347,341,o),
(439,341,cs),
(500,341,ls),
(597,341,o),
(610,341,o),
(636,289,cs),
(685,191,o),
(731,96,o),
(777,0,c)
);
},
{
closed = 1;
nodes = (
(393,464,o),
(421,518,o),
(449,571,cs),
(459,591,o),
(463,599,o),
(472,599,cs),
(480,599,o),
(484,594,o),
(494,575,cs),
(521,521,o),
(549,467,o),
(577,410,cs),
(602,358,o),
(587,357,o),
(500,357,cs),
(439,357,ls),
(355,357,o),
(341,357,o),
(367,410,cs)
);
}
);
};
guides = (
{
angle = 64.3009;
pos = (317,307);
},
{
angle = 60.9204;
pos = (283,307);
}
);
hints = (
{
name = _corner.LeftSerifL;
options = 1;
origin = (0,0);
type = Corner;
},
{
name = _corner.LeftSerifL;
origin = (0,3);
scale = (1,-1);
type = Corner;
},
{
name = _corner.LeftSerifL;
options = 1;
origin = (0,4);
type = Corner;
},
{
name = _corner.LeftSerifL;
origin = (0,11);
scale = (-1,1);
type = Corner;
},
{
name = _corner.LeftSerifS;
options = 1;
origin = (0,12);
type = Corner;
},
{
name = _corner.LeftSerifS;
origin = (0,25);
scale = (-1,1);
type = Corner;
}
);
layerId = m002;
name = "Regular Wide";
shapes = (
{
closed = 1;
nodes = (
(850,0,l),
(734,232,o),
(617,466,o),
(500,700,c),
(424,700,l),
(455,634,ls),
(457,630,o),
(458,623,o),
(455,618,cs),
(341,411,o),
(226,205,o),
(108,0,c),
(173,0,l),
(220,97,o),
(264,194,o),
(312,289,cs),
(338,341,o),
(347,341,o),
(439,341,cs),
(500,341,ls),
(597,341,o),
(607,341,o),
(633,289,cs),
(682,192,o),
(728,97,o),
(774,0,c)
);
},
{
closed = 1;
nodes = (
(396,465,o),
(424,519,o),
(452,571,cs),
(462,591,o),
(466,599,o),
(472,599,cs),
(478,599,o),
(481,595,o),
(491,575,cs),
(518,522,o),
(546,468,o),
(574,410,cs),
(599,359,o),
(587,357,o),
(500,357,cs),
(439,357,ls),
(355,357,o),
(344,359,o),
(370,410,cs)
);
}
);
width = 958;
},
{
anchors = (
{
name = bottom;
pos = (180,0);
},
{
name = ogonek;
pos = (346,10);
},
{
name = top;
pos = (166,700);
}
);
associatedMasterId = m003;
guides = (
{
angle = 263.9326;
pos = (122,272);
}
);
hints = (
{
name = _corner.LeftSerifL;
options = 1;
origin = (0,0);
type = Corner;
},
{
name = _corner.LeftSerifL;
origin = (0,11);
scale = (-1,1);
type = Corner;
},
{
name = _corner.LeftSerifS;
options = 1;
origin = (0,12);
type = Corner;
},
{
name = _corner.LeftSerifS;
origin = (0,25);
scale = (-1,1);
type = Corner;
},
{
name = _corner.LeftSerifL;
origin = (0,3);
scale = (1,-1);
type = Corner;
},
{
name = _corner.LeftSerifL;
options = 1;
origin = (0,4);
type = Corner;
}
);
layerId = "7A8C6959-9E5D-486E-BDA5-6F000F732B15";
name = "13 Jul 23 at 15:17";
shapes = (
{
closed = 1;
nodes = (
(309,0,l),
(266,230,o),
(227,484,o),
(192,700,c),
(135,700,l),
(150,603,ls),
(151,597,o),
(151,594,o),
(150,589,cs),
(121,394,o),
(83,168,o),
(51,0,c),
(97,0,l),
(106,116,o),
(118,231,o),
(131,333,cs),
(132,341,o),
(142,341,o),
(164,341,cs),
(166,341,ls),
(192,341,o),
(197,341,o),
(199,332,cs),
(213,249,o),
(237,85,o),
(247,0,c)
);
},
{
closed = 1;
nodes = (
(143,421,o),
(151,476,o),
(158,532,cs),
(159,541,o),
(160,542,o),
(162,542,cs),
(164,542,o),
(165,541,o),
(166,536,cs),
(175,479,o),
(185,422,o),
(193,368,cs),
(195,357,o),
(187,357,o),
(166,357,cs),
(164,357,ls),
(140,357,o),
(135,356,o),
(136,365,cs)
);
}
);
width = 360;
},
{
anchors = (
{
name = bottom;
pos = (484,0);
},
{
name = ogonek;
pos = (887,10);
},
{
name = top;
pos = (460,700);
}
);
associatedMasterId = m002;
background = {
shapes = (
{
angle = 180;
pos = (963,697);
ref = V;
}
);
};
guides = (
{
angle = 64.3009;
pos = (317,307);
},
{
angle = 60.9204;
pos = (283,307);
}
);
hints = (
{
name = _corner.LeftSerifL;
options = 1;
origin = (0,0);
type = Corner;
},
{
name = _corner.LeftSerifL;
origin = (0,15);
scale = (-1,1);
type = Corner;
},
{
name = _corner.LeftSerifS;
options = 1;
origin = (0,16);
type = Corner;
},
{
name = _corner.LeftSerifS;
origin = (0,29);
scale = (-1,1);
type = Corner;
}
);
layerId = "524A50DF-8762-4F21-8A9F-E2ACB2C50BD9";
name = "11 Aug 23 at 06:13";
shapes = (
{
closed = 1;
nodes = (
(850,0,l),
(732,233,o),
(613,467,o),
(495,700,cs),
(492,705,o),
(491,706,o),
(482,706,cs),
(476,706,o),
(474,704,o),
(470,697,cs),
(467,691,o),
(450,657,o),
(447,652,cs),
(367,492,o),
(225,206,o),
(111,0,c),
(170,0,l),
(215,96,o),
(254,193,o),
(301,289,cs),
(326,341,o),
(347,341,o),
(439,341,cs),
(500,341,ls),
(597,341,o),
(610,341,o),
(636,289,cs),
(685,191,o),
(731,96,o),
(777,0,c)
);
},
{
closed = 1;
nodes = (
(379,464,o),
(414,543,o),
(439,596,cs),
(449,616,o),
(452,626,o),
(461,626,cs),
(469,626,o),
(472,619,o),
(482,600,cs),
(509,546,o),
(549,467,o),
(577,410,cs),
(602,358,o),
(587,357,o),
(500,357,cs),
(439,357,ls),
(355,357,o),
(327,357,o),
(353,410,cs)
);
}
);
width = 961;
}
);
metricLeft = "=V";
metricRight = "=V";
unicode = 65;
},
{
glyphname = Aogonek;
kernLeft = A;
kernRight = A;
lastChange = "2024-08-21 14:50:44 +0000";
layers = (
{
layerId = m003;
shapes = (
{
ref = A;
},
{
closed = 1;
nodes = (
(341,-116,o),
(337,-125,o),
(315,-125,cs),
(294,-125,o),
(283,-115,o),
(283,-94,cs),
(283,-62,o),
(311,-26,o),
(354,-3,c),
(334,8,l),
(308,-1,l),
(333,-3,o),
(327,-6,o),
(324,-8,cs),
(321,-10,o),
(309,-18,o),
(302,-23,cs),
(260,-52,o),
(237,-83,o),
(237,-116,cs),
(237,-141,o),
(255,-162,o),
(284,-162,cs),
(305,-162,o),
(321,-152,o),
(335,-138,cs),
(344,-129,o),
(347,-123,o),
(345,-120,cs)
);
}
);
width = 360;
},
{
layerId = m002;
shapes = (
{
ref = A;
},
{
closed = 1;
nodes = (
(927,-116,o),
(923,-125,o),
(901,-125,cs),
(880,-125,o),
(869,-113,o),
(869,-92,cs),
(869,-60,o),
(897,-27,o),
(944,-4,c),
(920,8,l),
(896,-4,l),
(909,-5,o),
(910,-8,o),
(908,-10,cs),
(906,-13,o),
(895,-21,o),
(888,-26,cs),
(846,-55,o),
(823,-83,o),
(823,-116,cs),
(823,-141,o),
(841,-162,o),
(870,-162,cs),
(891,-162,o),
(907,-152,o),
(921,-138,cs),
(930,-129,o),
(933,-123,o),
(931,-120,cs)
);
}
);
width = 958;
}
);
unicode = 260;
},
{
glyphname = AE;
kernLeft = A;
kernRight = E;
lastChange = "2023-10-03 16:46:16 +0000";
layers = (
{
anchors = (
{
name = bottom;
pos = (194,0);
},
{
name = top;
pos = (194,700);
}
);
background = {
hints = (
{
name = _corner.LeftSerifL;
origin = (0,27);
scale = (-1,1);
type = Corner;
},
{
name = _corner.LeftSerifS;
options = 1;
origin = (0,28);
type = Corner;
}
);
shapes = (
{
closed = 1;
nodes = (
(222,357,l),
(180,357,ls),
(156,357,o),
(151,356,o),
(152,365,cs),
(159,421,o),
(167,476,o),
(174,532,cs),
(175,541,o),
(176,542,o),
(178,542,cs),
(180,542,o),
(181,541,o),
(182,536,cs),
(186,509,o),
(191,482,o),
(195,455,c),
(244,476,l),
(238,517,o),
(225,647,o),
(219,687,c),
(159,686,l),
(185,686,o),
(175,651,o),
(166,589,cs),
(137,394,o),
(99,168,o),
(67,0,c),
(113,0,l),
(122,116,o),
(134,231,o),
(147,333,cs),
(148,341,o),
(158,341,o),
(180,341,cs),
(222,341,l)
);
}
);
};
hints = (
{
name = _corner.LeftSerifL;
origin = (0,35);
scale = (-1,1);
type = Corner;
},
{
name = _corner.LeftSerifS;
options = 1;
origin = (0,0);
scale = (0.8,1);
type = Corner;
},
{
name = _corner.LeftSerifL;
options = 2;
origin = (2,2);
type = Corner;
},
{
name = _segment.curve.capheight.outer;
origin = (2,3);
type = Segment;
},
{
name = _segment.curve.capheight.inner;
origin = (2,1);
type = Segment;
}
);
layerId = m003;
shapes = (
{
closed = 1;
nodes = (
(97,0,l),
(108,116,o),
(123,231,o),
(140,333,cs),
(141,341,o),
(151,341,o),
(180,341,cs),
(187,341,o),
(190,337,o),
(190,328,c),
(207,350,l),
(190,368,l),
(190,360,o),
(187,357,o),
(180,357,cs),
(149,357,o),
(144,356,o),
(145,365,cs),
(152,421,o),
(172,516,o),
(179,572,cs),
(180,580,o),
(182,584,o),
(185,584,cs),
(188,584,o),
(189,578,o),
(189,554,c),
(210,554,l),
(210,692,l),
(161,686,l),
(182,686,o),
(181,671,o),
(166,589,cs),
(130,394,o),
(92,168,o),
(51,0,c)
);
},
{
closed = 1;
nodes = (
(370,-6,o),
(374,-3,o),
(373,5,cs),
(371,20,o),
(366,40,o),
(366,80,cs),
(366,144,o),
(371,175,o),
(373,191,cs),
(374,200,o),
(370,203,o),
(365,203,cs),
(360,203,o),
(357,198,o),
(357,191,cs),
(357,34,o),
(340,13,o),
(272,13,cs),
(253,13,o),
(249,17,o),
(248,37,c),
(239,37,l),
(239,0,l),
(347,0,o),
(355,-6,o),
(365,-6,cs)
);
},
{
closed = 1;
nodes = (
(250,0,l),
(250,700,l),
(186,700,l),
(186,41,ls),
(186,10,o),
(172,14,o),
(157,14,cs),
(149,14,o),
(145,10,o),
(145,5,cs),
(145,-1,o),
(149,-4,o),
(157,-4,cs),
(166,-4,o),
(185,0,o),
(216,0,cs)
);
},
{
closed = 1;
nodes = (
(322,232,o),
(326,235,o),
(326,243,cs),
(326,266,o),
(315,292,o),
(315,351,cs),
(315,414,o),
(326,434,o),
(326,455,cs),
(326,463,o),
(322,466,o),
(318,466,cs),
(313,466,o),
(310,461,o),
(310,454,cs),
(310,373,o),
(291,363,o),
(267,359,cs),
(251,356,o),
(245,358,o),
(245,382,c),
(236,382,l),
(236,324,l),
(245,324,l),
(245,344,o),
(251,346,o),
(267,343,cs),
(291,339,o),
(310,322,o),
(310,244,cs),
(310,237,o),
(313,232,o),
(318,232,cs)
);
},
{
closed = 1;
nodes = (
(364,500,o),
(368,503,o),
(367,512,cs),
(365,525,o),
(360,556,o),
(360,620,cs),
(360,660,o),
(365,680,o),
(367,695,cs),
(368,703,o),
(364,706,o),
(359,706,cs),
(349,706,o),
(341,700,o),
(239,700,c),
(239,663,l),
(248,663,l),
(249,683,o),
(251,687,o),
(262,687,cs),
(334,687,o),
(351,666,o),
(351,512,cs),
(351,505,o),
(354,500,o),
(359,500,cs)
);
}
);
width = 388;
},
{
anchors = (
{
name = bottom;
pos = (482,0);
},
{
name = top;
pos = (482,700);
}
);
background = {
anchors = (
{
name = bottom;
pos = (484,0);
},
{
name = ogonek;
pos = (887,10);
},
{
name = top;
pos = (460,700);
}
);
hints = (
{
name = _corner.LeftSerifL;
options = 1;
origin = (0,0);
type = Corner;
},
{
name = _corner.LeftSerifL;
origin = (0,3);
scale = (1,-1);
type = Corner;
},
{
name = _corner.LeftSerifL;
options = 1;
origin = (0,4);
type = Corner;
},
{
name = _corner.LeftSerifL;
origin = (0,11);
scale = (-1,1);
type = Corner;
},
{
name = _corner.LeftSerifS;
options = 1;
origin = (0,12);
type = Corner;
},
{
name = _corner.LeftSerifS;
origin = (0,25);
scale = (-1,1);
type = Corner;
}
);
shapes = (
{
closed = 1;
nodes = (
(847,0,l),
(731,233,o),
(614,467,o),
(497,700,c),
(427,700,l),
(458,634,ls),
(460,629,o),
(461,624,o),
(458,618,cs),
(344,412,o),
(229,206,o),
(111,0,c),
(170,0,l),
(217,96,o),
(261,193,o),
(309,289,cs),
(335,341,o),
(347,341,o),
(439,341,cs),
(500,341,ls),
(597,341,o),
(610,341,o),
(636,289,cs),
(685,191,o),
(731,96,o),
(777,0,c)
);
},
{
closed = 1;
nodes = (
(393,464,o),
(421,518,o),
(449,571,cs),
(459,591,o),
(463,599,o),
(472,599,cs),
(480,599,o),
(484,594,o),
(494,575,cs),
(521,521,o),
(549,467,o),
(577,410,cs),
(602,358,o),
(587,357,o),
(500,357,cs),
(439,357,ls),
(355,357,o),
(341,357,o),
(367,410,cs)
);
},
{
pos = (380,0);
ref = E;
}
);
};
hints = (
{
name = _corner.LeftSerifL;
origin = (0,35);
scale = (-1,1);
type = Corner;
},
{
name = _corner.LeftSerifS;
options = 1;
origin = (0,0);
type = Corner;
},
{
name = _corner.LeftSerifL;
options = 2;
origin = (2,2);
type = Corner;
},
{
name = _segment.curve.capheight.outer;
origin = (2,3);
type = Segment;
},
{
name = _segment.curve.capheight.inner;
origin = (2,1);
type = Segment;
}
);
layerId = m002;
shapes = (
{
closed = 1;
nodes = (
(173,0,l),
(220,97,o),
(264,194,o),
(312,289,cs),
(338,341,o),
(347,341,o),
(439,341,cs),
(490,341,o),
(494,337,o),
(493,306,c),
(527,349,l),
(493,392,l),
(494,361,o),
(490,357,o),
(439,357,cs),
(355,357,o),
(344,359,o),
(370,410,cs),
(396,465,o),
(424,519,o),
(460,587,cs),
(470,607,o),
(473,611,o),
(480,611,cs),
(486,611,o),
(492,606,o),
(492,581,c),
(521,563,l),
(505,695,l),
(435,688,l),
(472,684,o),
(492,685,o),
(455,618,cs),
(341,411,o),
(226,205,o),
(108,0,c)
);
},
{
closed = 1;
nodes = (
(928,-6,o),
(933,-3,o),
(932,5,cs),
(930,19,o),
(925,40,o),
(925,80,cs),
(925,144,o),
(930,175,o),
(932,208,cs),
(933,217,o),
(928,220,o),
(921,220,cs),
(914,220,o),
(910,216,o),
(910,208,cs),
(910,33,o),
(894,13,o),
(618,13,cs),
(560,13,o),
(558,14,o),
(556,87,c),
(541,87,l),
(542,0,l),
(901,0,o),
(909,-6,o),
(921,-6,cs)
);
},
{
closed = 1;
nodes = (
(559,0,l),
(559,700,l),
(489,700,l),
(489,71,ls),
(489,10,o),
(468,13,o),
(403,13,cs),
(393,13,o),
(388,8,o),
(388,4,cs),
(388,-1,o),
(393,-5,o),
(403,-5,cs),
(463,-5,o),
(492,0,o),
(522,0,cs)
);
},
{
closed = 1;
nodes = (
(750,233,o),
(755,235,o),
(755,244,cs),
(755,266,o),
(744,292,o),
(744,352,cs),
(744,416,o),
(755,436,o),
(755,456,cs),
(755,465,o),
(750,467,o),
(744,467,cs),
(737,467,o),
(733,463,o),
(733,455,cs),
(733,373,o),
(715,364,o),
(623,360,cs),
(558,357,o),
(554,359,o),
(554,433,c),
(539,433,l),
(539,275,l),
(554,275,l),
(554,345,o),
(558,347,o),
(623,344,cs),
(715,340,o),
(733,324,o),
(733,245,cs),
(733,237,o),
(737,233,o),
(744,233,cs)
);
},
{
closed = 1;
nodes = (
(892,480,o),
(897,483,o),
(896,492,cs),
(894,525,o),
(889,556,o),
(889,620,cs),
(889,660,o),
(894,681,o),
(896,695,cs),
(897,703,o),
(892,706,o),
(885,706,cs),
(873,706,o),
(865,700,o),
(542,700,c),
(541,613,l),
(556,613,l),
(558,686,o),
(560,687,o),
(618,687,cs),
(858,687,o),
(874,667,o),
(874,492,cs),
(874,484,o),
(878,480,o),
(885,480,cs)
);
}
);
width = 967;
}
);
metricLeft = A;
metricRight = E;
unicode = 198;
},
{
glyphname = B;
kernLeft = H;
kernRight = B;
lastChange = "2023-10-03 16:45:15 +0000";
layers = (
{
associatedMasterId = m003;
layerId = "B826CCEB-93D1-4672-AA88-F03DC20D1A32";
width = 600;
},
{
associatedMasterId = m003;
layerId = "E785B07C-7638-40DD-A08B-5080B4C14061";
width = 600;
},
{
associatedMasterId = m003;
background = {
shapes = (
{
pos = (7,0);
ref = H;
}
);
};
hints = (
{
name = _corner.LeftSerifL;
options = 2;
origin = (1,1);
type = Corner;
},
{
name = _corner.LeftSerifL;
origin = (1,2);
scale = (-1,1);
type = Corner;
},
{
name = _segment.curve.capheight.inner;
origin = (1,0);
type = Segment;
},
{
name = _segment.curve.capheight.outer;
origin = (1,2);
type = Segment;
}
);
layerId = "09EE2424-CF7C-44EB-A9F2-DCC7CF227CD0";
name = "18 Dec 22 at 01:56";
shapes = (
{
closed = 1;
nodes = (
(84,684,l),
(129,680,l),
(129,684,o),
(131,686,o),
(136,686,cs),
(202,688,o),
(243,602,o),
(243,464,cs),
(243,339,o),
(207,256,o),
(145,239,cs),
(135,236,o),
(132,239,o),
(132,247,c),
(118,244,l),
(118,214,l),
(132,207,l),
(132,217,o),
(134,220,o),
(145,220,cs),
(219,222,o),
(260,168,o),
(260,110,cs),
(260,52,o),
(221,16,o),
(151,16,cs),
(136,16,o),
(137,29,o),
(136,46,c),
(101,46,l),
(101,0,l),
(112,0,o),
(122,-1,o),
(133,-1,cs),
(259,-1,o),
(322,39,o),
(322,113,cs),
(322,176,o),
(270,228,o),
(177,232,cs),
(174,232,o),
(173,233,o),
(173,235,cs),
(173,236,o),
(174,237,o),
(177,238,cs),
(257,264,o),
(301,346,o),
(301,467,cs),
(301,600,o),
(237,706,o),
(133,701,cs,{
GSSegment = {
name = _segment.curve.capheight.inner;
};
}),
(115,700,o),
(99,699,o),
(87,699,cs),
(86,699,o),
(85,699,o),
(84,699,c)
);
},
{
closed = 1;
nodes = (
(130,699,l,{
GSSegment = {
name = _segment.curve.capheight.inner;
};
}),
(66,700,l),
(73,0,l,{
GSSegment = {
name = _segment.curve.capheight.outer;
};
}),
(137,0,l)
);
}
);
width = 352;
},
{
anchors = (
{
name = bottom;
pos = (171,0);
},
{
name = center;
pos = (171,350);
},
{
name = top;
pos = (171,700);
}
);
background = {
shapes = (
{
ref = H;
}
);
};
hints = (
{
name = _segment.curve.capheight.inner;
origin = (1,0);
type = Segment;
},
{
name = _corner.LeftSerifL;
options = 2;
origin = (1,1);
type = Corner;
},
{
name = _corner.LeftSerifL;
origin = (1,2);
scale = (1,-1);
type = Corner;
},
{
name = _segment.curve.capheight.outer;
origin = (1,2);
type = Segment;
}
);
layerId = m003;
name = Regular;
shapes = (
{
closed = 1;
nodes = (
(89,682,l),
(134,682,l),
(134,686,o),
(136,688,o),
(141,688,cs),
(211,690,o),
(250,610,o),
(250,464,cs),
(250,341,o),
(211,255,o),
(149,242,cs),
(139,240,o),
(136,243,o),
(136,251,c),
(122,248,l),
(122,214,l),
(136,208,l),
(136,218,o),
(138,221,o),
(149,221,cs),
(223,222,o),
(269,180,o),
(269,112,cs),
(269,50,o),
(229,14,o),
(156,14,cs),
(141,14,o),
(142,27,o),
(141,44,c),
(108,46,l),
(108,0,l),
(119,0,o),
(129,-1,o),
(140,-1,cs),
(273,-1,o),
(331,34,o),
(331,114,cs),
(331,184,o),
(273,230,o),
(181,234,cs),
(178,234,o),
(177,235,o),
(177,237,cs),
(177,238,o),
(178,239,o),
(181,240,cs),
(258,262,o),
(307,351,o),
(307,469,cs),
(307,602,o),
(244,707,o),
(138,701,cs,{
GSSegment = {
name = _segment.curve.capheight.inner;
};
}),
(120,700,o),
(104,700,o),
(92,700,cs),
(91,700,o),
(90,700,o),
(89,700,c)
);
},
{
closed = 1;
nodes = (
(135,700,l,{
GSSegment = {
name = _segment.curve.capheight.inner;
};
}),
(71,700,l),
(80,0,l,{
GSSegment = {
name = _segment.curve.capheight.outer;
};
}),
(144,0,l)
);
}
);
width = 361;
},
{
associatedMasterId = m002;
layerId = "5BA743CA-6ADB-4E56-B30A-FCC5E83C2C40";
width = 600;
},
{
associatedMasterId = m002;
layerId = "C552D642-FAEE-43DE-8524-B663458A3DD6";
width = 600;
},
{
associatedMasterId = m002;
background = {
shapes = (
{
pos = (7,0);
ref = H;
}
);
};
hints = (
{
name = _corner.LeftSerifL;
options = 2;
origin = (1,1);
type = Corner;
},
{
name = _corner.LeftSerifL;
origin = (1,2);
scale = (-1,1);
type = Corner;
},
{
name = _segment.curve.capheight.inner;
origin = (1,0);
type = Segment;
},
{
name = _segment.curve.capheight.outer;
origin = (1,2);
type = Segment;
}
);
layerId = "A983F71B-21EC-42E0-8490-7EC86D09C674";
name = "18 Dec 22 at 01:56";
shapes = (
{
closed = 1;
nodes = (
(84,684,l),
(129,680,l),
(129,684,o),
(131,686,o),
(136,686,cs),
(202,688,o),
(243,602,o),
(243,464,cs),
(243,339,o),
(207,256,o),
(145,239,cs),
(135,236,o),
(132,239,o),
(132,247,c),
(118,244,l),
(118,214,l),
(132,207,l),
(132,217,o),
(134,220,o),
(145,220,cs),
(219,222,o),
(260,168,o),
(260,110,cs),
(260,52,o),
(221,16,o),
(151,16,cs),
(136,16,o),
(137,29,o),
(136,46,c),
(101,46,l),
(101,0,l),
(112,0,o),
(122,-1,o),
(133,-1,cs),
(259,-1,o),
(322,39,o),
(322,113,cs),
(322,176,o),
(270,228,o),
(177,232,cs),
(174,232,o),
(173,233,o),
(173,235,cs),
(173,236,o),
(174,237,o),
(177,238,cs),
(257,264,o),
(301,346,o),
(301,467,cs),
(301,600,o),
(237,706,o),
(133,701,cs,{
GSSegment = {
name = _segment.curve.capheight.inner;
};
}),
(115,700,o),
(99,699,o),
(87,699,cs),
(86,699,o),
(85,699,o),
(84,699,c)
);
},
{
closed = 1;
nodes = (
(130,699,l,{
GSSegment = {
name = _segment.curve.capheight.inner;
};
}),
(66,700,l),
(73,0,l,{
GSSegment = {
name = _segment.curve.capheight.outer;
};
}),
(137,0,l)
);
}
);
width = 352;
},
{
anchors = (
{
name = bottom;
pos = (346,0);
},
{
name = center;
pos = (346,350);
},
{
name = top;
pos = (346,700);
}
);
hints = (
{
name = _segment.curve.capheight.inner;
origin = (1,0);
type = Segment;
},
{
name = _corner.LeftSerifL;
options = 2;
origin = (1,1);
type = Corner;
},
{
name = _corner.LeftSerifL;
origin = (1,2);
scale = (1,-1);
type = Corner;
},
{
name = _segment.curve.capheight.outer;
origin = (1,2);
type = Segment;
}
);
layerId = m002;
name = Regular;
shapes = (
{
closed = 1;
nodes = (
(146,642,l),
(205,642,l),
(205,677,o),
(210,687,o),
(324,687,cs),
(505,687,o),
(606,608,o),
(606,464,cs),
(606,323,o),
(512,245,o),
(344,245,cs),
(221,245,o),
(203,245,o),
(203,286,c),
(179,286,l),
(179,176,l),
(203,176,l),
(203,223,o),
(212,224,o),
(344,225,cs),
(551,227,o),
(666,188,o),
(666,112,cs),
(666,43,o),
(563,14,o),
(324,14,cs),
(214,14,o),
(204,28,o),
(204,75,c),
(165,75,l),
(165,0,l),
(179,0,o),
(173,0,o),
(372,0,cs),
(640,0,o),
(744,33,o),
(744,114,cs),
(744,188,o),
(631,236,o),
(453,236,cs),
(450,236,o),
(450,237,o),
(450,240,cs),
(450,243,o),
(450,244,o),
(454,245,cs),
(579,270,o),
(678,355,o),
(678,464,cs),
(678,608,o),
(548,700,o),
(372,700,cs),
(311,700,o),
(164,700,o),
(152,700,cs),
(150,700,o),
(148,700,o),
(146,700,c)
);
},
{
closed = 1;
nodes = (
(207,700,l),
(138,700,l),
(138,0,l),
(207,0,l)
);
}
);
width = 771;
},
{
associatedMasterId = m003;
layerId = "B2DA110A-38A4-419B-853E-D7226147048C";
width = 600;
},
{
associatedMasterId = m002;
background = {
shapes = (
{
pos = (9,0);
ref = R;
}
);
};
hints = (
{
name = _segment.curve.capheight.inner;
origin = (1,0);
type = Segment;
},
{
name = _corner.LeftSerifL;
options = 2;
origin = (1,1);
type = Corner;
},
{
name = _corner.LeftSerifL;
origin = (1,2);
scale = (1,-1);
type = Corner;
},
{
name = _segment.curve.capheight.outer;
origin = (1,2);
type = Segment;
}
);
layerId = "3B805220-83F3-487F-A288-05686295AE4D";
name = "21 Feb 23 at 14:51";
shapes = (
{
closed = 1;
nodes = (
(129,642,l),
(182,642,l),
(182,676,o),
(188,687,o),
(224,687,cs),
(456,687,o),
(530,614,o),
(530,464,cs),
(530,344,o),
(417,260,o),
(189,242,cs),
(179,241,o),
(176,243,o),
(176,251,c),
(162,248,l),
(162,214,l),
(176,208,l),
(176,218,o),
(178,221,o),
(189,221,cs),
(426,224,o),
(549,185,o),
(549,112,cs),
(549,39,o),
(468,14,o),
(196,14,cs),
(181,14,o),
(182,27,o),
(181,44,c),
(148,46,l),
(148,0,l),
(159,0,o),
(169,-1,o),
(180,-1,cs),
(511,-1,o),
(621,28,o),
(621,114,cs),
(621,196,o),
(445,249,o),
(271,234,cs),
(268,234,o),
(267,235,o),
(267,237,cs),
(267,238,o),
(268,240,o),
(271,240,cs),
(489,270,o),
(597,346,o),
(597,469,cs),
(597,627,o),
(439,700,o),
(272,700,cs,{
GSSegment = {
name = _segment.curve.capheight.inner;
};
}),
(211,700,o),
(144,700,o),
(132,700,cs),
(131,700,o),
(130,700,o),
(129,700,c)
);
},
{
closed = 1;
nodes = (
(184,700,l,{
GSSegment = {
name = _segment.curve.capheight.inner;
};
}),
(121,700,l),
(121,0,l,{
GSSegment = {
name = _segment.curve.capheight.outer;
};
}),
(184,0,l)
);
}
);
width = 621;
},
{
anchors = (
{
name = bottom;
pos = (346,0);
},
{
name = center;
pos = (346,350);
},
{
name = top;
pos = (346,700);
}
);
associatedMasterId = m002;
background = {
shapes = (
{
ref = D;
}
);
};
hints = (
{
name = _segment.curve.capheight.inner;
origin = (1,0);
type = Segment;
},
{
name = _corner.LeftSerifL;
options = 2;
origin = (1,1);
type = Corner;
},
{
name = _corner.LeftSerifL;
origin = (1,2);
scale = (1,-1);
type = Corner;
},
{
name = _segment.curve.capheight.outer;
origin = (1,2);
type = Segment;
}
);
layerId = "6D7AA096-6AEB-4D0A-AB69-D23FD54C97F9";
name = "24 Feb 23 at 02:47";
shapes = (
{
closed = 1;
nodes = (
(149,642,l),
(202,642,l),
(202,676,o),
(208,687,o),
(264,687,cs),
(434,687,o),
(529,607,o),
(529,464,cs),
(529,324,o),
(441,245,o),
(284,245,cs),
(221,245,o),
(200,245,o),
(200,286,c),
(182,286,l),
(182,176,l),
(200,176,l),
(200,223,o),
(212,224,o),
(284,225,cs),
(480,227,o),
(589,187,o),
(589,112,cs),
(589,39,o),
(508,14,o),
(264,14,cs),
(212,14,o),
(201,29,o),
(201,75,c),
(168,75,l),
(168,0,l),
(179,0,o),
(189,0,o),
(312,0,cs),
(564,0,o),
(661,32,o),
(661,114,cs),
(661,189,o),
(558,236,o),
(393,236,cs),
(388,236,o),
(387,238,o),
(387,240,cs),
(387,242,o),
(388,244,o),
(393,245,cs),
(517,270,o),
(595,354,o),
(595,464,cs),
(595,609,o),
(486,700,o),
(312,700,cs,{
GSSegment = {
name = _segment.curve.capheight.inner;
};
}),
(251,700,o),
(164,700,o),
(152,700,cs),
(151,700,o),
(150,700,o),
(149,700,c)
);
},
{
closed = 1;
nodes = (
(204,700,l,{
GSSegment = {
name = _segment.curve.capheight.inner;
};
}),
(141,700,l),
(141,0,l,{
GSSegment = {
name = _segment.curve.capheight.outer;
};
}),
(204,0,l)
);
}
);
width = 671;
}
);
metricLeft = H;
metricRight = "=O";
unicode = 66;
},
{
glyphname = C;
kernLeft = O;
kernRight = E;
lastChange = "2024-06-05 13:07:45 +0000";
layers = (
{
associatedMasterId = m003;
layerId = "B826CCEB-93D1-4672-AA88-F03DC20D1A32";
width = 600;
},
{
associatedMasterId = m003;
layerId = "E785B07C-7638-40DD-A08B-5080B4C14061";
width = 600;
},
{
associatedMasterId = m003;
background = {
shapes = (
{
pos = (2,0);
ref = O;
}
);
};
layerId = "961B0528-41B1-4C8F-8C3A-39DB7393DAF8";
name = "17 Dec 22 at 18:46";
shapes = (
{
closed = 1;
nodes = (
(244,176,o),
(240,184,o),
(233,184,cs),
(226,184,o),
(220,171,o),
(219,153,cs),
(211,45,o),
(193,4,o),
(157,4,cs),
(109,4,o),
(78,153,o),
(73,343,cs),
(68,568,o),
(90,697,o),
(144,697,cs),
(173,697,o),
(191,672,o),
(206,607,cs),
(213,576,o),
(219,539,o),
(219,511,cs),
(219,505,o),
(222,500,o),
(227,500,cs),
(232,500,o),
(234,504,o),
(234,510,cs),
(234,516,o),
(232,521,o),
(231,528,cs),
(228,546,o),
(226,575,o),
(226,620,cs),
(226,661,o),
(231,685,o),
(233,700,cs),
(234,709,o),
(228,711,o),
(226,711,cs),
(218,711,o),
(218,703,o),
(218,700,cs),
(219,687,o),
(216,680,o),
(209,680,cs),
(201,680,o),
(194,687,o),
(189,691,cs),
(175,703,o),
(160,709,o),
(144,709,cs),
(67,709,o),
(9,534,o),
(12,340,cs),
(16,126,o),
(71,-9,o),
(155,-9,cs),
(168,-9,o),
(183,-3,o),
(193,4,cs),
(200,9,o),
(204,12,o),
(207,12,cs),
(211,12,o),
(213,9,o),
(212,4,cs),
(211,-5,o),
(214,-9,o),
(221,-9,cs),
(227,-9,o),
(229,-4,o),
(228,7,cs),
(226,32,o),
(225,54,o),
(225,61,cs),
(225,83,o),
(225,112,o),
(230,132,cs),
(233,144,o),
(244,146,o),
(244,162,cs)
);
}
);
width = 600;
},
{
associatedMasterId = m003;
layerId = "B30B8688-694F-4F9C-BCA3-F554F55BF964";
name = "17 Dec 22 at 19:04";
shapes = (
{
closed = 1;
nodes = (
(246,176,o),
(242,184,o),
(235,184,cs),
(228,184,o),
(222,171,o),
(221,153,cs),
(215,66,o),
(197,11,o),
(167,11,cs),
(115,11,o),
(78,149,o),
(73,343,cs),
(68,568,o),
(90,697,o),
(144,697,cs),
(173,697,o),
(191,672,o),
(206,607,cs),
(213,576,o),
(219,539,o),
(219,511,cs),
(219,505,o),
(222,500,o),
(227,500,cs),
(232,500,o),
(234,504,o),
(234,510,cs),
(234,516,o),
(232,521,o),
(231,528,cs),
(228,546,o),
(226,575,o),
(226,620,cs),
(226,661,o),
(231,685,o),
(233,700,cs),
(234,709,o),
(228,711,o),
(226,711,cs),
(218,711,o),
(218,703,o),
(218,700,cs),
(219,687,o),
(216,680,o),
(209,680,cs),
(201,680,o),
(194,687,o),
(189,691,cs),
(175,703,o),
(160,709,o),
(144,709,cs),
(67,709,o),
(8,534,o),
(12,316,cs),
(15,134,o),
(75,-9,o),
(152,-9,cs),
(185,-9,o),
(201,17,o),
(210,17,cs),
(214,17,o),
(216,12,o),
(214,4,cs),
(213,-5,o),
(216,-9,o),
(223,-9,cs),
(229,-9,o),
(231,-4,o),
(230,7,cs),
(228,32,o),
(233,94,o),
(233,101,cs),
(233,123,o),
(246,146,o),
(246,162,cs)
);
}
);
width = 600;
},
{
anchors = (
{
name = bottom;
pos = (146,0);
},
{
name = top;
pos = (184,700);
}
);
background = {
shapes = (
{
closed = 1;
nodes = (
(278,524,o),
(271,568,o),
(271,620,cs),
(271,672,o),
(278,689,o),
(278,699,cs),
(278,706,o),
(275,710,o),
(270,710,cs),
(254,710,o),
(269,677,o),
(258,677,cs),
(248,677,o),
(226,710,o),
(186,710,cs),
(104,710,o),
(39,567,o),
(36,362,cs),
(32,154,o),
(94,-8,o),
(180,-8,cs),
(209,-8,o),
(225,8,o),
(239,8,cs),
(254,8,o),
(254,-9,o),
(264,-9,cs),
(268,-9,o),
(273,-7,o),
(271,8,cs),
(270,16,o),
(264,40,o),
(264,91,cs),
(264,151,o),
(272,180,o),
(272,190,cs),
(272,197,o),
(269,201,o),
(264,201,cs),
(255,201,o),
(256,190,o),
(256,168,cs),
(256,72,o),
(226,5,o),
(184,5,cs),
(132,5,o),
(97,122,o),
(102,338,cs),
(107,552,o),
(147,690,o),
(201,690,cs),
(245,690,o),
(262,600,o),
(262,529,cs),
(262,508,o),
(262,499,o),
(270,499,cs),
(276,499,o),
(278,505,o),
(278,512,cs)
);
}
);
};
layerId = m003;
name = Regular;
shapes = (
{
closed = 1;
nodes = (
(272,196,o),
(270,202,o),
(264,202,cs),
(256,202,o),
(256,193,o),
(256,172,cs),
(256,76,o),
(228,8,o),
(185,8,cs),
(133,8,o),
(101,135,o),
(96,363,cs),
(91,579,o),
(126,697,o),
(178,697,cs),
(220,697,o),
(250,629,o),
(250,533,cs),
(250,511,o),
(249,500,o),
(258,500,cs),
(263,500,o),
(266,504,o),
(266,511,cs),
(266,521,o),
(258,550,o),
(258,610,cs),
(258,661,o),
(264,685,o),
(265,693,cs),
(267,708,o),
(262,710,o),
(258,710,cs),
(248,710,o),
(248,693,o),
(233,693,cs),
(219,693,o),
(203,710,o),
(174,710,cs),
(88,710,o),
(26,547,o),
(30,339,cs),
(33,134,o),
(98,-9,o),
(180,-9,cs),
(209,-9,o),
(225,8,o),
(239,8,cs),
(254,8,o),
(254,-9,o),
(264,-9,cs),
(269,-9,o),
(272,-5,o),
(272,2,cs),
(272,12,o),
(265,29,o),
(265,81,cs),
(265,133,o),
(272,177,o),
(272,189,cs)
);
}
);
width = 292;
},
{
associatedMasterId = m003;
background = {
shapes = (
{
ref = O;
}
);
};
layerId = "AAB23EC7-9BC4-4F3F-A64C-15B83FA354C5";
name = "17 Dec 22 at 19:17";
shapes = (
{
closed = 1;
nodes = (
(264,176,o),
(260,184,o),
(253,184,cs),
(246,184,o),
(240,171,o),
(239,153,cs),
(233,66,o),
(215,11,o),
(185,11,cs),
(133,11,o),
(96,149,o),
(91,343,cs),
(86,579,o),
(107,696,o),
(158,696,cs),
(200,696,o),
(226,625,o),
(226,512,cs),
(226,505,o),
(229,500,o),
(234,500,cs),
(239,500,o),
(241,504,o),
(241,510,cs),
(241,521,o),
(233,550,o),
(233,620,cs),
(233,661,o),
(238,685,o),
(240,700,cs),
(241,709,o),
(235,711,o),
(233,711,cs),
(225,711,o),
(225,703,o),
(225,700,cs),
(226,687,o),
(228,680,o),
(221,680,cs),
(214,680,o),
(195,709,o),
(167,709,cs),
(81,709,o),
(26,547,o),
(30,316,cs),
(33,134,o),
(93,-9,o),
(170,-9,cs),
(203,-9,o),
(219,17,o),
(228,17,cs),
(232,17,o),
(234,12,o),
(232,4,cs),
(231,-5,o),
(234,-9,o),
(241,-9,cs),
(247,-9,o),
(249,-4,o),
(248,7,cs),
(246,32,o),
(245,54,o),
(245,61,cs),
(245,83,o),
(245,112,o),
(250,132,cs),
(253,144,o),
(264,146,o),
(264,162,cs)
);
}
);
width = 264;
},
{
associatedMasterId = m003;
background = {
shapes = (
{
closed = 1;
nodes = (
(264,556,o),
(253,558,o),
(250,570,cs),
(245,590,o),
(245,619,o),
(245,641,cs),
(245,648,o),
(246,670,o),
(248,695,cs),
(249,706,o),
(247,711,o),
(241,711,cs),
(234,711,o),
(231,707,o),
(232,698,cs),
(234,690,o),
(232,685,o),
(228,685,cs),
(219,685,o),
(203,711,o),
(170,711,cs),
(93,711,o),
(33,568,o),
(30,386,cs),
(26,155,o),
(80,-7,o),
(161,-7,cs),
(192,-7,o),
(212,22,o),
(220,22,cs),
(227,22,o),
(225,13,o),
(225,2,cs),
(225,-1,o),
(225,-9,o),
(233,-9,cs),
(235,-9,o),
(241,-7,o),
(240,2,cs),
(238,17,o),
(233,41,o),
(233,82,cs),
(233,152,o),
(241,181,o),
(241,192,cs),
(241,198,o),
(239,202,o),
(234,202,cs),
(229,202,o),
(226,197,o),
(226,190,cs),
(226,77,o),
(200,6,o),
(158,6,cs),
(108,6,o),
(86,123,o),
(91,359,cs),
(96,553,o),
(133,691,o),
(185,691,cs),
(215,691,o),
(233,636,o),
(239,549,cs),
(240,531,o),
(246,518,o),
(253,518,cs),
(260,518,o),
(264,526,o),
(264,540,cs)
);
}
);
};
layerId = "51C773B5-337A-48A2-A0FE-07A5BCC3D9C2";
name = "17 Dec 22 at 19:19";
shapes = (
{
closed = 1;
nodes = (
(264,176,o),
(260,184,o),
(253,184,cs),
(246,184,o),
(240,171,o),
(239,153,cs),
(233,66,o),
(215,11,o),
(185,11,cs),
(133,11,o),
(96,149,o),
(91,343,cs),
(86,579,o),
(108,696,o),
(158,696,cs),
(200,696,o),
(226,625,o),
(226,512,cs),
(226,505,o),
(229,500,o),
(234,500,cs),
(239,500,o),
(241,504,o),
(241,510,cs),
(241,521,o),
(233,550,o),
(233,620,cs),
(233,661,o),
(238,685,o),
(240,700,cs),
(241,709,o),
(235,711,o),
(233,711,cs),
(225,711,o),
(225,703,o),
(225,700,cs),
(225,689,o),
(227,680,o),
(220,680,cs),
(212,680,o),
(192,709,o),
(161,709,cs),
(80,709,o),
(26,547,o),
(30,316,cs),
(33,134,o),
(93,-9,o),
(170,-9,cs),
(203,-9,o),
(219,17,o),
(228,17,cs),
(232,17,o),
(234,12,o),
(232,4,cs),
(231,-5,o),
(234,-9,o),
(241,-9,cs),
(247,-9,o),
(249,-4,o),
(248,7,cs),
(246,32,o),
(245,54,o),
(245,61,cs),
(245,83,o),
(245,112,o),
(250,132,cs),
(253,144,o),
(264,146,o),
(264,162,cs)
);
}
);
width = 264;
},
{
associatedMasterId = m003;
background = {
shapes = (
{
closed = 1;
nodes = (
(264,556,o),
(253,558,o),
(250,570,cs),
(245,590,o),
(245,619,o),
(245,641,cs),
(245,648,o),
(246,670,o),
(248,695,cs),
(249,706,o),
(247,711,o),
(241,711,cs),
(234,711,o),
(231,707,o),
(232,698,cs),
(234,690,o),
(232,685,o),
(228,685,cs),
(219,685,o),
(203,711,o),
(170,711,cs),
(93,711,o),
(33,568,o),
(30,386,cs),
(26,155,o),
(80,-7,o),
(161,-7,cs),
(192,-7,o),
(212,22,o),
(220,22,cs),
(227,22,o),
(225,13,o),
(225,2,cs),
(225,-1,o),
(225,-9,o),
(233,-9,cs),
(235,-9,o),
(241,-7,o),
(240,2,cs),
(238,17,o),
(233,41,o),
(233,82,cs),
(233,152,o),
(241,181,o),
(241,192,cs),
(241,198,o),
(239,202,o),
(234,202,cs),
(229,202,o),
(226,197,o),
(226,190,cs),
(226,77,o),
(200,6,o),
(158,6,cs),
(108,6,o),
(86,123,o),
(91,359,cs),
(96,553,o),
(133,691,o),
(185,691,cs),
(215,691,o),
(233,636,o),
(239,549,cs),
(240,531,o),
(246,518,o),
(253,518,cs),
(260,518,o),
(264,526,o),
(264,540,cs)
);
}
);
};
layerId = "AAD3BF8B-967C-441A-8688-F0E9AD9F3393";
name = "17 Dec 22 at 20:17";
shapes = (
{
closed = 1;
nodes = (
(264,176,o),
(260,184,o),
(253,184,cs),
(246,184,o),
(240,171,o),
(239,153,cs),
(233,66,o),
(215,11,o),
(185,11,cs),
(133,11,o),
(96,149,o),
(91,343,cs),
(86,579,o),
(114,696,o),
(164,696,cs),
(206,696,o),
(232,625,o),
(232,512,cs),
(232,505,o),
(235,500,o),
(240,500,cs),
(245,500,o),
(247,504,o),
(247,510,cs),
(247,521,o),
(239,550,o),
(239,620,cs),
(239,661,o),
(244,685,o),
(246,700,cs),
(247,709,o),
(241,711,o),
(239,711,cs),
(231,711,o),
(231,703,o),
(231,700,cs),
(231,689,o),
(233,680,o),
(226,680,cs),
(218,680,o),
(198,709,o),
(167,709,cs),
(86,709,o),
(26,547,o),
(30,316,cs),
(33,134,o),
(93,-9,o),
(170,-9,cs),
(203,-9,o),
(219,17,o),
(228,17,cs),
(232,17,o),
(234,12,o),
(232,4,cs),
(231,-5,o),
(234,-9,o),
(241,-9,cs),
(247,-9,o),
(249,-4,o),
(248,7,cs),
(246,32,o),
(245,54,o),
(245,61,cs),
(245,83,o),
(245,112,o),
(250,132,cs),
(253,144,o),
(264,146,o),
(264,162,cs)
);
}
);
width = 264;
},
{
associatedMasterId = m003;
background = {
shapes = (
{
pos = (5,0);
ref = O;
}
);
};
layerId = "D0EFB869-A3C1-49D3-BC43-5886DD85A55B";
name = "7 Feb 23 at 15:28";
shapes = (
{
closed = 1;
nodes = (
(266,196,o),
(264,202,o),
(258,202,cs),
(252,202,o),
(250,197,o),
(250,188,cs),
(250,101,o),
(233,11,o),
(193,11,cs),
(141,11,o),
(101,149,o),
(96,343,cs),
(91,579,o),
(126,696,o),
(176,696,cs),
(221,696,o),
(244,619,o),
(244,512,cs),
(244,505,o),
(247,500,o),
(252,500,cs),
(257,500,o),
(260,504,o),
(260,510,cs),
(260,521,o),
(253,550,o),
(253,620,cs),
(253,661,o),
(258,685,o),
(260,699,cs),
(261,708,o),
(255,710,o),
(253,710,cs),
(245,710,o),
(244,702,o),
(244,699,cs),
(244,689,o),
(245,680,o),
(238,680,cs),
(230,680,o),
(210,709,o),
(179,709,cs),
(88,709,o),
(26,547,o),
(30,316,cs),
(33,134,o),
(98,-9,o),
(178,-9,cs),
(220,-9,o),
(236,24,o),
(246,24,cs),
(252,24,o),
(250,11,o),
(250,3,cs),
(250,-6,o),
(253,-9,o),
(257,-9,cs),
(263,-9,o),
(266,-5,o),
(266,2,cs),
(266,12,o),
(259,29,o),
(259,87,cs),
(259,133,o),
(266,177,o),
(266,191,cs)
);
}
);
width = 291;
},
{
associatedMasterId = m002;
layerId = "189B30BB-7EDB-4567-873A-E2A47538C0C5";
width = 600;
},
{
associatedMasterId = m002;
layerId = "58EDE4AA-C6AA-4F7B-867D-8410DD041DA7";
width = 600;
},
{
associatedMasterId = m002;
background = {
shapes = (
{
pos = (2,0);
ref = O;
}
);
};
layerId = "11556807-A7CB-414B-8D15-2499E9E83022";
name = "17 Dec 22 at 18:46";
shapes = (
{
closed = 1;
nodes = (
(244,176,o),
(240,184,o),
(233,184,cs),
(226,184,o),
(220,171,o),
(219,153,cs),
(211,45,o),
(193,4,o),
(157,4,cs),
(109,4,o),
(78,153,o),
(73,343,cs),
(68,568,o),
(90,697,o),
(144,697,cs),
(173,697,o),
(191,672,o),
(206,607,cs),
(213,576,o),
(219,539,o),
(219,511,cs),
(219,505,o),
(222,500,o),
(227,500,cs),
(232,500,o),
(234,504,o),
(234,510,cs),
(234,516,o),
(232,521,o),
(231,528,cs),
(228,546,o),
(226,575,o),
(226,620,cs),
(226,661,o),
(231,685,o),
(233,700,cs),
(234,709,o),
(228,711,o),
(226,711,cs),
(218,711,o),
(218,703,o),
(218,700,cs),
(219,687,o),
(216,680,o),
(209,680,cs),
(201,680,o),
(194,687,o),
(189,691,cs),
(175,703,o),
(160,709,o),
(144,709,cs),
(67,709,o),
(9,534,o),
(12,340,cs),
(16,126,o),
(71,-9,o),
(155,-9,cs),
(168,-9,o),
(183,-3,o),
(193,4,cs),
(200,9,o),
(204,12,o),
(207,12,cs),
(211,12,o),
(213,9,o),
(212,4,cs),
(211,-5,o),
(214,-9,o),
(221,-9,cs),
(227,-9,o),
(229,-4,o),
(228,7,cs),
(226,32,o),
(225,54,o),
(225,61,cs),
(225,83,o),
(225,112,o),
(230,132,cs),
(233,144,o),
(244,146,o),
(244,162,cs)
);
}
);
width = 600;
},
{
associatedMasterId = m002;
layerId = "F498B047-E6BA-4668-A3A2-8BEF41B58563";
name = "17 Dec 22 at 19:04";
shapes = (
{
closed = 1;
nodes = (
(246,176,o),
(242,184,o),
(235,184,cs),
(228,184,o),
(222,171,o),
(221,153,cs),
(215,66,o),
(197,11,o),
(167,11,cs),
(115,11,o),
(78,149,o),
(73,343,cs),
(68,568,o),
(90,697,o),
(144,697,cs),
(173,697,o),
(191,672,o),
(206,607,cs),
(213,576,o),
(219,539,o),
(219,511,cs),
(219,505,o),
(222,500,o),
(227,500,cs),
(232,500,o),
(234,504,o),
(234,510,cs),
(234,516,o),
(232,521,o),
(231,528,cs),
(228,546,o),
(226,575,o),
(226,620,cs),
(226,661,o),
(231,685,o),
(233,700,cs),
(234,709,o),
(228,711,o),
(226,711,cs),
(218,711,o),
(218,703,o),
(218,700,cs),
(219,687,o),
(216,680,o),
(209,680,cs),
(201,680,o),
(194,687,o),
(189,691,cs),
(175,703,o),
(160,709,o),
(144,709,cs),
(67,709,o),
(8,534,o),
(12,316,cs),
(15,134,o),
(75,-9,o),
(152,-9,cs),
(185,-9,o),
(201,17,o),
(210,17,cs),
(214,17,o),
(216,12,o),
(214,4,cs),
(213,-5,o),
(216,-9,o),
(223,-9,cs),
(229,-9,o),
(231,-4,o),
(230,7,cs),
(228,32,o),
(233,94,o),
(233,101,cs),
(233,123,o),
(246,146,o),
(246,162,cs)
);
}
);
width = 600;
},
{
anchors = (
{
name = bottom;
pos = (339,0);
},
{
name = top;
pos = (392,700);
}
);
background = {
shapes = (
{
pos = (20,0);
ref = O;
},
{
pos = (-10,0);
ref = H;
}
);
};
layerId = m002;
metricRight = "=O";
name = Regular;
shapes = (
{
closed = 1;
nodes = (
(651,217,o),
(648,221,o),
(640,221,cs),
(628,221,o),
(629,213,o),
(629,191,cs),
(629,56,o),
(572,5,o),
(421,5,cs),
(233,5,o),
(104,147,o),
(99,363,cs),
(94,564,o),
(220,696,o),
(414,696,cs),
(562,696,o),
(623,646,o),
(623,513,cs),
(623,490,o),
(621,480,o),
(634,480,cs),
(641,480,o),
(645,483,o),
(645,491,cs),
(645,501,o),
(638,550,o),
(638,610,cs),
(638,661,o),
(643,685,o),
(644,693,cs),
(646,709,o),
(639,710,o),
(634,710,cs),
(618,710,o),
(625,688,o),
(608,688,cs),
(579,688,o),
(516,709,o),
(410,709,cs),
(191,709,o),
(23,545,o),
(27,339,cs),
(30,130,o),
(181,-10,o),
(406,-10,cs),
(525,-10,o),
(585,13,o),
(614,13,cs),
(631,13,o),
(624,-9,o),
(640,-9,cs),
(647,-9,o),
(651,-6,o),
(651,2,cs),
(651,11,o),
(644,28,o),
(644,81,cs),
(644,151,o),
(651,198,o),
(651,208,cs)
);
}
);
width = 678;
},
{
associatedMasterId = m002;
background = {
shapes = (
{
ref = O;
}
);
};
layerId = "9184A7AB-6697-41F5-9250-D67E62704812";
name = "17 Dec 22 at 19:17";
shapes = (
{
closed = 1;
nodes = (
(264,176,o),
(260,184,o),
(253,184,cs),
(246,184,o),
(240,171,o),
(239,153,cs),
(233,66,o),
(215,11,o),
(185,11,cs),
(133,11,o),
(96,149,o),
(91,343,cs),
(86,579,o),
(107,696,o),
(158,696,cs),
(200,696,o),
(226,625,o),
(226,512,cs),
(226,505,o),
(229,500,o),
(234,500,cs),
(239,500,o),
(241,504,o),
(241,510,cs),
(241,521,o),
(233,550,o),
(233,620,cs),
(233,661,o),
(238,685,o),
(240,700,cs),
(241,709,o),
(235,711,o),
(233,711,cs),
(225,711,o),
(225,703,o),
(225,700,cs),
(226,687,o),
(228,680,o),
(221,680,cs),
(214,680,o),
(195,709,o),
(167,709,cs),
(81,709,o),
(26,547,o),
(30,316,cs),
(33,134,o),
(93,-9,o),
(170,-9,cs),
(203,-9,o),
(219,17,o),
(228,17,cs),
(232,17,o),
(234,12,o),
(232,4,cs),
(231,-5,o),
(234,-9,o),
(241,-9,cs),
(247,-9,o),
(249,-4,o),
(248,7,cs),
(246,32,o),
(245,54,o),
(245,61,cs),
(245,83,o),
(245,112,o),
(250,132,cs),
(253,144,o),
(264,146,o),
(264,162,cs)
);
}
);
width = 264;
},
{
associatedMasterId = m002;
background = {
shapes = (
{
closed = 1;
nodes = (
(264,556,o),
(253,558,o),
(250,570,cs),
(245,590,o),
(245,619,o),
(245,641,cs),
(245,648,o),
(246,670,o),
(248,695,cs),
(249,706,o),
(247,711,o),
(241,711,cs),
(234,711,o),
(231,707,o),
(232,698,cs),
(234,690,o),
(232,685,o),
(228,685,cs),
(219,685,o),
(203,711,o),
(170,711,cs),
(93,711,o),
(33,568,o),
(30,386,cs),
(26,155,o),
(80,-7,o),
(161,-7,cs),
(192,-7,o),
(212,22,o),
(220,22,cs),
(227,22,o),
(225,13,o),
(225,2,cs),
(225,-1,o),
(225,-9,o),
(233,-9,cs),
(235,-9,o),
(241,-7,o),
(240,2,cs),
(238,17,o),
(233,41,o),
(233,82,cs),
(233,152,o),
(241,181,o),
(241,192,cs),
(241,198,o),
(239,202,o),
(234,202,cs),
(229,202,o),
(226,197,o),
(226,190,cs),
(226,77,o),
(200,6,o),
(158,6,cs),
(108,6,o),
(86,123,o),
(91,359,cs),
(96,553,o),
(133,691,o),
(185,691,cs),
(215,691,o),
(233,636,o),
(239,549,cs),
(240,531,o),
(246,518,o),
(253,518,cs),
(260,518,o),
(264,526,o),
(264,540,cs)
);
}
);
};
layerId = "56FD6150-96AC-4B9D-A517-5CD4CBDFA7F1";
name = "17 Dec 22 at 19:19";
shapes = (
{
closed = 1;
nodes = (
(264,176,o),
(260,184,o),
(253,184,cs),
(246,184,o),
(240,171,o),
(239,153,cs),
(233,66,o),
(215,11,o),
(185,11,cs),
(133,11,o),
(96,149,o),
(91,343,cs),
(86,579,o),
(108,696,o),
(158,696,cs),
(200,696,o),
(226,625,o),
(226,512,cs),
(226,505,o),
(229,500,o),
(234,500,cs),
(239,500,o),
(241,504,o),
(241,510,cs),
(241,521,o),
(233,550,o),
(233,620,cs),
(233,661,o),
(238,685,o),
(240,700,cs),
(241,709,o),
(235,711,o),
(233,711,cs),
(225,711,o),
(225,703,o),
(225,700,cs),
(225,689,o),
(227,680,o),
(220,680,cs),
(212,680,o),
(192,709,o),
(161,709,cs),
(80,709,o),
(26,547,o),
(30,316,cs),
(33,134,o),
(93,-9,o),
(170,-9,cs),
(203,-9,o),
(219,17,o),
(228,17,cs),
(232,17,o),
(234,12,o),
(232,4,cs),
(231,-5,o),
(234,-9,o),
(241,-9,cs),
(247,-9,o),
(249,-4,o),
(248,7,cs),
(246,32,o),
(245,54,o),
(245,61,cs),
(245,83,o),
(245,112,o),
(250,132,cs),
(253,144,o),
(264,146,o),
(264,162,cs)
);
}
);
width = 264;
},
{
associatedMasterId = m002;
background = {
shapes = (
{
closed = 1;
nodes = (
(264,556,o),
(253,558,o),
(250,570,cs),
(245,590,o),
(245,619,o),
(245,641,cs),
(245,648,o),
(246,670,o),
(248,695,cs),
(249,706,o),
(247,711,o),
(241,711,cs),
(234,711,o),
(231,707,o),
(232,698,cs),
(234,690,o),
(232,685,o),
(228,685,cs),
(219,685,o),
(203,711,o),
(170,711,cs),
(93,711,o),
(33,568,o),
(30,386,cs),
(26,155,o),
(80,-7,o),
(161,-7,cs),
(192,-7,o),
(212,22,o),
(220,22,cs),
(227,22,o),
(225,13,o),
(225,2,cs),
(225,-1,o),
(225,-9,o),
(233,-9,cs),
(235,-9,o),
(241,-7,o),
(240,2,cs),
(238,17,o),
(233,41,o),
(233,82,cs),
(233,152,o),
(241,181,o),
(241,192,cs),
(241,198,o),
(239,202,o),
(234,202,cs),
(229,202,o),
(226,197,o),
(226,190,cs),
(226,77,o),
(200,6,o),
(158,6,cs),
(108,6,o),
(86,123,o),
(91,359,cs),
(96,553,o),
(133,691,o),
(185,691,cs),
(215,691,o),
(233,636,o),
(239,549,cs),
(240,531,o),
(246,518,o),
(253,518,cs),
(260,518,o),
(264,526,o),
(264,540,cs)
);
}
);
};
layerId = "15D8E67B-B687-442A-B32D-33F31D1BAFD2";
name = "17 Dec 22 at 20:17";
shapes = (
{
closed = 1;
nodes = (
(264,176,o),
(260,184,o),
(253,184,cs),
(246,184,o),
(240,171,o),
(239,153,cs),
(233,66,o),
(215,11,o),
(185,11,cs),
(133,11,o),
(96,149,o),
(91,343,cs),
(86,579,o),
(114,696,o),
(164,696,cs),
(206,696,o),
(232,625,o),
(232,512,cs),
(232,505,o),
(235,500,o),
(240,500,cs),
(245,500,o),
(247,504,o),
(247,510,cs),
(247,521,o),
(239,550,o),
(239,620,cs),
(239,661,o),
(244,685,o),
(246,700,cs),
(247,709,o),
(241,711,o),
(239,711,cs),
(231,711,o),
(231,703,o),
(231,700,cs),
(231,689,o),
(233,680,o),
(226,680,cs),
(218,680,o),
(198,709,o),
(167,709,cs),
(86,709,o),
(26,547,o),
(30,316,cs),
(33,134,o),
(93,-9,o),
(170,-9,cs),
(203,-9,o),
(219,17,o),
(228,17,cs),
(232,17,o),
(234,12,o),
(232,4,cs),
(231,-5,o),
(234,-9,o),
(241,-9,cs),
(247,-9,o),
(249,-4,o),
(248,7,cs),
(246,32,o),
(245,54,o),
(245,61,cs),
(245,83,o),
(245,112,o),
(250,132,cs),
(253,144,o),
(264,146,o),
(264,162,cs)
);
}
);
width = 264;
},
{
associatedMasterId = m002;
background = {
shapes = (
{
pos = (5,0);
ref = O;
}
);
};
layerId = "D556413E-A90F-40E3-880B-3F6BB00E43F0";
name = "7 Feb 23 at 15:28";
shapes = (
{
closed = 1;
nodes = (
(266,196,o),
(264,202,o),
(258,202,cs),
(252,202,o),
(250,197,o),
(250,188,cs),
(250,101,o),
(233,11,o),
(193,11,cs),
(141,11,o),
(101,149,o),
(96,343,cs),
(91,579,o),
(126,696,o),
(176,696,cs),
(221,696,o),
(244,619,o),
(244,512,cs),
(244,505,o),
(247,500,o),
(252,500,cs),
(257,500,o),
(260,504,o),
(260,510,cs),
(260,521,o),
(253,550,o),
(253,620,cs),
(253,661,o),
(258,685,o),
(260,699,cs),
(261,708,o),
(255,710,o),
(253,710,cs),
(245,710,o),
(244,702,o),
(244,699,cs),
(244,689,o),
(245,680,o),
(238,680,cs),
(230,680,o),
(210,709,o),
(179,709,cs),
(88,709,o),
(26,547,o),
(30,316,cs),
(33,134,o),
(98,-9,o),
(178,-9,cs),
(220,-9,o),
(236,24,o),
(246,24,cs),
(252,24,o),
(250,11,o),
(250,3,cs),
(250,-6,o),
(253,-9,o),
(257,-9,cs),
(263,-9,o),
(266,-5,o),
(266,2,cs),
(266,12,o),
(259,29,o),
(259,87,cs),
(259,133,o),
(266,177,o),
(266,191,cs)
);
}
);
width = 291;
},
{
associatedMasterId = m003;
layerId = "B2DA110A-38A4-419B-853E-D7226147048C";
width = 600;
},
{
anchors = (
{
name = bottom;
pos = (146,0);
},
{
name = top;
pos = (146,700);
}
);
associatedMasterId = m003;
background = {
shapes = (
{
pos = (24,0);
ref = S;
}
);
};
layerId = "6FAB9D40-4868-4A3C-BE43-AD6916F34A11";
name = "24 Feb 23 at 02:21";
shapes = (
{
closed = 1;
nodes = (
(272,196,o),
(270,202,o),
(264,202,cs),
(256,202,o),
(256,193,o),
(256,172,cs),
(256,101,o),
(239,11,o),
(195,11,cs),
(141,11,o),
(101,149,o),
(96,363,cs),
(91,579,o),
(126,696,o),
(178,696,cs),
(221,696,o),
(250,619,o),
(250,533,cs),
(250,511,o),
(249,500,o),
(258,500,cs),
(263,500,o),
(266,504,o),
(266,511,cs),
(266,521,o),
(258,550,o),
(258,610,cs),
(258,661,o),
(264,685,o),
(265,693,cs),
(267,708,o),
(262,710,o),
(258,710,cs),
(243,710,o),
(256,680,o),
(246,680,cs),
(236,680,o),
(210,709,o),
(174,709,cs),
(88,709,o),
(26,547,o),
(30,339,cs),
(33,134,o),
(98,-9,o),
(180,-9,cs),
(220,-9,o),
(242,24,o),
(252,24,cs),
(263,24,o),
(248,-9,o),
(264,-9,cs),
(269,-9,o),
(272,-5,o),
(272,2,cs),
(272,12,o),
(265,29,o),
(265,81,cs),
(265,133,o),
(272,177,o),
(272,189,cs)
);
}
);
width = 292;
}
);
metricLeft = O;
metricRight = "=O-10";
unicode = 67;
},
{
glyphname = D;
kernLeft = H;
kernRight = O;
lastChange = "2023-10-03 16:45:15 +0000";
layers = (
{
associatedMasterId = m003;
layerId = "B826CCEB-93D1-4672-AA88-F03DC20D1A32";
width = 600;
},
{
associatedMasterId = m003;
layerId = "E785B07C-7638-40DD-A08B-5080B4C14061";
width = 600;
},
{
anchors = (
{
name = bottom;
pos = (175,0);
},
{
name = center;
pos = (175,350);
},
{
name = top;
pos = (175,700);
}
);
background = {
shapes = (
{
ref = H;
}
);
};
hints = (
{
name = _corner.LeftSerifL;
options = 2;
origin = (1,1);
type = Corner;
},
{
name = _corner.LeftSerifL;
origin = (1,2);
scale = (-1,1);
type = Corner;
},
{
name = _segment.curve.capheight.inner;
origin = (1,0);
type = Segment;
},
{
name = _segment.curve.capheight.outer;
origin = (1,2);
type = Segment;
}
);
layerId = m003;
shapes = (
{
closed = 1;
nodes = (
(97,0,l),
(109,0,o),
(124,-1,o),
(138,-1,cs),
(249,-1,o),
(319,134,o),
(319,370,cs),
(319,568,o),
(248,703,o),
(137,701,cs),
(130,701,o),
(122,700,o),
(95,700,c),
(95,678,l),
(134,678,l),
(134,687,o),
(137,688,o),
(141,688,cs),
(216,683,o),
(258,569,o),
(258,371,cs),
(258,134,o),
(222,15,o),
(150,15,cs),
(143,15,o),
(143,17,o),
(142,32,c),
(97,32,l)
);
},
{
closed = 1;
nodes = (
(135,700,l,{
GSSegment = {
name = _segment.curve.capheight.inner;
};
}),
(71,700,l),
(80,0,l,{
GSSegment = {
name = _segment.curve.capheight.outer;
};
}),
(144,0,l)
);
}
);
width = 349;
},
{
associatedMasterId = m002;
layerId = "7F04D8F2-6DE9-4AEA-98E5-B1584E8AAE3F";
width = 600;
},
{
associatedMasterId = m002;
layerId = "41002F57-0E8C-4A05-9876-8318B05EE12F";
width = 600;
},
{
anchors = (
{
name = bottom;
pos = (365,0);
},
{
name = center;
pos = (365,350);
},
{
name = top;
pos = (365,700);
}
);
background = {
shapes = (
{
pos = (-26,0);
ref = O;
}
);
};
hints = (
{
name = _corner.LeftSerifL;
options = 2;
origin = (1,1);
type = Corner;
},
{
name = _corner.LeftSerifL;
origin = (1,2);
scale = (-1,1);
type = Corner;
},
{
name = _segment.curve.capheight.inner;
origin = (1,0);
type = Segment;
},
{
name = _segment.curve.capheight.outer;
origin = (1,2);
type = Segment;
}
);
layerId = m002;
shapes = (
{
closed = 1;
nodes = (
(164,0,l),
(172,0,o),
(203,0,o),
(358,0,cs),
(600,0,o),
(752,135,o),
(752,347,cs),
(752,563,o),
(600,700,o),
(358,700,cs),
(170,700,o),
(183,700,o),
(162,700,c),
(162,641,l),
(206,641,l),
(206,683,o),
(215,687,o),
(311,687,cs),
(548,687,o),
(680,566,o),
(680,348,cs),
(680,115,o),
(568,15,o),
(311,15,cs),
(213,15,o),
(206,17,o),
(205,92,c),
(164,92,l)
);
},
{
closed = 1;
nodes = (
(208,700,l),
(138,700,l),
(138,0,l),
(208,0,l)
);
}
);
width = 779;
},
{
associatedMasterId = m003;
layerId = "B2DA110A-38A4-419B-853E-D7226147048C";
width = 600;
},
{
anchors = (
{
name = bottom;
pos = (365,0);
},
{
name = center;
pos = (365,350);
},
{
name = top;
pos = (365,700);
}
);
associatedMasterId = m002;
background = {
shapes = (
{
ref = H;
}
);
};
hints = (
{
name = _corner.LeftSerifL;
options = 2;
origin = (1,1);
type = Corner;
},
{
name = _corner.LeftSerifL;
origin = (1,2);
scale = (-1,1);
type = Corner;
},
{
name = _segment.curve.capheight.inner;
origin = (1,0);
type = Segment;
},
{
name = _segment.curve.capheight.outer;
origin = (1,2);
type = Segment;
}
);
layerId = "2F1E2F06-52BA-4D8E-BD82-21CE03521DC7";
name = "2 May 23 at 12:35";
shapes = (
{
closed = 1;
nodes = (
(167,0,l),
(179,0,o),
(218,0,o),
(298,0,cs),
(538,0,o),
(689,134,o),
(689,347,cs),
(689,564,o),
(538,700,o),
(298,700,cs),
(180,700,o),
(182,700,o),
(165,700,c),
(165,641,l),
(203,641,l),
(203,682,o),
(214,687,o),
(251,687,cs),
(490,687,o),
(623,565,o),
(623,348,cs),
(623,116,o),
(510,15,o),
(251,15,cs),
(212,15,o),
(203,17,o),
(202,92,c),
(167,92,l)
);
},
{
closed = 1;
nodes = (
(205,700,l,{
GSSegment = {
name = _segment.curve.capheight.inner;
};
}),
(141,700,l),
(141,0,l,{
GSSegment = {
name = _segment.curve.capheight.outer;
};
}),
(205,0,l)
);
}
);
width = 719;
}
);
metricLeft = H;
metricRight = "=O";
unicode = 68;
},
{
glyphname = E;
kernLeft = H;
kernRight = E;
lastChange = "2023-11-01 15:00:10 +0000";
layers = (
{
anchors = (
{
name = bottom;
pos = (154,0);
},
{
name = ogonek;
pos = (273,10);
},
{
name = top;
pos = (166,700);
},
{
name = topleft;
pos = (25,700);
}
);
background = {
shapes = (
{
closed = 1;
nodes = (
(228,2,o),
(269,3,o),
(271,-3,cs),
(273,-10,o),
(276,-11,o),
(280,-11,cs),
(283,-11,o),
(287,-8,o),
(286,0,cs),
(284,15,o),
(279,40,o),
(279,86,cs),
(279,150,o),
(286,181,o),
(286,197,cs),
(286,203,o),
(283,206,o),
(278,206,cs),
(273,206,o),
(270,201,o),
(270,194,cs),
(270,116,o),
(267,72,o),
(251,47,cs),
(234,21,o),
(202,17,o),
(145,17,cs),
(138,17,o),
(134,18,o),
(133,40,c),
(124,40,l),
(124,2,l),
(140,2,o),
(146,2,o),
(153,2,cs)
);
},
{
pos = (59,0);
ref = S;
}
);
};
hints = (
{
name = _corner.LeftSerifL;
options = 2;
origin = (0,1);
type = Corner;
},
{
name = _corner.LeftSerifL;
origin = (0,2);
scale = (-1,1);
type = Corner;
},
{
name = _segment.curve.capheight.outer;
origin = (0,2);
type = Segment;
},
{
name = _segment.curve.capheight.inner;
origin = (0,0);
type = Segment;
}
);
layerId = m003;
shapes = (
{
closed = 1;
nodes = (
(135,700,l),
(71,700,l),
(71,0,l),
(135,0,l)
);
},
{
closed = 1;
nodes = (
(130,330,l),
(130,350,o),
(136,350,o),
(152,349,cs),
(196,345,o),
(215,328,o),
(215,250,cs),
(215,243,o),
(218,238,o),
(223,238,cs),
(227,238,o),
(231,241,o),
(231,249,cs),
(231,272,o),
(220,298,o),
(220,357,cs),
(220,420,o),
(231,440,o),
(231,461,cs),
(231,469,o),
(227,472,o),
(223,472,cs),
(218,472,o),
(215,467,o),
(215,460,cs),
(215,379,o),
(196,369,o),
(152,365,cs),
(136,364,o),
(130,364,o),
(130,388,c),
(121,388,l),
(121,330,l)
);
},
{
closed = 1;
nodes = (
(285,-6,o),
(289,-3,o),
(288,5,cs),
(286,20,o),
(281,40,o),
(281,80,cs),
(281,144,o),
(286,175,o),
(288,191,cs),
(289,200,o),
(285,203,o),
(280,203,cs),
(275,203,o),
(272,198,o),
(272,191,cs),
(272,34,o),
(255,13,o),
(147,13,cs),
(138,13,o),
(134,14,o),
(133,37,c),
(124,37,l),
(124,0,l),
(262,0,o),
(270,-6,o),
(280,-6,cs)
);
},
{
pos = (4,0);
ref = _Etop;
}
);
width = 303;
},
{
associatedMasterId = m003;
background = {
hints = (
{
name = _segment.curve.capheight.inner;
options = 1;
origin = (1,2);
scale = (1,-1);
type = Segment;
},
{
name = _corner.LeftSerifL;
options = 2;
origin = (1,1);
scale = (1,-1);
type = Corner;
},
{
name = _corner.LeftSerifL;
options = 1;
origin = (1,0);
scale = (-1,-1);
type = Corner;
}
);
shapes = (
{
closed = 1;
nodes = (
(264,-14,o),
(267,-11,o),
(267,-6,cs),
(267,13,o),
(258,33,o),
(258,78,cs),
(258,110,o),
(268,119,o),
(268,133,cs),
(268,141,o),
(265,149,o),
(257,149,cs),
(247,149,o),
(244,138,o),
(244,126,cs),
(244,82,o),
(248,49,o),
(248,36,cs),
(248,27,o),
(153,18,o),
(123,18,cs),
(116,18,o),
(110,18,o),
(110,27,cs),
(110,139,o),
(109,269,o),
(109,350,cs),
(109,356,o),
(112,358,o),
(119,358,cs),
(161,358,o),
(209,358,o),
(209,341,cs),
(209,322,o),
(203,274,o),
(224,274,cs),
(230,274,o),
(232,278,o),
(232,285,cs),
(232,299,o),
(220,316,o),
(220,367,cs),
(220,448,o),
(237,438,o),
(237,455,cs),
(237,463,o),
(232,469,o),
(226,469,cs),
(205,469,o),
(209,409,o),
(209,393,cs),
(209,376,o),
(131,376,o),
(119,376,cs),
(112,376,o),
(109,378,o),
(109,384,cs),
(108,674,ls),
(108,681,o),
(112,683,o),
(121,683,cs),
(134,683,o),
(241,676,o),
(241,667,cs),
(241,654,o),
(235,616,o),
(235,595,cs),
(235,572,o),
(242,561,o),
(250,561,cs),
(256,561,o),
(259,566,o),
(259,574,cs),
(259,590,o),
(249,594,o),
(249,621,cs),
(249,654,o),
(260,687,o),
(260,706,cs),
(260,711,o),
(257,714,o),
(253,714,cs),
(249,714,o),
(246,711,o),
(246,706,cs),
(246,701,o),
(244,700,o),
(238,700,cs),
(234,700,o),
(202,698,o),
(131,698,cs),
(101,698,o),
(82,699,o),
(69,699,cs),
(35,700,o),
(31,703,o),
(21,703,c),
(16,702,o),
(12,700,o),
(12,695,cs),
(12,689,o),
(17,685,o),
(26,686,cs),
(43,687,o),
(49,701,o),
(52,645,cs),
(54,578,o),
(56,490,o),
(57,368,cs),
(58,248,o),
(55,143,o),
(52,55,cs),
(50,-1,o),
(43,13,o),
(27,14,cs),
(18,14,o),
(13,10,o),
(13,4,cs),
(13,-1,o),
(17,-3,o),
(22,-3,cs),
(32,-3,o),
(36,0,o),
(70,1,cs),
(85,1,o),
(106,2,o),
(141,2,cs),
(193,2,o),
(231,0,o),
(243,0,cs),
(251,0,o),
(253,-1,o),
(253,-6,cs),
(253,-11,o),
(256,-14,o),
(260,-14,cs)
);
},
{
closed = 1;
nodes = (
(49,700,l,{
GSSegment = {
name = _segment.curve.capheight.outer;
};
}),
(49,0,l),
(113,2,l,{
GSSegment = {
name = _segment.curve.capheight.inner;
};
}),
(113,698,l)
);
},
{
closed = 1;
nodes = (
(109,328,o),
(110,327,o),
(171,327,cs),
(232,327,o),
(233,328,o),
(233,306,c),
(243,306,l),
(243,364,l),
(233,364,l),
(233,342,o),
(232,343,o),
(171,343,cs),
(110,343,o),
(109,342,o),
(109,364,c),
(99,364,l),
(99,306,l),
(109,306,l)
);
},
{
closed = 1;
nodes = (
(202,2,o),
(234,0,o),
(238,0,cs),
(244,0,o),
(246,-1,o),
(246,-6,cs),
(246,-11,o),
(249,-14,o),
(253,-14,cs),
(257,-14,o),
(260,-11,o),
(260,-6,cs),
(260,13,o),
(249,46,o),
(249,79,cs),
(249,106,o),
(259,110,o),
(259,126,cs),
(259,134,o),
(256,139,o),
(250,139,cs),
(242,139,o),
(235,128,o),
(235,105,cs),
(235,84,o),
(241,46,o),
(241,33,cs),
(241,24,o),
(144,17,o),
(128,17,cs),
(117,17,o),
(111,18,o),
(111,37,c),
(102,37,l),
(102,2,l),
(118,2,o),
(124,2,o),
(131,2,cs)
);
},
{
closed = 1;
nodes = (
(102,645,l),
(111,659,l),
(111,684,o),
(113,683,o),
(128,683,cs),
(144,683,o),
(249,673,o),
(249,664,cs),
(249,651,o),
(243,606,o),
(243,585,cs),
(243,562,o),
(248,551,o),
(258,551,cs),
(264,551,o),
(268,558,o),
(268,567,cs),
(268,583,o),
(257,591,o),
(257,618,cs),
(257,651,o),
(268,687,o),
(268,706,cs),
(268,711,o),
(265,714,o),
(261,714,cs),
(257,714,o),
(254,711,o),
(254,706,cs),
(254,701,o),
(252,700,o),
(246,700,cs),
(242,700,o),
(202,698,o),
(131,698,cs),
(124,698,o),
(118,698,o),
(102,698,c)
);
}
);
};
hints = (
{
name = _corner.LeftSerifL;
options = 2;
origin = (0,1);
type = Corner;
},
{
name = _corner.LeftSerifL;
origin = (0,2);
scale = (-1,1);
type = Corner;
},
{
name = _segment.curve.capheight.outer;
origin = (0,2);
type = Segment;
},
{
name = _segment.curve.capheight.inner;
origin = (0,0);
type = Segment;
}
);
layerId = "B95481C1-F7AE-4141-9FA7-74B71391E0C8";
name = "17 Dec 22 at 21:05";
shapes = (
{
closed = 1;
nodes = (
(113,698,l),
(49,700,l),
(49,0,l),
(113,2,l)
);
},
{
closed = 1;
nodes = (
(99,394,l),
(99,336,l),
(109,336,l),
(109,351,o),
(109,357,o),
(130,357,cs),
(139,357,o),
(209,358,o),
(209,336,cs),
(209,322,o),
(204,274,o),
(223,274,cs),
(230,274,o),
(232,278,o),
(232,285,cs),
(232,299,o),
(220,316,o),
(220,365,cs),
(220,448,o),
(237,437,o),
(237,456,cs),
(237,463,o),
(232,469,o),
(226,469,cs),
(205,469,o),
(209,409,o),
(209,393,cs),
(209,376,o),
(139,373,o),
(130,373,cs),
(109,373,o),
(109,379,o),
(109,394,c)
);
},
{
closed = 1;
nodes = (
(124,698,o),
(118,698,o),
(102,698,c),
(102,663,l),
(111,663,l),
(111,684,o),
(116,683,o),
(123,683,cs),
(144,683,o),
(241,676,o),
(241,667,cs),
(241,654,o),
(235,616,o),
(235,595,cs),
(235,572,o),
(242,561,o),
(250,561,cs),
(256,561,o),
(259,566,o),
(259,574,cs),
(259,590,o),
(249,594,o),
(249,621,cs),
(249,654,o),
(260,687,o),
(260,706,cs),
(260,711,o),
(257,714,o),
(253,714,cs),
(249,714,o),
(246,711,o),
(246,706,cs),
(246,701,o),
(244,700,o),
(238,700,cs),
(234,700,o),
(202,698,o),
(131,698,cs)
);
},
{
closed = 1;
nodes = (
(118,2,o),
(124,2,o),
(131,2,cs),
(202,2,o),
(242,0,o),
(246,0,cs),
(252,0,o),
(254,-1,o),
(254,-6,cs),
(254,-11,o),
(257,-14,o),
(261,-14,cs),
(265,-14,o),
(268,-11,o),
(268,-6,cs),
(268,13,o),
(257,49,o),
(257,82,cs),
(257,109,o),
(268,117,o),
(268,133,cs),
(268,142,o),
(264,149,o),
(258,149,cs),
(248,149,o),
(243,138,o),
(243,115,cs),
(243,94,o),
(249,49,o),
(249,36,cs),
(249,27,o),
(144,17,o),
(128,17,cs),
(113,17,o),
(111,16,o),
(111,41,c),
(102,55,l),
(102,2,l)
);
}
);
width = 376;
},
{
associatedMasterId = m003;
background = {
hints = (
{
name = _segment.curve.capheight.inner;
options = 1;
origin = (0,2);
scale = (1,-1);
type = Segment;
},
{
name = _corner.LeftSerifL;
options = 2;
origin = (0,1);
scale = (1,-1);
type = Corner;
},
{
name = _corner.LeftSerifL;
options = 1;
origin = (0,0);
scale = (-1,-1);
type = Corner;
}
);
shapes = (
{
closed = 1;
nodes = (
(66,730,l,{
GSSegment = {
name = _segment.curve.capheight.outer;
};
}),
(66,30,l),
(130,32,l,{
GSSegment = {
name = _segment.curve.capheight.inner;
};
}),
(130,728,l)
);
},
{
closed = 1;
nodes = (
(219,32,o),
(251,30,o),
(255,30,cs),
(261,30,o),
(263,29,o),
(263,24,cs),
(263,19,o),
(266,16,o),
(270,16,cs),
(274,16,o),
(277,19,o),
(277,24,cs),
(277,43,o),
(266,76,o),
(266,109,cs),
(266,136,o),
(276,140,o),
(276,156,cs),
(276,164,o),
(273,169,o),
(267,169,cs),
(259,169,o),
(252,158,o),
(252,135,cs),
(252,114,o),
(258,76,o),
(258,63,cs),
(258,54,o),
(161,47,o),
(140,47,cs),
(133,47,o),
(128,46,o),
(128,67,c),
(119,67,l),
(119,32,l),
(135,32,o),
(141,32,o),
(148,32,cs)
);
},
{
closed = 1;
nodes = (
(119,675,l),
(128,689,l),
(128,714,o),
(130,713,o),
(145,713,cs),
(161,713,o),
(266,703,o),
(266,694,cs),
(266,681,o),
(260,636,o),
(260,615,cs),
(260,592,o),
(265,581,o),
(275,581,cs),
(281,581,o),
(285,588,o),
(285,597,cs),
(285,613,o),
(274,621,o),
(274,648,cs),
(274,681,o),
(285,717,o),
(285,736,cs),
(285,741,o),
(282,744,o),
(278,744,cs),
(274,744,o),
(271,741,o),
(271,736,cs),
(271,731,o),
(269,730,o),
(263,730,cs),
(259,730,o),
(219,728,o),
(148,728,cs),
(141,728,o),
(135,728,o),
(119,728,c)
);
},
{
closed = 1;
nodes = (
(117,338,l),
(126,338,l),
(126,358,o),
(131,357,o),
(161,357,cs),
(219,357,o),
(226,351,o),
(226,340,cs),
(226,302,o),
(223,292,o),
(223,276,cs),
(223,270,o),
(225,262,o),
(233,262,cs),
(239,262,o),
(244,266,o),
(244,274,cs),
(244,290,o),
(239,289,o),
(239,365,cs),
(239,423,o),
(244,436,o),
(244,452,cs),
(244,462,o),
(240,465,o),
(234,465,cs),
(226,465,o),
(223,458,o),
(223,452,cs),
(223,437,o),
(226,429,o),
(226,390,cs),
(226,376,o),
(219,373,o),
(161,373,cs),
(131,373,o),
(126,372,o),
(126,392,c),
(117,392,l)
);
}
);
};
hints = (
{
name = _corner.LeftSerifL;
options = 2;
origin = (0,1);
type = Corner;
},
{
name = _corner.LeftSerifL;
origin = (0,2);
scale = (-1,1);
type = Corner;
},
{
name = _segment.curve.capheight.outer;
origin = (0,2);
type = Segment;
},
{
name = _segment.curve.capheight.inner;
origin = (0,0);
type = Segment;
}
);
layerId = "9274166B-A71D-481C-A757-2151A571A01C";
name = "17 Dec 22 at 21:17";
shapes = (
{
closed = 1;
nodes = (
(130,698,l),
(66,700,l),
(66,0,l),
(130,2,l)
);
},
{
closed = 1;
nodes = (
(141,698,o),
(135,698,o),
(119,698,c),
(119,663,l),
(128,663,l),
(128,684,o),
(133,683,o),
(140,683,cs),
(161,683,o),
(258,676,o),
(258,667,cs),
(258,654,o),
(252,616,o),
(252,595,cs),
(252,572,o),
(259,561,o),
(267,561,cs),
(273,561,o),
(276,566,o),
(276,574,cs),
(276,590,o),
(266,594,o),
(266,621,cs),
(266,654,o),
(277,687,o),
(277,706,cs),
(277,711,o),
(274,714,o),
(270,714,cs),
(266,714,o),
(263,711,o),
(263,706,cs),
(263,701,o),
(261,700,o),
(255,700,cs),
(251,700,o),
(219,698,o),
(148,698,cs)
);
},
{
closed = 1;
nodes = (
(135,2,o),
(141,2,o),
(148,2,cs),
(219,2,o),
(259,0,o),
(263,0,cs),
(269,0,o),
(271,-1,o),
(271,-6,cs),
(271,-11,o),
(274,-14,o),
(278,-14,cs),
(282,-14,o),
(285,-11,o),
(285,-6,cs),
(285,13,o),
(274,49,o),
(274,82,cs),
(274,109,o),
(285,117,o),
(285,133,cs),
(285,142,o),
(281,149,o),
(275,149,cs),
(265,149,o),
(260,138,o),
(260,115,cs),
(260,94,o),
(266,49,o),
(266,36,cs),
(266,27,o),
(161,17,o),
(145,17,cs),
(130,17,o),
(128,16,o),
(128,41,c),
(119,55,l),
(119,2,l)
);
},
{
closed = 1;
nodes = (
(126,338,l),
(126,358,o),
(131,357,o),
(161,357,cs),
(219,357,o),
(226,352,o),
(226,338,cs),
(226,299,o),
(223,290,o),
(223,275,cs),
(223,269,o),
(226,262,o),
(234,262,cs),
(240,262,o),
(244,265,o),
(244,275,cs),
(244,291,o),
(239,305,o),
(239,363,cs),
(239,439,o),
(244,438,o),
(244,454,cs),
(244,462,o),
(239,466,o),
(233,466,cs),
(225,466,o),
(223,458,o),
(223,452,cs),
(223,436,o),
(226,426,o),
(226,388,cs),
(226,377,o),
(219,373,o),
(161,373,cs),
(131,373,o),
(126,372,o),
(126,392,c),
(117,392,l),
(117,338,l)
);
}
);
width = 315;
},
{
associatedMasterId = m003;
background = {
shapes = (
{
ref = H;
}
);
};
hints = (
{
name = _corner.LeftSerifL;
options = 2;
origin = (0,1);
type = Corner;
},
{
name = _corner.LeftSerifL;
origin = (0,2);
scale = (-1,1);
type = Corner;
},
{
name = _segment.curve.capheight.outer;
origin = (0,2);
type = Segment;
},
{
name = _segment.curve.capheight.inner;
origin = (0,0);
type = Segment;
}
);
layerId = "120A8EDA-2A3D-416D-AB3B-7F25CCC2A894";
name = "17 Dec 22 at 21:34";
shapes = (
{
closed = 1;
nodes = (
(130,698,l),
(66,700,l),
(66,0,l),
(130,2,l)
);
},
{
closed = 1;
nodes = (
(141,698,o),
(135,698,o),
(119,698,c),
(119,663,l),
(128,663,l),
(128,684,o),
(133,683,o),
(140,683,cs),
(161,683,o),
(258,676,o),
(258,667,cs),
(258,654,o),
(252,616,o),
(252,595,cs),
(252,572,o),
(259,561,o),
(267,561,cs),
(273,561,o),
(276,566,o),
(276,574,cs),
(276,590,o),
(266,594,o),
(266,621,cs),
(266,654,o),
(277,687,o),
(277,706,cs),
(277,711,o),
(274,714,o),
(270,714,cs),
(266,714,o),
(263,711,o),
(263,706,cs),
(263,701,o),
(261,700,o),
(255,700,cs),
(251,700,o),
(219,698,o),
(148,698,cs)
);
},
{
closed = 1;
nodes = (
(135,2,o),
(141,2,o),
(148,2,cs),
(224,2,o),
(264,0,o),
(268,0,cs),
(274,0,o),
(276,-1,o),
(276,-6,cs),
(276,-11,o),
(279,-14,o),
(283,-14,cs),
(287,-14,o),
(291,-11,o),
(291,-4,cs),
(291,13,o),
(280,59,o),
(280,92,cs),
(280,119,o),
(290,127,o),
(290,143,cs),
(290,152,o),
(286,159,o),
(280,159,cs),
(270,159,o),
(265,148,o),
(265,125,cs),
(265,104,o),
(271,49,o),
(271,36,cs),
(271,27,o),
(161,17,o),
(145,17,cs),
(130,17,o),
(128,16,o),
(128,41,c),
(119,55,l),
(119,2,l)
);
},
{
closed = 1;
nodes = (
(126,338,l),
(126,358,o),
(131,357,o),
(153,357,cs),
(171,357,o),
(226,352,o),
(226,343,cs),
(226,307,o),
(222,282,o),
(222,273,cs),
(222,263,o),
(227,258,o),
(235,258,cs),
(241,258,o),
(246,263,o),
(246,273,cs),
(246,289,o),
(238,305,o),
(238,363,cs),
(238,429,o),
(248,436,o),
(248,452,cs),
(248,460,o),
(242,466,o),
(236,466,cs),
(228,466,o),
(224,460,o),
(224,452,cs),
(224,441,o),
(226,424,o),
(226,387,cs),
(226,378,o),
(171,373,o),
(153,373,cs),
(131,373,o),
(126,372,o),
(126,392,c),
(117,392,l),
(117,338,l)
);
}
);
width = 315;
},
{
associatedMasterId = m003;
background = {
shapes = (
{
ref = H;
}
);
};
hints = (
{
name = _corner.LeftSerifL;
options = 2;
origin = (0,1);
type = Corner;
},
{
name = _corner.LeftSerifL;
origin = (0,2);
scale = (-1,1);
type = Corner;
},
{
name = _segment.curve.capheight.outer;
origin = (0,2);
type = Segment;
},
{
name = _segment.curve.capheight.inner;
origin = (0,0);
type = Segment;
}
);
layerId = "8D3313FC-53A3-438A-9851-AD931E87BDF7";
name = "17 Dec 22 at 23:03";
shapes = (
{
closed = 1;
nodes = (
(130,698,l),
(66,700,l),
(66,0,l),
(130,2,l)
);
},
{
closed = 1;
nodes = (
(135,2,o),
(141,2,o),
(148,2,cs),
(224,2,o),
(264,0,o),
(268,0,cs),
(274,0,o),
(276,-1,o),
(276,-6,cs),
(276,-11,o),
(279,-14,o),
(283,-14,cs),
(287,-14,o),
(291,-11,o),
(291,-4,cs),
(291,13,o),
(280,59,o),
(280,92,cs),
(280,119,o),
(290,127,o),
(290,143,cs),
(290,152,o),
(286,159,o),
(280,159,cs),
(270,159,o),
(265,148,o),
(265,125,cs),
(265,104,o),
(271,49,o),
(271,46,cs),
(271,27,o),
(161,17,o),
(145,17,cs),
(130,17,o),
(128,16,o),
(128,41,c),
(119,55,l),
(119,2,l)
);
},
{
closed = 1;
nodes = (
(126,338,l),
(126,358,o),
(131,357,o),
(153,357,cs),
(171,357,o),
(226,352,o),
(226,343,cs),
(226,307,o),
(222,282,o),
(222,273,cs),
(222,263,o),
(227,258,o),
(235,258,cs),
(241,258,o),
(245,263,o),
(245,273,cs),
(245,289,o),
(237,285,o),
(237,363,cs),
(237,449,o),
(245,436,o),
(245,452,cs),
(245,460,o),
(240,466,o),
(234,466,cs),
(226,466,o),
(222,460,o),
(222,452,cs),
(222,441,o),
(226,424,o),
(226,387,cs),
(226,378,o),
(171,373,o),
(153,373,cs),
(131,373,o),
(126,372,o),
(126,392,c),
(117,392,l),
(117,338,l)
);
},
{
ref = _Etop;
}
);
width = 311;
},
{
associatedMasterId = m003;
background = {
shapes = (
{
ref = H;
}
);
};
hints = (
{
name = _corner.LeftSerifL;
options = 2;
origin = (0,1);
type = Corner;
},
{
name = _corner.LeftSerifL;
origin = (0,2);
scale = (-1,1);
type = Corner;
},
{
name = _segment.curve.capheight.outer;
origin = (0,2);
type = Segment;
},
{
name = _segment.curve.capheight.inner;
origin = (0,0);
type = Segment;
}
);
layerId = "5ED34DFF-A5A9-4ACF-A3FD-15BA3CF427BA";
name = "17 Dec 22 at 23:52";
shapes = (
{
closed = 1;
nodes = (
(130,698,l),
(66,700,l),
(66,0,l),
(130,2,l)
);
},
{
closed = 1;
nodes = (
(135,2,o),
(141,2,o),
(148,2,cs),
(224,2,o),
(264,0,o),
(268,0,cs),
(274,0,o),
(276,-1,o),
(276,-6,cs),
(276,-11,o),
(279,-14,o),
(283,-14,cs),
(287,-14,o),
(291,-11,o),
(291,-4,cs),
(291,13,o),
(280,59,o),
(280,92,cs),
(280,119,o),
(290,127,o),
(290,143,cs),
(290,152,o),
(286,159,o),
(280,159,cs),
(270,159,o),
(265,148,o),
(265,125,cs),
(265,104,o),
(271,49,o),
(271,46,cs),
(271,27,o),
(161,17,o),
(145,17,cs),
(130,17,o),
(128,16,o),
(128,41,c),
(119,55,l),
(119,2,l)
);
},
{
closed = 1;
nodes = (
(126,338,l),
(126,358,o),
(131,357,o),
(153,357,cs),
(171,357,o),
(201,341,o),
(205,333,cs),
(225,297,o),
(217,282,o),
(217,273,cs),
(217,263,o),
(222,258,o),
(230,258,cs),
(236,258,o),
(240,263,o),
(240,273,cs),
(240,309,o),
(212,334,o),
(212,363,cs),
(212,391,o),
(240,416,o),
(240,452,cs),
(240,460,o),
(235,466,o),
(229,466,cs),
(221,466,o),
(217,460,o),
(217,452,cs),
(217,441,o),
(225,434,o),
(205,397,cs),
(201,389,o),
(171,373,o),
(153,373,cs),
(131,373,o),
(126,372,o),
(126,392,c),
(117,392,l),
(117,338,l)
);
},
{
ref = _Etop;
}
);
width = 311;
},
{
associatedMasterId = m003;
background = {
shapes = (
{
ref = H;
}
);
};
hints = (
{
name = _corner.LeftSerifL;
options = 2;
origin = (0,1);
type = Corner;
},
{
name = _corner.LeftSerifL;
origin = (0,2);
scale = (-1,1);
type = Corner;
},
{
name = _segment.curve.capheight.outer;
origin = (0,2);
type = Segment;
},
{
name = _segment.curve.capheight.inner;
origin = (0,0);
type = Segment;
}
);
layerId = "5BCB9B24-0B0B-4CF0-8CE9-36821D4329B8";
name = "19 Dec 22 at 16:34";
shapes = (
{
closed = 1;
nodes = (
(130,698,l),
(66,700,l),
(67,0,l),
(131,2,l)
);
},
{
closed = 1;
nodes = (
(136,2,o),
(142,2,o),
(149,2,cs),
(221,2,o),
(261,0,o),
(265,0,cs),
(271,0,o),
(273,-1,o),
(273,-6,cs),
(273,-11,o),
(276,-14,o),
(280,-14,cs),
(284,-14,o),
(288,-11,o),
(288,-4,cs),
(288,13,o),
(277,59,o),
(277,92,cs),
(277,119,o),
(287,127,o),
(287,143,cs),
(287,152,o),
(283,159,o),
(277,159,cs),
(267,159,o),
(262,148,o),
(262,125,cs),
(262,104,o),
(268,49,o),
(268,46,cs),
(268,27,o),
(162,17,o),
(146,17,cs),
(131,17,o),
(129,16,o),
(129,41,c),
(120,55,l),
(120,2,l)
);
},
{
closed = 1;
nodes = (
(126,338,l),
(126,358,o),
(132,357,o),
(154,357,cs),
(199,357,o),
(227,356,o),
(227,268,cs),
(227,261,o),
(230,256,o),
(235,256,cs),
(239,256,o),
(243,259,o),
(243,267,cs),
(243,290,o),
(233,306,o),
(233,365,cs),
(233,428,o),
(243,438,o),
(243,459,cs),
(243,467,o),
(239,470,o),
(235,470,cs),
(230,470,o),
(227,465,o),
(227,458,cs),
(227,367,o),
(197,373,o),
(154,373,cs),
(132,373,o),
(126,372,o),
(126,396,c),
(117,396,l),
(117,338,l)
);
},
{
ref = _Etop;
}
);
width = 308;
},
{
anchors = (
{
name = bottom;
pos = (352,0);
},
{
name = ogonek;
pos = (633,10);
},
{
name = top;
pos = (370,700);
},
{
name = topleft;
pos = (20,700);
}
);
background = {
shapes = (
{
pos = (10,0);
ref = H;
}
);
};
hints = (
{
name = _corner.LeftSerifL;
options = 2;
origin = (0,1);
type = Corner;
},
{
name = _corner.LeftSerifL;
origin = (0,2);
scale = (-1,1);
type = Corner;
},
{
name = _segment.curve.capheight.outer;
origin = (0,2);
type = Segment;
},
{
name = _segment.curve.capheight.inner;
origin = (0,0);
type = Segment;
}
);
layerId = m002;
shapes = (
{
closed = 1;
nodes = (
(208,700,l),
(138,700,l),
(138,0,l),
(208,0,l)
);
},
{
closed = 1;
nodes = (
(203,280,l),
(203,349,o),
(206,349,o),
(292,349,cs),
(446,349,o),
(472,335,o),
(472,250,cs),
(472,242,o),
(476,238,o),
(483,238,cs),
(489,238,o),
(494,240,o),
(494,249,cs),
(494,271,o),
(483,297,o),
(483,357,cs),
(483,421,o),
(494,441,o),
(494,461,cs),
(494,470,o),
(489,472,o),
(483,472,cs),
(476,472,o),
(472,468,o),
(472,460,cs),
(472,378,o),
(447,365,o),
(292,365,cs),
(206,365,o),
(203,365,o),
(203,438,c),
(188,438,l),
(188,280,l)
);
},
{
closed = 1;
nodes = (
(667,-6,o),
(672,-3,o),
(671,5,cs),
(669,19,o),
(664,40,o),
(664,80,cs),
(664,144,o),
(669,175,o),
(671,208,cs),
(672,217,o),
(667,220,o),
(660,220,cs),
(653,220,o),
(649,216,o),
(649,208,cs),
(649,33,o),
(633,13,o),
(307,13,cs),
(209,13,o),
(207,14,o),
(205,87,c),
(190,87,l),
(191,0,l),
(640,0,o),
(648,-6,o),
(660,-6,cs)
);
},
{
pos = (74,0);
ref = _Etop;
}
);
width = 706;
},
{
associatedMasterId = m002;
background = {
hints = (
{
name = _segment.curve.capheight.inner;
options = 1;
origin = (1,2);
scale = (1,-1);
type = Segment;
},
{
name = _corner.LeftSerifL;
options = 2;
origin = (1,1);
scale = (1,-1);
type = Corner;
},
{
name = _corner.LeftSerifL;
options = 1;
origin = (1,0);
scale = (-1,-1);
type = Corner;
}
);
shapes = (
{
closed = 1;
nodes = (
(264,-14,o),
(267,-11,o),
(267,-6,cs),
(267,13,o),
(258,33,o),
(258,78,cs),
(258,110,o),
(268,119,o),
(268,133,cs),
(268,141,o),
(265,149,o),
(257,149,cs),
(247,149,o),
(244,138,o),
(244,126,cs),
(244,82,o),
(248,49,o),
(248,36,cs),
(248,27,o),
(153,18,o),
(123,18,cs),
(116,18,o),
(110,18,o),
(110,27,cs),
(110,139,o),
(109,269,o),
(109,350,cs),
(109,356,o),
(112,358,o),
(119,358,cs),
(161,358,o),
(209,358,o),
(209,341,cs),
(209,322,o),
(203,274,o),
(224,274,cs),
(230,274,o),
(232,278,o),
(232,285,cs),
(232,299,o),
(220,316,o),
(220,367,cs),
(220,448,o),
(237,438,o),
(237,455,cs),
(237,463,o),
(232,469,o),
(226,469,cs),
(205,469,o),
(209,409,o),
(209,393,cs),
(209,376,o),
(131,376,o),
(119,376,cs),
(112,376,o),
(109,378,o),
(109,384,cs),
(108,674,ls),
(108,681,o),
(112,683,o),
(121,683,cs),
(134,683,o),
(241,676,o),
(241,667,cs),
(241,654,o),
(235,616,o),
(235,595,cs),
(235,572,o),
(242,561,o),
(250,561,cs),
(256,561,o),
(259,566,o),
(259,574,cs),
(259,590,o),
(249,594,o),
(249,621,cs),
(249,654,o),
(260,687,o),
(260,706,cs),
(260,711,o),
(257,714,o),
(253,714,cs),
(249,714,o),
(246,711,o),
(246,706,cs),
(246,701,o),
(244,700,o),
(238,700,cs),
(234,700,o),
(202,698,o),
(131,698,cs),
(101,698,o),
(82,699,o),
(69,699,cs),
(35,700,o),
(31,703,o),
(21,703,c),
(16,702,o),
(12,700,o),
(12,695,cs),
(12,689,o),
(17,685,o),
(26,686,cs),
(43,687,o),
(49,701,o),
(52,645,cs),
(54,578,o),
(56,490,o),
(57,368,cs),
(58,248,o),
(55,143,o),
(52,55,cs),
(50,-1,o),
(43,13,o),
(27,14,cs),
(18,14,o),
(13,10,o),
(13,4,cs),
(13,-1,o),
(17,-3,o),
(22,-3,cs),
(32,-3,o),
(36,0,o),
(70,1,cs),
(85,1,o),
(106,2,o),
(141,2,cs),
(193,2,o),
(231,0,o),
(243,0,cs),
(251,0,o),
(253,-1,o),
(253,-6,cs),
(253,-11,o),
(256,-14,o),
(260,-14,cs)
);
},
{
closed = 1;
nodes = (
(49,700,l,{
GSSegment = {
name = _segment.curve.capheight.outer;
};
}),
(49,0,l),
(113,2,l,{
GSSegment = {
name = _segment.curve.capheight.inner;
};
}),
(113,698,l)
);
},
{
closed = 1;
nodes = (
(109,328,o),
(110,327,o),
(171,327,cs),
(232,327,o),
(233,328,o),
(233,306,c),
(243,306,l),
(243,364,l),
(233,364,l),
(233,342,o),
(232,343,o),
(171,343,cs),
(110,343,o),
(109,342,o),
(109,364,c),
(99,364,l),
(99,306,l),
(109,306,l)
);
},
{
closed = 1;
nodes = (
(202,2,o),
(234,0,o),
(238,0,cs),
(244,0,o),
(246,-1,o),
(246,-6,cs),
(246,-11,o),
(249,-14,o),
(253,-14,cs),
(257,-14,o),
(260,-11,o),
(260,-6,cs),
(260,13,o),
(249,46,o),
(249,79,cs),
(249,106,o),
(259,110,o),
(259,126,cs),
(259,134,o),
(256,139,o),
(250,139,cs),
(242,139,o),
(235,128,o),
(235,105,cs),
(235,84,o),
(241,46,o),
(241,33,cs),
(241,24,o),
(144,17,o),
(128,17,cs),
(117,17,o),
(111,18,o),
(111,37,c),
(102,37,l),
(102,2,l),
(118,2,o),
(124,2,o),
(131,2,cs)
);
},
{
closed = 1;
nodes = (
(102,645,l),
(111,659,l),
(111,684,o),
(113,683,o),
(128,683,cs),
(144,683,o),
(249,673,o),
(249,664,cs),
(249,651,o),
(243,606,o),
(243,585,cs),
(243,562,o),
(248,551,o),
(258,551,cs),
(264,551,o),
(268,558,o),
(268,567,cs),
(268,583,o),
(257,591,o),
(257,618,cs),
(257,651,o),
(268,687,o),
(268,706,cs),
(268,711,o),
(265,714,o),
(261,714,cs),
(257,714,o),
(254,711,o),
(254,706,cs),
(254,701,o),
(252,700,o),
(246,700,cs),
(242,700,o),
(202,698,o),
(131,698,cs),
(124,698,o),
(118,698,o),
(102,698,c)
);
}
);
};
hints = (
{
name = _corner.LeftSerifL;
options = 2;
origin = (0,1);
type = Corner;
},
{
name = _corner.LeftSerifL;
origin = (0,2);
scale = (-1,1);
type = Corner;
},
{
name = _segment.curve.capheight.outer;
origin = (0,2);
type = Segment;
},
{
name = _segment.curve.capheight.inner;
origin = (0,0);
type = Segment;
}
);
layerId = "A973C936-2B71-4F4E-8E1B-9DB234A7B1D4";
name = "17 Dec 22 at 21:05";
shapes = (
{
closed = 1;
nodes = (
(113,698,l),
(49,700,l),
(49,0,l),
(113,2,l)
);
},
{
closed = 1;
nodes = (
(99,394,l),
(99,336,l),
(109,336,l),
(109,351,o),
(109,357,o),
(130,357,cs),
(139,357,o),
(209,358,o),
(209,336,cs),
(209,322,o),
(204,274,o),
(223,274,cs),
(230,274,o),
(232,278,o),
(232,285,cs),
(232,299,o),
(220,316,o),
(220,365,cs),
(220,448,o),
(237,437,o),
(237,456,cs),
(237,463,o),
(232,469,o),
(226,469,cs),
(205,469,o),
(209,409,o),
(209,393,cs),
(209,376,o),
(139,373,o),
(130,373,cs),
(109,373,o),
(109,379,o),
(109,394,c)
);
},
{
closed = 1;
nodes = (
(124,698,o),
(118,698,o),
(102,698,c),
(102,663,l),
(111,663,l),
(111,684,o),
(116,683,o),
(123,683,cs),
(144,683,o),
(241,676,o),
(241,667,cs),
(241,654,o),
(235,616,o),
(235,595,cs),
(235,572,o),
(242,561,o),
(250,561,cs),
(256,561,o),
(259,566,o),
(259,574,cs),
(259,590,o),
(249,594,o),
(249,621,cs),
(249,654,o),
(260,687,o),
(260,706,cs),
(260,711,o),
(257,714,o),
(253,714,cs),
(249,714,o),
(246,711,o),
(246,706,cs),
(246,701,o),
(244,700,o),
(238,700,cs),
(234,700,o),
(202,698,o),
(131,698,cs)
);
},
{
closed = 1;
nodes = (
(118,2,o),
(124,2,o),
(131,2,cs),
(202,2,o),
(242,0,o),
(246,0,cs),
(252,0,o),
(254,-1,o),
(254,-6,cs),
(254,-11,o),
(257,-14,o),
(261,-14,cs),
(265,-14,o),
(268,-11,o),
(268,-6,cs),
(268,13,o),
(257,49,o),
(257,82,cs),
(257,109,o),
(268,117,o),
(268,133,cs),
(268,142,o),
(264,149,o),
(258,149,cs),
(248,149,o),
(243,138,o),
(243,115,cs),
(243,94,o),
(249,49,o),
(249,36,cs),
(249,27,o),
(144,17,o),
(128,17,cs),
(113,17,o),
(111,16,o),
(111,41,c),
(102,55,l),
(102,2,l)
);
}
);
width = 376;
},
{
associatedMasterId = m002;
background = {
hints = (
{
name = _segment.curve.capheight.inner;
options = 1;
origin = (0,2);
scale = (1,-1);
type = Segment;
},
{
name = _corner.LeftSerifL;
options = 2;
origin = (0,1);
scale = (1,-1);
type = Corner;
},
{
name = _corner.LeftSerifL;
options = 1;
origin = (0,0);
scale = (-1,-1);
type = Corner;
}
);
shapes = (
{
closed = 1;
nodes = (
(66,730,l,{
GSSegment = {
name = _segment.curve.capheight.outer;
};
}),
(66,30,l),
(130,32,l,{
GSSegment = {
name = _segment.curve.capheight.inner;
};
}),
(130,728,l)
);
},
{
closed = 1;
nodes = (
(219,32,o),
(251,30,o),
(255,30,cs),
(261,30,o),
(263,29,o),
(263,24,cs),
(263,19,o),
(266,16,o),
(270,16,cs),
(274,16,o),
(277,19,o),
(277,24,cs),
(277,43,o),
(266,76,o),
(266,109,cs),
(266,136,o),
(276,140,o),
(276,156,cs),
(276,164,o),
(273,169,o),
(267,169,cs),
(259,169,o),
(252,158,o),
(252,135,cs),
(252,114,o),
(258,76,o),
(258,63,cs),
(258,54,o),
(161,47,o),
(140,47,cs),
(133,47,o),
(128,46,o),
(128,67,c),
(119,67,l),
(119,32,l),
(135,32,o),
(141,32,o),
(148,32,cs)
);
},
{
closed = 1;
nodes = (
(119,675,l),
(128,689,l),
(128,714,o),
(130,713,o),
(145,713,cs),
(161,713,o),
(266,703,o),
(266,694,cs),
(266,681,o),
(260,636,o),
(260,615,cs),
(260,592,o),
(265,581,o),
(275,581,cs),
(281,581,o),
(285,588,o),
(285,597,cs),
(285,613,o),
(274,621,o),
(274,648,cs),
(274,681,o),
(285,717,o),
(285,736,cs),
(285,741,o),
(282,744,o),
(278,744,cs),
(274,744,o),
(271,741,o),
(271,736,cs),
(271,731,o),
(269,730,o),
(263,730,cs),
(259,730,o),
(219,728,o),
(148,728,cs),
(141,728,o),
(135,728,o),
(119,728,c)
);
},
{
closed = 1;
nodes = (
(117,338,l),
(126,338,l),
(126,358,o),
(131,357,o),
(161,357,cs),
(219,357,o),
(226,351,o),
(226,340,cs),
(226,302,o),
(223,292,o),
(223,276,cs),
(223,270,o),
(225,262,o),
(233,262,cs),
(239,262,o),
(244,266,o),
(244,274,cs),
(244,290,o),
(239,289,o),
(239,365,cs),
(239,423,o),
(244,436,o),
(244,452,cs),
(244,462,o),
(240,465,o),
(234,465,cs),
(226,465,o),
(223,458,o),
(223,452,cs),
(223,437,o),
(226,429,o),
(226,390,cs),
(226,376,o),
(219,373,o),
(161,373,cs),
(131,373,o),
(126,372,o),
(126,392,c),
(117,392,l)
);
}
);
};
hints = (
{
name = _corner.LeftSerifL;
options = 2;
origin = (0,1);
type = Corner;
},
{
name = _corner.LeftSerifL;
origin = (0,2);
scale = (-1,1);
type = Corner;
},
{
name = _segment.curve.capheight.outer;
origin = (0,2);
type = Segment;
},
{
name = _segment.curve.capheight.inner;
origin = (0,0);
type = Segment;
}
);
layerId = "60482765-79DE-4698-877F-42499D3FF6F2";
name = "17 Dec 22 at 21:17";
shapes = (
{
closed = 1;
nodes = (
(130,698,l),
(66,700,l),
(66,0,l),
(130,2,l)
);
},
{
closed = 1;
nodes = (
(141,698,o),
(135,698,o),
(119,698,c),
(119,663,l),
(128,663,l),
(128,684,o),
(133,683,o),
(140,683,cs),
(161,683,o),
(258,676,o),
(258,667,cs),
(258,654,o),
(252,616,o),
(252,595,cs),
(252,572,o),
(259,561,o),
(267,561,cs),
(273,561,o),
(276,566,o),
(276,574,cs),
(276,590,o),
(266,594,o),
(266,621,cs),
(266,654,o),
(277,687,o),
(277,706,cs),
(277,711,o),
(274,714,o),
(270,714,cs),
(266,714,o),
(263,711,o),
(263,706,cs),
(263,701,o),
(261,700,o),
(255,700,cs),
(251,700,o),
(219,698,o),
(148,698,cs)
);
},
{
closed = 1;
nodes = (
(135,2,o),
(141,2,o),
(148,2,cs),
(219,2,o),
(259,0,o),
(263,0,cs),
(269,0,o),
(271,-1,o),
(271,-6,cs),
(271,-11,o),
(274,-14,o),
(278,-14,cs),
(282,-14,o),
(285,-11,o),
(285,-6,cs),
(285,13,o),
(274,49,o),
(274,82,cs),
(274,109,o),
(285,117,o),
(285,133,cs),
(285,142,o),
(281,149,o),
(275,149,cs),
(265,149,o),
(260,138,o),
(260,115,cs),
(260,94,o),
(266,49,o),
(266,36,cs),
(266,27,o),
(161,17,o),
(145,17,cs),
(130,17,o),
(128,16,o),
(128,41,c),
(119,55,l),
(119,2,l)
);
},
{
closed = 1;
nodes = (
(126,338,l),
(126,358,o),
(131,357,o),
(161,357,cs),
(219,357,o),
(226,352,o),
(226,338,cs),
(226,299,o),
(223,290,o),
(223,275,cs),
(223,269,o),
(226,262,o),
(234,262,cs),
(240,262,o),
(244,265,o),
(244,275,cs),
(244,291,o),
(239,305,o),
(239,363,cs),
(239,439,o),
(244,438,o),
(244,454,cs),
(244,462,o),
(239,466,o),
(233,466,cs),
(225,466,o),
(223,458,o),
(223,452,cs),
(223,436,o),
(226,426,o),
(226,388,cs),
(226,377,o),
(219,373,o),
(161,373,cs),
(131,373,o),
(126,372,o),
(126,392,c),
(117,392,l),
(117,338,l)
);
}
);
width = 315;
},
{
associatedMasterId = m002;
background = {
shapes = (
{
ref = H;
}
);
};
hints = (
{
name = _corner.LeftSerifL;
options = 2;
origin = (0,1);
type = Corner;
},
{
name = _corner.LeftSerifL;
origin = (0,2);
scale = (-1,1);
type = Corner;
},
{
name = _segment.curve.capheight.outer;
origin = (0,2);
type = Segment;
},
{
name = _segment.curve.capheight.inner;
origin = (0,0);
type = Segment;
}
);
layerId = "5DA3C8CE-531F-44B0-A31F-C363E7EB1E93";
name = "17 Dec 22 at 21:34";
shapes = (
{
closed = 1;
nodes = (
(130,698,l),
(66,700,l),
(66,0,l),
(130,2,l)
);
},
{
closed = 1;
nodes = (
(141,698,o),
(135,698,o),
(119,698,c),
(119,663,l),
(128,663,l),
(128,684,o),
(133,683,o),
(140,683,cs),
(161,683,o),
(258,676,o),
(258,667,cs),
(258,654,o),
(252,616,o),
(252,595,cs),
(252,572,o),
(259,561,o),
(267,561,cs),
(273,561,o),
(276,566,o),
(276,574,cs),
(276,590,o),
(266,594,o),
(266,621,cs),
(266,654,o),
(277,687,o),
(277,706,cs),
(277,711,o),
(274,714,o),
(270,714,cs),
(266,714,o),
(263,711,o),
(263,706,cs),
(263,701,o),
(261,700,o),
(255,700,cs),
(251,700,o),
(219,698,o),
(148,698,cs)
);
},
{
closed = 1;
nodes = (
(135,2,o),
(141,2,o),
(148,2,cs),
(224,2,o),
(264,0,o),
(268,0,cs),
(274,0,o),
(276,-1,o),
(276,-6,cs),
(276,-11,o),
(279,-14,o),
(283,-14,cs),
(287,-14,o),
(291,-11,o),
(291,-4,cs),
(291,13,o),
(280,59,o),
(280,92,cs),
(280,119,o),
(290,127,o),
(290,143,cs),
(290,152,o),
(286,159,o),
(280,159,cs),
(270,159,o),
(265,148,o),
(265,125,cs),
(265,104,o),
(271,49,o),
(271,36,cs),
(271,27,o),
(161,17,o),
(145,17,cs),
(130,17,o),
(128,16,o),
(128,41,c),
(119,55,l),
(119,2,l)
);
},
{
closed = 1;
nodes = (
(126,338,l),
(126,358,o),
(131,357,o),
(153,357,cs),
(171,357,o),
(226,352,o),
(226,343,cs),
(226,307,o),
(222,282,o),
(222,273,cs),
(222,263,o),
(227,258,o),
(235,258,cs),
(241,258,o),
(246,263,o),
(246,273,cs),
(246,289,o),
(238,305,o),
(238,363,cs),
(238,429,o),
(248,436,o),
(248,452,cs),
(248,460,o),
(242,466,o),
(236,466,cs),
(228,466,o),
(224,460,o),
(224,452,cs),
(224,441,o),
(226,424,o),
(226,387,cs),
(226,378,o),
(171,373,o),
(153,373,cs),
(131,373,o),
(126,372,o),
(126,392,c),
(117,392,l),
(117,338,l)
);
}
);
width = 315;
},
{
associatedMasterId = m002;
background = {
shapes = (
{
ref = H;
}
);
};
hints = (
{
name = _corner.LeftSerifL;
options = 2;
origin = (0,1);
type = Corner;
},
{
name = _corner.LeftSerifL;
origin = (0,2);
scale = (-1,1);
type = Corner;
},
{
name = _segment.curve.capheight.outer;
origin = (0,2);
type = Segment;
},
{
name = _segment.curve.capheight.inner;
origin = (0,0);
type = Segment;
}
);
layerId = "57353F1B-20B3-4A94-827B-76C33D1EF15B";
name = "17 Dec 22 at 23:03";
shapes = (
{
closed = 1;
nodes = (
(130,698,l),
(66,700,l),
(66,0,l),
(130,2,l)
);
},
{
closed = 1;
nodes = (
(135,2,o),
(141,2,o),
(148,2,cs),
(224,2,o),
(264,0,o),
(268,0,cs),
(274,0,o),
(276,-1,o),
(276,-6,cs),
(276,-11,o),
(279,-14,o),
(283,-14,cs),
(287,-14,o),
(291,-11,o),
(291,-4,cs),
(291,13,o),
(280,59,o),
(280,92,cs),
(280,119,o),
(290,127,o),
(290,143,cs),
(290,152,o),
(286,159,o),
(280,159,cs),
(270,159,o),
(265,148,o),
(265,125,cs),
(265,104,o),
(271,49,o),
(271,46,cs),
(271,27,o),
(161,17,o),
(145,17,cs),
(130,17,o),
(128,16,o),
(128,41,c),
(119,55,l),
(119,2,l)
);
},
{
closed = 1;
nodes = (
(126,338,l),
(126,358,o),
(131,357,o),
(153,357,cs),
(171,357,o),
(226,352,o),
(226,343,cs),
(226,307,o),
(222,282,o),
(222,273,cs),
(222,263,o),
(227,258,o),
(235,258,cs),
(241,258,o),
(245,263,o),
(245,273,cs),
(245,289,o),
(237,285,o),
(237,363,cs),
(237,449,o),
(245,436,o),
(245,452,cs),
(245,460,o),
(240,466,o),
(234,466,cs),
(226,466,o),
(222,460,o),
(222,452,cs),
(222,441,o),
(226,424,o),
(226,387,cs),
(226,378,o),
(171,373,o),
(153,373,cs),
(131,373,o),
(126,372,o),
(126,392,c),
(117,392,l),
(117,338,l)
);
},
{
ref = _Etop;
}
);
width = 311;
},
{
associatedMasterId = m002;
background = {
shapes = (
{
ref = H;
}
);
};
hints = (
{
name = _corner.LeftSerifL;
options = 2;
origin = (0,1);
type = Corner;
},
{
name = _corner.LeftSerifL;
origin = (0,2);
scale = (-1,1);
type = Corner;
},
{
name = _segment.curve.capheight.outer;
origin = (0,2);
type = Segment;
},
{
name = _segment.curve.capheight.inner;
origin = (0,0);
type = Segment;
}
);
layerId = "F1782375-AE4A-400C-BCAF-8E434DF5233E";
name = "17 Dec 22 at 23:52";
shapes = (
{
closed = 1;
nodes = (
(130,698,l),
(66,700,l),
(66,0,l),
(130,2,l)
);
},
{
closed = 1;
nodes = (
(135,2,o),
(141,2,o),
(148,2,cs),
(224,2,o),
(264,0,o),
(268,0,cs),
(274,0,o),
(276,-1,o),
(276,-6,cs),
(276,-11,o),
(279,-14,o),
(283,-14,cs),
(287,-14,o),
(291,-11,o),
(291,-4,cs),
(291,13,o),
(280,59,o),
(280,92,cs),
(280,119,o),
(290,127,o),
(290,143,cs),
(290,152,o),
(286,159,o),
(280,159,cs),
(270,159,o),
(265,148,o),
(265,125,cs),
(265,104,o),
(271,49,o),
(271,46,cs),
(271,27,o),
(161,17,o),
(145,17,cs),
(130,17,o),
(128,16,o),
(128,41,c),
(119,55,l),
(119,2,l)
);
},
{
closed = 1;
nodes = (
(126,338,l),
(126,358,o),
(131,357,o),
(153,357,cs),
(171,357,o),
(201,341,o),
(205,333,cs),
(225,297,o),
(217,282,o),
(217,273,cs),
(217,263,o),
(222,258,o),
(230,258,cs),
(236,258,o),
(240,263,o),
(240,273,cs),
(240,309,o),
(212,334,o),
(212,363,cs),
(212,391,o),
(240,416,o),
(240,452,cs),
(240,460,o),
(235,466,o),
(229,466,cs),
(221,466,o),
(217,460,o),
(217,452,cs),
(217,441,o),
(225,434,o),
(205,397,cs),
(201,389,o),
(171,373,o),
(153,373,cs),
(131,373,o),
(126,372,o),
(126,392,c),
(117,392,l),
(117,338,l)
);
},
{
ref = _Etop;
}
);
width = 311;
},
{
associatedMasterId = m002;
background = {
shapes = (
{
ref = H;
}
);
};
hints = (
{
name = _corner.LeftSerifL;
options = 2;
origin = (0,1);
type = Corner;
},
{
name = _corner.LeftSerifL;
origin = (0,2);
scale = (-1,1);
type = Corner;
},
{
name = _segment.curve.capheight.outer;
origin = (0,2);
type = Segment;
},
{
name = _segment.curve.capheight.inner;
origin = (0,0);
type = Segment;
}
);
layerId = "3484A80B-D982-4109-A40F-37FE90A26512";
name = "19 Dec 22 at 16:34";
shapes = (
{
closed = 1;
nodes = (
(130,698,l),
(66,700,l),
(67,0,l),
(131,2,l)
);
},
{
closed = 1;
nodes = (
(136,2,o),
(142,2,o),
(149,2,cs),
(221,2,o),
(261,0,o),
(265,0,cs),
(271,0,o),
(273,-1,o),
(273,-6,cs),
(273,-11,o),
(276,-14,o),
(280,-14,cs),
(284,-14,o),
(288,-11,o),
(288,-4,cs),
(288,13,o),
(277,59,o),
(277,92,cs),
(277,119,o),
(287,127,o),
(287,143,cs),
(287,152,o),
(283,159,o),
(277,159,cs),
(267,159,o),
(262,148,o),
(262,125,cs),
(262,104,o),
(268,49,o),
(268,46,cs),
(268,27,o),
(162,17,o),
(146,17,cs),
(131,17,o),
(129,16,o),
(129,41,c),
(120,55,l),
(120,2,l)
);
},
{
closed = 1;
nodes = (
(126,338,l),
(126,358,o),
(132,357,o),
(154,357,cs),
(199,357,o),
(227,356,o),
(227,268,cs),
(227,261,o),
(230,256,o),
(235,256,cs),
(239,256,o),
(243,259,o),
(243,267,cs),
(243,290,o),
(233,306,o),
(233,365,cs),
(233,428,o),
(243,438,o),
(243,459,cs),
(243,467,o),
(239,470,o),
(235,470,cs),
(230,470,o),
(227,465,o),
(227,458,cs),
(227,367,o),
(197,373,o),
(154,373,cs),
(132,373,o),
(126,372,o),
(126,396,c),
(117,396,l),
(117,338,l)
);
},
{
ref = _Etop;
}
);
width = 308;
},
{
associatedMasterId = m003;
layerId = "B2DA110A-38A4-419B-853E-D7226147048C";
width = 600;
}
);
metricLeft = H;
metricRight = "=H-5";
unicode = 69;
},
{
glyphname = Eogonek;
lastChange = "2024-08-21 14:51:25 +0000";
layers = (
{
layerId = m003;
shapes = (
{
ref = E;
},
{
closed = 1;
nodes = (
(271,-116,o),
(267,-125,o),
(245,-125,cs),
(224,-125,o),
(213,-115,o),
(213,-94,cs),
(213,-62,o),
(241,-26,o),
(284,-5,c),
(264,8,l),
(238,-2,l),
(263,-4,o),
(257,-7,o),
(254,-9,cs),
(251,-11,o),
(239,-18,o),
(232,-23,cs),
(190,-52,o),
(167,-83,o),
(167,-116,cs),
(167,-141,o),
(185,-162,o),
(214,-162,cs),
(235,-162,o),
(251,-152,o),
(265,-138,cs),
(274,-129,o),
(277,-123,o),
(275,-120,cs)
);
}
);
width = 303;
},
{
layerId = m002;
shapes = (
{
ref = E;
},
{
closed = 1;
nodes = (
(650,-116,o),
(646,-125,o),
(624,-125,cs),
(603,-125,o),
(592,-113,o),
(592,-92,cs),
(592,-60,o),
(620,-27,o),
(666,-5,c),
(643,8,l),
(622,-4,l),
(632,-4,o),
(634,-8,o),
(632,-10,cs),
(630,-13,o),
(618,-21,o),
(611,-26,cs),
(569,-55,o),
(546,-83,o),
(546,-116,cs),
(546,-141,o),
(564,-162,o),
(593,-162,cs),
(614,-162,o),
(630,-152,o),
(644,-138,cs),
(653,-129,o),
(656,-123,o),
(654,-120,cs)
);
}
);
width = 706;
}
);
unicode = 280;
},
{
glyphname = Schwa;
lastChange = "2023-10-03 16:45:15 +0000";
layers = (
{
anchors = (
{
name = bottom;
pos = (168,200);
},
{
name = ogonek;
pos = (69,690);
},
{
name = top;
pos = (168,700);
}
);
layerId = m003;
shapes = (
{
closed = 1;
nodes = (
(56,333,ls),
(25,333,o),
(19,329,o),
(24,291,cs),
(47,90,o),
(92,-10,o),
(160,-10,cs),
(244,-10,o),
(305,162,o),
(299,380,cs),
(294,592,o),
(243,710,o),
(152,710,cs),
(92,710,o),
(49,659,o),
(33,569,cs),
(31,558,o),
(28,544,o),
(37,544,cs),
(43,544,o),
(45,549,o),
(47,566,cs),
(55,625,o),
(86,662,o),
(128,662,cs),
(196,662,o),
(234,554,o),
(241,361,cs),
(242,336,o),
(241,331,o),
(211,331,cs)
);
},
{
closed = 1;
nodes = (
(227,88,o),
(203,2,o),
(166,2,cs),
(123,2,o),
(103,70,o),
(88,275,cs),
(85,308,o),
(89,310,o),
(108,311,cs),
(211,315,ls),
(237,316,o),
(240,301,o),
(238,262,cs)
);
}
);
width = 337;
},
{
anchors = (
{
name = bottom;
pos = (318,200);
},
{
name = ogonek;
pos = (174,690);
},
{
name = top;
pos = (318,700);
}
);
layerId = m002;
shapes = (
{
closed = 1;
nodes = (
(-26,313,ls),
(-59,313,o),
(-66,309,o),
(-61,271,cs),
(-44,107,o),
(108,-10,o),
(308,-10,cs),
(544,-10,o),
(705,144,o),
(700,360,cs),
(694,565,o),
(532,710,o),
(307,710,cs),
(116,710,o),
(-23,625,o),
(-56,449,cs),
(-58,437,o),
(-61,424,o),
(-48,424,cs),
(-39,424,o),
(-39,427,o),
(-36,446,cs),
(-10,576,o),
(101,665,o),
(283,665,cs),
(486,665,o),
(621,545,o),
(633,351,cs),
(635,316,o),
(637,311,o),
(579,311,cs)
);
},
{
closed = 1;
nodes = (
(599,104,o),
(470,2,o),
(314,2,cs),
(138,2,o),
(21,99,o),
(9,255,cs),
(6,289,o),
(9,292,o),
(76,292,cs),
(579,295,ls),
(632,295,o),
(631,280,o),
(626,252,cs)
);
}
);
width = 637;
}
);
unicode = 399;
},
{
glyphname = F;
kernLeft = H;
kernRight = F;
lastChange = "2024-06-17 18:10:23 +0000";
layers = (
{
anchors = (
{
name = bottom;
pos = (149,0);
},
{
name = top;
pos = (149,700);
}
);
background = {
shapes = (
{
pos = (5,0);
ref = E;
}
);
};
hints = (
{
name = _segment.curve.capheight.inner;
origin = (0,0);
type = Segment;
},
{
name = _corner.LeftSerifL;
options = 2;
origin = (0,1);
type = Corner;
},
{
name = _corner.LeftSerifL;
origin = (0,2);
scale = (-1,1);
type = Corner;
},
{
name = _corner.LeftSerifL;
options = 1;
origin = (0,3);
scale = (1.3,1);
type = Corner;
},
{
name = _segment.curve.capheight.outer;
origin = (0,2);
type = Segment;
}
);
layerId = m003;
shapes = (
{
closed = 1;
nodes = (
(135,700,l,{
GSSegment = {
name = _segment.curve.capheight.inner;
};
}),
(71,700,l),
(71,0,l,{
GSSegment = {
name = _segment.curve.capheight.outer;
};
}),
(135,0,l)
);
},
{
pos = (5,0);
ref = _Etop;
},
{
closed = 1;
nodes = (
(131,325,l),
(131,345,o),
(137,345,o),
(153,344,cs),
(209,340,o),
(228,324,o),
(228,245,cs),
(228,238,o),
(231,233,o),
(236,233,cs),
(240,233,o),
(244,236,o),
(244,244,cs),
(244,267,o),
(233,293,o),
(233,352,cs),
(233,415,o),
(244,435,o),
(244,456,cs),
(244,464,o),
(240,467,o),
(236,467,cs),
(231,467,o),
(228,462,o),
(228,455,cs),
(228,373,o),
(209,364,o),
(153,360,cs),
(137,359,o),
(131,359,o),
(131,383,c),
(122,383,l),
(122,325,l)
);
}
);
width = 293;
},
{
associatedMasterId = m003;
hints = (
{
name = _segment.curve.capheight.inner;
origin = (0,0);
type = Segment;
},
{
name = _corner.LeftSerifL;
options = 2;
origin = (0,1);
type = Corner;
},
{
name = _corner.LeftSerifL;
origin = (0,2);
scale = (-1,1);
type = Corner;
},
{
name = _corner.LeftSerifL;
origin = (0,3);
type = Corner;
},
{
name = _segment.curve.capheight.outer;
origin = (0,2);
type = Segment;
}
);
layerId = "AD93797D-FFC9-4AEE-9A63-4CA8D0069A7A";
name = "17 Dec 22 at 23:57";
shapes = (
{
closed = 1;
nodes = (
(130,698,l,{
GSSegment = {
name = _segment.curve.capheight.inner;
};
}),
(66,700,l),
(66,0,l,{
GSSegment = {
name = _segment.curve.capheight.outer;
};
}),
(130,0,l)
);
},
{
closed = 1;
nodes = (
(126,324,l),
(126,344,o),
(131,343,o),
(153,343,cs),
(171,343,o),
(226,338,o),
(226,329,cs),
(226,293,o),
(222,270,o),
(222,259,cs),
(222,249,o),
(227,244,o),
(235,244,cs),
(241,244,o),
(246,249,o),
(246,259,cs),
(246,275,o),
(237,273,o),
(237,349,cs),
(237,433,o),
(246,422,o),
(246,438,cs),
(246,446,o),
(240,452,o),
(234,452,cs),
(226,452,o),
(222,446,o),
(222,438,cs),
(222,425,o),
(226,410,o),
(226,373,cs),
(226,364,o),
(171,359,o),
(153,359,cs),
(131,359,o),
(126,358,o),
(126,378,c),
(117,378,l),
(117,324,l)
);
},
{
ref = _Etop;
}
);
width = 297;
},
{
anchors = (
{
name = bottom;
pos = (319,0);
},
{
name = top;
pos = (319,700);
}
);
background = {
shapes = (
{
pos = (29,0);
ref = E;
}
);
};
hints = (
{
name = _segment.curve.capheight.inner;
origin = (0,0);
type = Segment;
},
{
name = _corner.LeftSerifL;
options = 2;
origin = (0,1);
type = Corner;
},
{
name = _corner.LeftSerifL;
origin = (0,2);
scale = (-1,1);
type = Corner;
},
{
name = _corner.LeftSerifL;
options = 1;
origin = (0,3);
scale = (1.5,1);
type = Corner;
},
{
name = _segment.curve.capheight.outer;
origin = (0,2);
type = Segment;
}
);
layerId = m002;
shapes = (
{
closed = 1;
nodes = (
(208,700,l),
(138,700,l),
(138,0,l),
(208,0,l)
);
},
{
pos = (74,0);
ref = _Etop;
},
{
closed = 1;
nodes = (
(203,295,l),
(203,345,o),
(207,344,o),
(271,343,cs),
(427,340,o),
(445,325,o),
(445,245,cs),
(445,237,o),
(449,233,o),
(456,233,cs),
(462,233,o),
(467,235,o),
(467,244,cs),
(467,266,o),
(456,292,o),
(456,352,cs),
(456,416,o),
(467,436,o),
(467,462,cs),
(467,471,o),
(462,473,o),
(456,473,cs),
(449,473,o),
(445,469,o),
(445,461,cs),
(445,372,o),
(427,364,o),
(271,361,cs),
(207,360,o),
(203,359,o),
(203,413,c),
(188,413,l),
(188,295,l)
);
}
);
width = 675;
},
{
associatedMasterId = m002;
hints = (
{
name = _segment.curve.capheight.inner;
origin = (0,0);
type = Segment;
},
{
name = _corner.LeftSerifL;
options = 2;
origin = (0,1);
type = Corner;
},
{
name = _corner.LeftSerifL;
origin = (0,2);
scale = (-1,1);
type = Corner;
},
{
name = _corner.LeftSerifL;
origin = (0,3);
type = Corner;
},
{
name = _segment.curve.capheight.outer;
origin = (0,2);
type = Segment;
}
);
layerId = "3C93E5B6-2D1D-4C2E-975D-A30F1D89086F";
name = "17 Dec 22 at 23:57";
shapes = (
{
closed = 1;
nodes = (
(130,698,l,{
GSSegment = {
name = _segment.curve.capheight.inner;
};
}),
(66,700,l),
(66,0,l,{
GSSegment = {
name = _segment.curve.capheight.outer;
};
}),
(130,0,l)
);
},
{
closed = 1;
nodes = (
(126,324,l),
(126,344,o),
(131,343,o),
(153,343,cs),
(171,343,o),
(226,338,o),
(226,329,cs),
(226,293,o),
(222,270,o),
(222,259,cs),
(222,249,o),
(227,244,o),
(235,244,cs),
(241,244,o),
(246,249,o),
(246,259,cs),
(246,275,o),
(237,273,o),
(237,349,cs),
(237,433,o),
(246,422,o),
(246,438,cs),
(246,446,o),
(240,452,o),
(234,452,cs),
(226,452,o),
(222,446,o),
(222,438,cs),
(222,425,o),
(226,410,o),
(226,373,cs),
(226,364,o),
(171,359,o),
(153,359,cs),
(131,359,o),
(126,358,o),
(126,378,c),
(117,378,l),
(117,324,l)
);
},
{
ref = _Etop;
}
);
width = 297;
},
{
associatedMasterId = m003;
layerId = "B2DA110A-38A4-419B-853E-D7226147048C";
width = 600;
}
);
metricLeft = H;
metricRight = "=E-5";
unicode = 70;
},
{
glyphname = G;
kernLeft = O;
kernRight = C;
lastChange = "2024-06-05 13:10:09 +0000";
layers = (
{
associatedMasterId = m003;
layerId = "B826CCEB-93D1-4672-AA88-F03DC20D1A32";
width = 600;
},
{
associatedMasterId = m003;
layerId = "E785B07C-7638-40DD-A08B-5080B4C14061";
width = 600;
},
{
associatedMasterId = m003;
background = {
shapes = (
{
closed = 1;
nodes = (
(14,141,o),
(80,-9,o),
(163,-9,cs),
(176,-9,o),
(191,-3,o),
(201,4,cs),
(210,10,o),
(219,12,o),
(230,12,cs),
(237,12,o),
(245,9,o),
(251,4,cs),
(261,-4,o),
(260,-9,o),
(267,-9,cs),
(271,-9,o),
(274,-6,o),
(273,1,cs),
(271,14,o),
(266,30,o),
(264,86,cs),
(263,117,o),
(263,240,o),
(266,324,cs),
(269,366,o),
(274,357,o),
(289,356,cs),
(297,355,o),
(302,359,o),
(302,364,cs),
(302,368,o),
(298,371,o),
(292,372,c),
(282,372,o),
(269,369,o),
(249,368,cs),
(246,368,o),
(243,368,o),
(239,368,cs),
(228,368,ls),
(194,369,o),
(190,372,o),
(180,372,cs),
(175,372,o),
(171,369,o),
(171,364,cs),
(171,358,o),
(176,355,o),
(185,355,cs),
(202,356,o),
(208,370,o),
(210,314,cs),
(213,235,o),
(215,145,o),
(212,81,cs),
(210,30,o),
(194,4,o),
(165,4,cs),
(117,4,o),
(76,153,o),
(71,343,cs),
(66,570,o),
(100,697,o),
(166,697,cs),
(195,697,o),
(213,672,o),
(228,607,cs),
(235,576,o),
(241,539,o),
(241,511,cs),
(241,505,o),
(244,500,o),
(249,500,cs),
(254,500,o),
(256,504,o),
(256,510,cs),
(256,516,o),
(254,521,o),
(253,528,cs),
(250,546,o),
(248,575,o),
(248,620,cs),
(248,661,o),
(253,685,o),
(255,700,cs),
(256,709,o),
(250,711,o),
(248,711,cs),
(240,711,o),
(240,703,o),
(240,700,cs),
(241,687,o),
(238,680,o),
(231,680,cs),
(223,680,o),
(216,687,o),
(211,691,cs),
(197,703,o),
(182,709,o),
(166,709,cs),
(75,709,o),
(7,547,o),
(10,340,cs)
);
}
);
};
layerId = "E7B2336D-9D65-45CD-A13A-2C956E8F595F";
name = "18 Dec 22 at 12:09";
shapes = (
{
closed = 1;
nodes = (
(14,141,o),
(80,-9,o),
(163,-9,cs),
(176,-9,o),
(191,-3,o),
(201,4,cs),
(210,10,o),
(219,12,o),
(230,12,cs),
(237,12,o),
(245,9,o),
(251,4,cs),
(261,-4,o),
(260,-9,o),
(267,-9,cs),
(271,-9,o),
(274,-6,o),
(273,1,cs),
(271,14,o),
(266,30,o),
(264,86,cs),
(263,117,o),
(263,240,o),
(266,324,cs),
(269,366,o),
(274,357,o),
(289,356,cs),
(297,355,o),
(302,359,o),
(302,364,cs),
(302,368,o),
(298,371,o),
(292,372,c),
(282,372,o),
(269,369,o),
(249,368,cs),
(246,368,o),
(243,368,o),
(239,368,cs),
(228,368,ls),
(194,369,o),
(190,372,o),
(180,372,cs),
(175,372,o),
(171,369,o),
(171,364,cs),
(171,358,o),
(176,355,o),
(185,355,cs),
(202,356,o),
(208,370,o),
(210,314,cs),
(213,235,o),
(215,145,o),
(212,81,cs),
(210,30,o),
(194,4,o),
(165,4,cs),
(117,4,o),
(76,153,o),
(71,343,cs),
(66,570,o),
(100,697,o),
(166,697,cs),
(195,697,o),
(213,672,o),
(228,607,cs),
(235,576,o),
(241,539,o),
(241,511,cs),
(241,505,o),
(244,500,o),
(249,500,cs),
(254,500,o),
(256,504,o),
(256,510,cs),
(256,516,o),
(254,521,o),
(253,528,cs),
(250,546,o),
(248,575,o),
(248,620,cs),
(248,661,o),
(253,685,o),
(255,700,cs),
(256,709,o),
(250,711,o),
(248,711,cs),
(240,711,o),
(240,703,o),
(240,700,cs),
(241,687,o),
(238,680,o),
(231,680,cs),
(223,680,o),
(216,687,o),
(211,691,cs),
(197,703,o),
(182,709,o),
(166,709,cs),
(75,709,o),
(7,547,o),
(10,340,cs)
);
}
);
width = 600;
},
{
associatedMasterId = m003;
background = {
shapes = (
{
pos = (-20,0);
ref = C;
}
);
};
layerId = "B65F55DF-C201-487E-9604-FB6DF6F27D31";
name = "18 Dec 22 at 12:10";
shapes = (
{
closed = 1;
nodes = (
(14,141,o),
(80,-9,o),
(163,-9,cs),
(176,-9,o),
(191,-3,o),
(201,4,cs),
(210,10,o),
(219,12,o),
(230,12,cs),
(237,12,o),
(245,9,o),
(251,4,cs),
(261,-4,o),
(260,-9,o),
(267,-9,cs),
(271,-9,o),
(274,-6,o),
(273,1,cs),
(271,14,o),
(266,30,o),
(264,86,cs),
(263,117,o),
(263,240,o),
(266,324,cs),
(269,366,o),
(274,357,o),
(289,356,cs),
(297,355,o),
(302,359,o),
(302,364,cs),
(302,368,o),
(298,371,o),
(292,372,c),
(282,372,o),
(269,369,o),
(249,368,cs),
(246,368,o),
(243,368,o),
(239,368,cs),
(228,368,ls),
(194,369,o),
(190,372,o),
(180,372,cs),
(175,372,o),
(171,369,o),
(171,364,cs),
(171,358,o),
(176,355,o),
(185,355,cs),
(202,356,o),
(208,370,o),
(210,314,cs),
(213,235,o),
(215,145,o),
(212,81,cs),
(210,30,o),
(194,4,o),
(165,4,cs),
(117,4,o),
(76,153,o),
(71,343,cs),
(66,570,o),
(100,697,o),
(166,697,cs),
(195,697,o),
(213,672,o),
(228,607,cs),
(235,576,o),
(241,539,o),
(241,511,cs),
(241,505,o),
(244,500,o),
(249,500,cs),
(254,500,o),
(256,504,o),
(256,510,cs),
(256,516,o),
(254,521,o),
(253,528,cs),
(250,546,o),
(248,575,o),
(248,620,cs),
(248,661,o),
(253,685,o),
(255,700,cs),
(256,709,o),
(250,711,o),
(248,711,cs),
(240,711,o),
(240,703,o),
(240,700,cs),
(241,687,o),
(238,680,o),
(231,680,cs),
(223,680,o),
(216,687,o),
(211,691,cs),
(197,703,o),
(182,709,o),
(166,709,cs),
(75,709,o),
(7,547,o),
(10,340,cs)
);
}
);
width = 600;
},
{
associatedMasterId = m003;
background = {
shapes = (
{
pos = (25,0);
ref = C;
}
);
};
hints = (
{
name = _corner.LeftSerifS;
origin = (0,20);
scale = (-1,1);
type = Corner;
},
{
name = _corner.LeftSerifL;
origin = (0,21);
type = Corner;
}
);
layerId = "B636E3B0-A3AF-4077-B680-73464DA9397B";
name = "18 Dec 22 at 12:21";
shapes = (
{
closed = 1;
nodes = (
(33,134,o),
(94,-9,o),
(170,-9,cs),
(216,-9,o),
(227,28,o),
(255,28,cs),
(268,28,o),
(276,22,o),
(276,10,cs),
(276,-3,o),
(279,-9,o),
(285,-9,cs),
(291,-9,o),
(294,-5,o),
(294,4,cs),
(294,14,o),
(286,30,o),
(284,86,cs),
(282,138,o),
(284,247,o),
(289,369,c),
(229,369,l),
(234,235,o),
(237,185,o),
(234,111,cs),
(231,44,o),
(215,11,o),
(185,11,cs),
(135,11,o),
(96,148,o),
(91,343,cs),
(86,570,o),
(120,697,o),
(186,697,cs),
(234,697,o),
(261,630,o),
(261,511,cs),
(261,505,o),
(264,500,o),
(269,500,cs),
(274,500,o),
(277,504,o),
(277,510,cs),
(277,521,o),
(268,550,o),
(268,620,cs),
(268,661,o),
(273,685,o),
(275,700,cs),
(276,709,o),
(270,711,o),
(268,711,cs),
(260,711,o),
(260,703,o),
(260,700,cs),
(260,689,o),
(261,680,o),
(254,680,cs),
(246,680,o),
(236,687,o),
(231,691,cs),
(217,703,o),
(202,709,o),
(186,709,cs),
(95,709,o),
(26,547,o),
(30,316,cs)
);
}
);
width = 361;
},
{
associatedMasterId = m003;
background = {
shapes = (
{
pos = (1,0);
ref = C;
}
);
};
hints = (
{
name = _corner.LeftSerifS;
origin = (0,20);
scale = (-1,1);
type = Corner;
},
{
name = _corner.LeftSerifL;
origin = (0,21);
type = Corner;
}
);
layerId = "CA2A9A7D-AC55-492A-9DD6-7081DDCD2C4B";
name = "18 Dec 22 at 12:26";
shapes = (
{
closed = 1;
nodes = (
(33,134,o),
(94,-9,o),
(170,-9,cs),
(221,-9,o),
(229,28,o),
(255,28,cs),
(269,28,o),
(275,19,o),
(275,3,cs),
(275,-6,o),
(279,-9,o),
(285,-9,cs),
(290,-9,o),
(292,-5,o),
(292,3,cs),
(292,16,o),
(284,30,o),
(283,126,cs),
(282,188,o),
(284,247,o),
(289,369,c),
(229,369,l),
(234,235,o),
(237,185,o),
(234,111,cs),
(231,41,o),
(216,11,o),
(185,11,cs),
(135,11,o),
(96,148,o),
(91,343,cs),
(86,570,o),
(120,697,o),
(186,697,cs),
(234,697,o),
(261,630,o),
(261,511,cs),
(261,505,o),
(264,500,o),
(269,500,cs),
(274,500,o),
(277,504,o),
(277,510,cs),
(277,521,o),
(268,550,o),
(268,620,cs),
(268,661,o),
(273,685,o),
(275,700,cs),
(276,709,o),
(270,711,o),
(268,711,cs),
(260,711,o),
(260,703,o),
(260,700,cs),
(260,689,o),
(261,680,o),
(254,680,cs),
(246,680,o),
(236,687,o),
(231,691,cs),
(217,703,o),
(202,709,o),
(186,709,cs),
(95,709,o),
(26,547,o),
(30,316,cs)
);
}
);
width = 361;
},
{
associatedMasterId = m003;
background = {
shapes = (
{
pos = (12,0);
ref = C;
}
);
};
hints = (
{
name = _corner.LeftSerifS;
origin = (0,20);
scale = (-1,1);
type = Corner;
},
{
name = _corner.LeftSerifL;
origin = (0,21);
type = Corner;
}
);
layerId = "951B4681-5366-40D6-8842-5B0A1874C27E";
name = "18 Dec 22 at 12:34";
shapes = (
{
closed = 1;
nodes = (
(34,134,o),
(94,-9,o),
(170,-9,cs),
(221,-9,o),
(229,28,o),
(255,28,cs),
(269,28,o),
(275,19,o),
(275,3,cs),
(275,-6,o),
(279,-9,o),
(285,-9,cs),
(290,-9,o),
(292,-5,o),
(292,3,cs),
(292,16,o),
(284,30,o),
(283,126,cs),
(282,188,o),
(284,107,o),
(289,229,c),
(229,229,l),
(234,95,o),
(237,185,o),
(234,111,cs),
(231,41,o),
(216,11,o),
(185,11,cs),
(135,11,o),
(97,148,o),
(92,343,cs),
(87,569,o),
(116,696,o),
(176,696,cs),
(222,696,o),
(248,630,o),
(248,511,cs),
(248,505,o),
(251,500,o),
(256,500,cs),
(261,500,o),
(264,504,o),
(264,510,cs),
(264,521,o),
(255,550,o),
(255,620,cs),
(255,661,o),
(260,685,o),
(262,700,cs),
(263,709,o),
(257,711,o),
(255,711,cs),
(247,711,o),
(247,703,o),
(247,700,cs),
(247,689,o),
(249,680,o),
(242,680,cs),
(234,680,o),
(216,709,o),
(176,709,cs),
(90,709,o),
(27,536,o),
(31,316,cs)
);
}
);
width = 361;
},
{
anchors = (
{
name = bottom;
pos = (188,-20);
},
{
name = top;
pos = (167,700);
}
);
background = {
shapes = (
{
pos = (351,0);
ref = b;
scale = (-1,1);
}
);
};
hints = (
{
name = _corner.LeftSerifS;
origin = (0,20);
scale = (-0.6,1);
type = Corner;
},
{
name = _corner.LeftSerifS;
origin = (0,21);
type = Corner;
}
);
layerId = m003;
name = Regular;
shapes = (
{
closed = 1;
nodes = (
(30,134,o),
(93,-10,o),
(179,-10,cs),
(227,-10,o),
(234,27,o),
(261,27,cs),
(274,27,o),
(278,19,o),
(283,4,cs),
(287,-6,o),
(290,-10,o),
(295,-10,cs),
(300,-10,o),
(304,-5,o),
(301,4,cs),
(289,39,o),
(290,94,o),
(290,144,cs),
(290,188,o),
(291,247,o),
(293,369,c),
(239,369,l),
(241,235,o),
(240,156,o),
(240,132,cs),
(240,31,o),
(215,10,o),
(187,10,cs),
(128,10,o),
(91,154,o),
(91,383,cs),
(91,564,o),
(115,697,o),
(181,697,cs),
(229,697,o),
(259,633,o),
(259,533,cs),
(259,511,o),
(258,500,o),
(267,500,cs),
(272,500,o),
(275,504,o),
(275,511,cs),
(275,521,o),
(268,550,o),
(268,610,cs),
(268,661,o),
(273,685,o),
(274,693,cs),
(276,708,o),
(271,710,o),
(267,710,cs),
(257,710,o),
(257,693,o),
(242,693,cs),
(228,693,o),
(212,710,o),
(183,710,cs),
(89,710,o),
(30,536,o),
(30,328,cs)
);
}
);
width = 339;
},
{
associatedMasterId = m002;
layerId = "0211D81E-192F-4A52-91BB-E90552D8B505";
width = 600;
},
{
associatedMasterId = m002;
layerId = "853DFADF-5700-491D-AEEA-DF43ADEA340D";
width = 600;
},
{
associatedMasterId = m002;
background = {
shapes = (
{
closed = 1;
nodes = (
(14,141,o),
(80,-9,o),
(163,-9,cs),
(176,-9,o),
(191,-3,o),
(201,4,cs),
(210,10,o),
(219,12,o),
(230,12,cs),
(237,12,o),
(245,9,o),
(251,4,cs),
(261,-4,o),
(260,-9,o),
(267,-9,cs),
(271,-9,o),
(274,-6,o),
(273,1,cs),
(271,14,o),
(266,30,o),
(264,86,cs),
(263,117,o),
(263,240,o),
(266,324,cs),
(269,366,o),
(274,357,o),
(289,356,cs),
(297,355,o),
(302,359,o),
(302,364,cs),
(302,368,o),
(298,371,o),
(292,372,c),
(282,372,o),
(269,369,o),
(249,368,cs),
(246,368,o),
(243,368,o),
(239,368,cs),
(228,368,ls),
(194,369,o),
(190,372,o),
(180,372,cs),
(175,372,o),
(171,369,o),
(171,364,cs),
(171,358,o),
(176,355,o),
(185,355,cs),
(202,356,o),
(208,370,o),
(210,314,cs),
(213,235,o),
(215,145,o),
(212,81,cs),
(210,30,o),
(194,4,o),
(165,4,cs),
(117,4,o),
(76,153,o),
(71,343,cs),
(66,570,o),
(100,697,o),
(166,697,cs),
(195,697,o),
(213,672,o),
(228,607,cs),
(235,576,o),
(241,539,o),
(241,511,cs),
(241,505,o),
(244,500,o),
(249,500,cs),
(254,500,o),
(256,504,o),
(256,510,cs),
(256,516,o),
(254,521,o),
(253,528,cs),
(250,546,o),
(248,575,o),
(248,620,cs),
(248,661,o),
(253,685,o),
(255,700,cs),
(256,709,o),
(250,711,o),
(248,711,cs),
(240,711,o),
(240,703,o),
(240,700,cs),
(241,687,o),
(238,680,o),
(231,680,cs),
(223,680,o),
(216,687,o),
(211,691,cs),
(197,703,o),
(182,709,o),
(166,709,cs),
(75,709,o),
(7,547,o),
(10,340,cs)
);
}
);
};
layerId = "E34D2C97-8542-423E-9292-6356D4B18EF3";
name = "18 Dec 22 at 12:09";
shapes = (
{
closed = 1;
nodes = (
(14,141,o),
(80,-9,o),
(163,-9,cs),
(176,-9,o),
(191,-3,o),
(201,4,cs),
(210,10,o),
(219,12,o),
(230,12,cs),
(237,12,o),
(245,9,o),
(251,4,cs),
(261,-4,o),
(260,-9,o),
(267,-9,cs),
(271,-9,o),
(274,-6,o),
(273,1,cs),
(271,14,o),
(266,30,o),
(264,86,cs),
(263,117,o),
(263,240,o),
(266,324,cs),
(269,366,o),
(274,357,o),
(289,356,cs),
(297,355,o),
(302,359,o),
(302,364,cs),
(302,368,o),
(298,371,o),
(292,372,c),
(282,372,o),
(269,369,o),
(249,368,cs),
(246,368,o),
(243,368,o),
(239,368,cs),
(228,368,ls),
(194,369,o),
(190,372,o),
(180,372,cs),
(175,372,o),
(171,369,o),
(171,364,cs),
(171,358,o),
(176,355,o),
(185,355,cs),
(202,356,o),
(208,370,o),
(210,314,cs),
(213,235,o),
(215,145,o),
(212,81,cs),
(210,30,o),
(194,4,o),
(165,4,cs),
(117,4,o),
(76,153,o),
(71,343,cs),
(66,570,o),
(100,697,o),
(166,697,cs),
(195,697,o),
(213,672,o),
(228,607,cs),
(235,576,o),
(241,539,o),
(241,511,cs),
(241,505,o),
(244,500,o),
(249,500,cs),
(254,500,o),
(256,504,o),
(256,510,cs),
(256,516,o),
(254,521,o),
(253,528,cs),
(250,546,o),
(248,575,o),
(248,620,cs),
(248,661,o),
(253,685,o),
(255,700,cs),
(256,709,o),
(250,711,o),
(248,711,cs),
(240,711,o),
(240,703,o),
(240,700,cs),
(241,687,o),
(238,680,o),
(231,680,cs),
(223,680,o),
(216,687,o),
(211,691,cs),
(197,703,o),
(182,709,o),
(166,709,cs),
(75,709,o),
(7,547,o),
(10,340,cs)
);
}
);
width = 600;
},
{
associatedMasterId = m002;
background = {
shapes = (
{
pos = (-20,0);
ref = C;
}
);
};
layerId = "995EF8EF-E4AE-4A41-AAB5-7C506F7DD230";
name = "18 Dec 22 at 12:10";
shapes = (
{
closed = 1;
nodes = (
(14,141,o),
(80,-9,o),
(163,-9,cs),
(176,-9,o),
(191,-3,o),
(201,4,cs),
(210,10,o),
(219,12,o),
(230,12,cs),
(237,12,o),
(245,9,o),
(251,4,cs),
(261,-4,o),
(260,-9,o),
(267,-9,cs),
(271,-9,o),
(274,-6,o),
(273,1,cs),
(271,14,o),
(266,30,o),
(264,86,cs),
(263,117,o),
(263,240,o),
(266,324,cs),
(269,366,o),
(274,357,o),
(289,356,cs),
(297,355,o),
(302,359,o),
(302,364,cs),
(302,368,o),
(298,371,o),
(292,372,c),
(282,372,o),
(269,369,o),
(249,368,cs),
(246,368,o),
(243,368,o),
(239,368,cs),
(228,368,ls),
(194,369,o),
(190,372,o),
(180,372,cs),
(175,372,o),
(171,369,o),
(171,364,cs),
(171,358,o),
(176,355,o),
(185,355,cs),
(202,356,o),
(208,370,o),
(210,314,cs),
(213,235,o),
(215,145,o),
(212,81,cs),
(210,30,o),
(194,4,o),
(165,4,cs),
(117,4,o),
(76,153,o),
(71,343,cs),
(66,570,o),
(100,697,o),
(166,697,cs),
(195,697,o),
(213,672,o),
(228,607,cs),
(235,576,o),
(241,539,o),
(241,511,cs),
(241,505,o),
(244,500,o),
(249,500,cs),
(254,500,o),
(256,504,o),
(256,510,cs),
(256,516,o),
(254,521,o),
(253,528,cs),
(250,546,o),
(248,575,o),
(248,620,cs),
(248,661,o),
(253,685,o),
(255,700,cs),
(256,709,o),
(250,711,o),
(248,711,cs),
(240,711,o),
(240,703,o),
(240,700,cs),
(241,687,o),
(238,680,o),
(231,680,cs),
(223,680,o),
(216,687,o),
(211,691,cs),
(197,703,o),
(182,709,o),
(166,709,cs),
(75,709,o),
(7,547,o),
(10,340,cs)
);
}
);
width = 600;
},
{
associatedMasterId = m002;
background = {
shapes = (
{
pos = (25,0);
ref = C;
}
);
};
hints = (
{
name = _corner.LeftSerifS;
origin = (0,20);
scale = (-1,1);
type = Corner;
},
{
name = _corner.LeftSerifL;
origin = (0,21);
type = Corner;
}
);
layerId = "39067042-B6E1-405F-BBA8-D06F02B651FA";
name = "18 Dec 22 at 12:21";
shapes = (
{
closed = 1;
nodes = (
(33,134,o),
(94,-9,o),
(170,-9,cs),
(216,-9,o),
(227,28,o),
(255,28,cs),
(268,28,o),
(276,22,o),
(276,10,cs),
(276,-3,o),
(279,-9,o),
(285,-9,cs),
(291,-9,o),
(294,-5,o),
(294,4,cs),
(294,14,o),
(286,30,o),
(284,86,cs),
(282,138,o),
(284,247,o),
(289,369,c),
(229,369,l),
(234,235,o),
(237,185,o),
(234,111,cs),
(231,44,o),
(215,11,o),
(185,11,cs),
(135,11,o),
(96,148,o),
(91,343,cs),
(86,570,o),
(120,697,o),
(186,697,cs),
(234,697,o),
(261,630,o),
(261,511,cs),
(261,505,o),
(264,500,o),
(269,500,cs),
(274,500,o),
(277,504,o),
(277,510,cs),
(277,521,o),
(268,550,o),
(268,620,cs),
(268,661,o),
(273,685,o),
(275,700,cs),
(276,709,o),
(270,711,o),
(268,711,cs),
(260,711,o),
(260,703,o),
(260,700,cs),
(260,689,o),
(261,680,o),
(254,680,cs),
(246,680,o),
(236,687,o),
(231,691,cs),
(217,703,o),
(202,709,o),
(186,709,cs),
(95,709,o),
(26,547,o),
(30,316,cs)
);
}
);
width = 361;
},
{
associatedMasterId = m002;
background = {
shapes = (
{
pos = (1,0);
ref = C;
}
);
};
hints = (
{
name = _corner.LeftSerifS;
origin = (0,20);
scale = (-1,1);
type = Corner;
},
{
name = _corner.LeftSerifL;
origin = (0,21);
type = Corner;
}
);
layerId = "7FA2E067-15C8-4C10-8A34-2AE97696E072";
name = "18 Dec 22 at 12:26";
shapes = (
{
closed = 1;
nodes = (
(33,134,o),
(94,-9,o),
(170,-9,cs),
(221,-9,o),
(229,28,o),
(255,28,cs),
(269,28,o),
(275,19,o),
(275,3,cs),
(275,-6,o),
(279,-9,o),
(285,-9,cs),
(290,-9,o),
(292,-5,o),
(292,3,cs),
(292,16,o),
(284,30,o),
(283,126,cs),
(282,188,o),
(284,247,o),
(289,369,c),
(229,369,l),
(234,235,o),
(237,185,o),
(234,111,cs),
(231,41,o),
(216,11,o),
(185,11,cs),
(135,11,o),
(96,148,o),
(91,343,cs),
(86,570,o),
(120,697,o),
(186,697,cs),
(234,697,o),
(261,630,o),
(261,511,cs),
(261,505,o),
(264,500,o),
(269,500,cs),
(274,500,o),
(277,504,o),
(277,510,cs),
(277,521,o),
(268,550,o),
(268,620,cs),
(268,661,o),
(273,685,o),
(275,700,cs),
(276,709,o),
(270,711,o),
(268,711,cs),
(260,711,o),
(260,703,o),
(260,700,cs),
(260,689,o),
(261,680,o),
(254,680,cs),
(246,680,o),
(236,687,o),
(231,691,cs),
(217,703,o),
(202,709,o),
(186,709,cs),
(95,709,o),
(26,547,o),
(30,316,cs)
);
}
);
width = 361;
},
{
associatedMasterId = m002;
background = {
shapes = (
{
pos = (12,0);
ref = C;
}
);
};
hints = (
{
name = _corner.LeftSerifS;
origin = (0,20);
scale = (-1,1);
type = Corner;
},
{
name = _corner.LeftSerifL;
origin = (0,21);
type = Corner;
}
);
layerId = "2C7DC1F4-FA4F-49A1-9B9A-2F47007090AB";
name = "18 Dec 22 at 12:34";
shapes = (
{
closed = 1;
nodes = (
(34,134,o),
(94,-9,o),
(170,-9,cs),
(221,-9,o),
(229,28,o),
(255,28,cs),
(269,28,o),
(275,19,o),
(275,3,cs),
(275,-6,o),
(279,-9,o),
(285,-9,cs),
(290,-9,o),
(292,-5,o),
(292,3,cs),
(292,16,o),
(284,30,o),
(283,126,cs),
(282,188,o),
(284,107,o),
(289,229,c),
(229,229,l),
(234,95,o),
(237,185,o),
(234,111,cs),
(231,41,o),
(216,11,o),
(185,11,cs),
(135,11,o),
(97,148,o),
(92,343,cs),
(87,569,o),
(116,696,o),
(176,696,cs),
(222,696,o),
(248,630,o),
(248,511,cs),
(248,505,o),
(251,500,o),
(256,500,cs),
(261,500,o),
(264,504,o),
(264,510,cs),
(264,521,o),
(255,550,o),
(255,620,cs),
(255,661,o),
(260,685,o),
(262,700,cs),
(263,709,o),
(257,711,o),
(255,711,cs),
(247,711,o),
(247,703,o),
(247,700,cs),
(247,689,o),
(249,680,o),
(242,680,cs),
(234,680,o),
(216,709,o),
(176,709,cs),
(90,709,o),
(27,536,o),
(31,316,cs)
);
}
);
width = 361;
},
{
anchors = (
{
name = bottom;
pos = (377,0);
},
{
name = top;
pos = (377,700);
}
);
background = {
shapes = (
{
ref = O;
}
);
};
hints = (
{
name = _corner.LeftSerifS;
origin = (0,20);
scale = (-0.5,1);
type = Corner;
},
{
name = _corner.LeftSerifS;
options = 1;
origin = (0,21);
scale = (1.2,1);
type = Corner;
}
);
layerId = m002;
name = Regular;
shapes = (
{
closed = 1;
nodes = (
(27,126,o),
(171,-10,o),
(390,-10,cs),
(545,-10,o),
(568,33,o),
(612,33,cs),
(635,33,o),
(644,23,o),
(646,5,cs),
(648,-5,o),
(653,-9,o),
(660,-9,cs),
(667,-9,o),
(672,-6,o),
(669,4,cs),
(657,39,o),
(658,94,o),
(658,144,cs),
(658,188,o),
(659,247,o),
(661,369,c),
(601,369,l),
(603,235,o),
(602,186,o),
(602,172,cs),
(602,47,o),
(552,7,o),
(402,7,cs),
(218,7,o),
(94,156,o),
(94,383,cs),
(94,572,o),
(221,696,o),
(412,696,cs),
(560,696,o),
(622,646,o),
(622,513,cs),
(622,490,o),
(620,480,o),
(633,480,cs),
(640,480,o),
(644,483,o),
(644,491,cs),
(644,501,o),
(637,550,o),
(637,610,cs),
(637,661,o),
(642,685,o),
(643,694,cs),
(645,711,o),
(638,710,o),
(633,710,cs),
(617,710,o),
(624,688,o),
(606,688,cs),
(578,688,o),
(515,709,o),
(410,709,cs),
(195,709,o),
(27,540,o),
(27,328,cs)
);
}
);
width = 757;
},
{
associatedMasterId = m003;
layerId = "B2DA110A-38A4-419B-853E-D7226147048C";
width = 600;
},
{
anchors = (
{
name = bottom;
pos = (167,0);
},
{
name = top;
pos = (167,700);
}
);
associatedMasterId = m003;
background = {
shapes = (
{
pos = (9,0);
ref = C;
}
);
};
hints = (
{
name = _corner.LeftSerifS;
origin = (0,20);
scale = (-0.6,1);
type = Corner;
},
{
name = _corner.LeftSerifS;
origin = (0,21);
type = Corner;
}
);
layerId = "98023E78-7AAD-4523-BABE-F7CC576B48B0";
name = "24 Feb 23 at 02:24";
shapes = (
{
closed = 1;
nodes = (
(30,134,o),
(93,-9,o),
(179,-9,cs),
(227,-9,o),
(234,27,o),
(261,27,cs),
(274,27,o),
(282,19,o),
(284,5,cs),
(286,-6,o),
(290,-9,o),
(295,-9,cs),
(300,-9,o),
(304,-5,o),
(301,4,cs),
(289,39,o),
(290,94,o),
(290,144,cs),
(290,188,o),
(291,247,o),
(293,369,c),
(239,369,l),
(241,235,o),
(240,156,o),
(240,132,cs),
(240,31,o),
(215,11,o),
(187,11,cs),
(128,11,o),
(91,154,o),
(91,383,cs),
(91,564,o),
(115,696,o),
(181,696,cs),
(228,696,o),
(259,630,o),
(259,533,cs),
(259,511,o),
(258,500,o),
(267,500,cs),
(272,500,o),
(275,504,o),
(275,511,cs),
(275,521,o),
(268,550,o),
(268,610,cs),
(268,661,o),
(273,685,o),
(274,694,cs),
(276,709,o),
(270,710,o),
(267,710,cs),
(260,710,o),
(259,703,o),
(259,696,cs),
(259,689,o),
(260,680,o),
(252,680,cs),
(238,680,o),
(219,709,o),
(178,709,cs),
(89,709,o),
(30,536,o),
(30,328,cs)
);
}
);
width = 334;
}
);
metricLeft = O;
metricRight = "=C-5";
unicode = 71;
},
{
glyphname = H;
kernLeft = H;
kernRight = H;
lastChange = "2023-10-03 16:45:15 +0000";
layers = (
{
associatedMasterId = m003;
layerId = "B826CCEB-93D1-4672-AA88-F03DC20D1A32";
width = 600;
},
{
associatedMasterId = m003;
layerId = "E785B07C-7638-40DD-A08B-5080B4C14061";
width = 600;
},
{
anchors = (
{
name = bottom;
pos = (193,0);
},
{
name = center;
pos = (193,350);
},
{
name = top;
pos = (193,700);
},
{
name = topleft;
pos = (25,700);
}
);
background = {
shapes = (
{
closed = 1;
nodes = (
(98,1,o),
(104,1,o),
(105,1,cs),
(115,1,ls),
(135,0,o),
(148,-4,o),
(158,-4,cs),
(164,-4,o),
(168,-1,o),
(168,3,cs),
(168,8,o),
(164,12,o),
(156,12,cs),
(141,12,o),
(135,3,o),
(133,45,cs),
(131,117,o),
(131,230,o),
(131,343,cs),
(131,356,o),
(138,356,o),
(193,356,cs),
(248,356,o),
(255,356,o),
(255,343,cs),
(255,230,o),
(255,117,o),
(253,45,cs),
(251,3,o),
(245,12,o),
(230,12,cs),
(222,12,o),
(218,8,o),
(218,3,cs),
(218,-1,o),
(222,-4,o),
(228,-4,cs),
(238,-4,o),
(251,0,o),
(271,1,cs),
(276,1,o),
(280,1,o),
(281,1,cs),
(294,1,ls),
(328,0,o),
(332,-4,o),
(342,-4,cs),
(347,-4,o),
(351,-2,o),
(351,3,cs),
(351,9,o),
(347,13,o),
(338,13,cs),
(321,13,o),
(314,-1,o),
(312,55,cs),
(309,139,o),
(307,253,o),
(307,366,cs),
(307,479,o),
(309,579,o),
(311,645,cs),
(314,701,o),
(320,687,o),
(337,686,cs),
(346,685,o),
(350,689,o),
(351,695,cs),
(351,700,o),
(347,702,o),
(342,703,c),
(332,703,o),
(328,701,o),
(294,699,cs),
(291,699,o),
(288,699,o),
(284,699,cs),
(272,699,ls),
(252,700,o),
(239,704,o),
(229,704,cs),
(223,704,o),
(219,701,o),
(219,697,cs),
(219,692,o),
(223,688,o),
(231,688,cs),
(246,688,o),
(252,697,o),
(254,655,cs),
(256,589,o),
(255,490,o),
(255,387,cs),
(255,374,o),
(248,374,o),
(193,374,cs),
(138,374,o),
(131,374,o),
(131,387,cs),
(131,490,o),
(130,589,o),
(132,655,cs),
(134,697,o),
(140,688,o),
(155,688,cs),
(163,688,o),
(167,692,o),
(167,697,cs),
(167,701,o),
(163,704,o),
(157,704,cs),
(147,704,o),
(134,700,o),
(114,699,cs),
(110,699,o),
(106,699,o),
(102,699,cs),
(92,699,ls),
(58,701,o),
(54,703,o),
(44,703,c),
(39,702,o),
(35,700,o),
(35,695,cs),
(36,689,o),
(40,685,o),
(49,686,cs),
(66,687,o),
(72,701,o),
(75,645,cs),
(77,579,o),
(79,479,o),
(79,366,cs),
(79,253,o),
(77,139,o),
(74,55,cs),
(72,-1,o),
(65,13,o),
(48,13,cs),
(39,13,o),
(35,9,o),
(35,3,cs),
(35,-2,o),
(39,-4,o),
(44,-4,cs),
(54,-4,o),
(58,0,o),
(92,1,cs)
);
}
);
};
hints = (
{
name = _corner.LeftSerifL;
options = 2;
origin = (0,1);
type = Corner;
},
{
name = _corner.LeftSerifL;
options = 1;
origin = (1,2);
scale = (-1,1);
type = Corner;
},
{
name = _corner.LeftSerifL;
options = 2;
origin = (1,1);
type = Corner;
},
{
name = _segment.curve.capheight.outer;
origin = (1,2);
scale = (0.85,1);
type = Segment;
},
{
name = _corner.LeftSerifL;
options = 2;
origin = (0,2);
scale = (1,-1);
type = Corner;
},
{
name = _corner.LeftSerifS;
options = 1;
origin = (0,0);
scale = (-1,1);
type = Corner;
},
{
name = _corner.LeftSerifS;
options = 2;
origin = (1,0);
scale = (1,-1);
type = Corner;
},
{
name = _corner.LeftSerifS;
origin = (1,3);
type = Corner;
},
{
name = _corner.LeftSerifS;
options = 2;
origin = (0,3);
type = Corner;
},
{
name = _segment.curve.capheight.outer;
origin = (0,2);
type = Segment;
},
{
name = _segment.curve.capheight.inner;
origin = (0,0);
type = Segment;
},
{
name = _segment.curve.capheight.inner;
origin = (1,0);
scale = (0.85,1);
type = Segment;
}
);
layerId = m003;
shapes = (
{
closed = 1;
nodes = (
(135,700,l),
(71,700,l),
(71,0,l),
(135,0,l)
);
},
{
closed = 1;
nodes = (
(251,0,l),
(315,0,l),
(315,700,l),
(251,700,l)
);
},
{
closed = 1;
nodes = (
(121,394,l),
(121,336,l),
(131,336,l),
(131,358,o),
(132,357,o),
(183,357,cs),
(203,357,ls),
(254,357,o),
(255,358,o),
(255,336,c),
(265,336,l),
(265,394,l),
(255,394,l),
(255,372,o),
(254,373,o),
(203,373,cs),
(183,373,ls),
(132,373,o),
(131,372,o),
(131,394,c)
);
}
);
width = 386;
},
{
associatedMasterId = m003;
layerId = "237BDB5C-3B14-44EB-81CC-2A2B4DD9CAD5";
width = 600;
},
{
associatedMasterId = m002;
layerId = "E60B7E1C-82F6-4F77-97C6-E8FBABFE7681";
width = 600;
},
{
associatedMasterId = m002;
layerId = "E47519FE-8802-40AA-AE93-764CF44FA768";
width = 600;
},
{
anchors = (
{
name = bottom;
pos = (458,0);
},
{
name = center;
pos = (458,350);
},
{
name = top;
pos = (458,700);
},
{
name = topleft;
pos = (70,700);
}
);
background = {
shapes = (
{
pos = (17,0);
ref = P;
}
);
};
hints = (
{
name = _corner.LeftSerifL;
options = 2;
origin = (0,1);
type = Corner;
},
{
name = _corner.LeftSerifL;
options = 1;
origin = (1,2);
scale = (-1,1);
type = Corner;
},
{
name = _corner.LeftSerifL;
options = 1;
origin = (1,1);
type = Corner;
},
{
name = _segment.curve.capheight.outer;
origin = (1,2);
scale = (0.85,1);
type = Segment;
},
{
name = _corner.LeftSerifL;
options = 2;
origin = (0,2);
scale = (1,-1);
type = Corner;
},
{
name = _corner.LeftSerifS;
origin = (0,0);
scale = (-1,1);
type = Corner;
},
{
name = _corner.LeftSerifS;
origin = (1,0);
scale = (1,-1);
type = Corner;
},
{
name = _corner.LeftSerifS;
options = 1;
origin = (1,3);
type = Corner;
},
{
name = _corner.LeftSerifS;
options = 1;
origin = (0,3);
type = Corner;
},
{
name = _segment.curve.capheight.outer;
origin = (0,2);
type = Segment;
},
{
name = _segment.curve.capheight.inner;
origin = (0,0);
type = Segment;
},
{
name = _segment.curve.capheight.inner;
origin = (1,0);
scale = (0.85,1);
type = Segment;
}
);
layerId = m002;
shapes = (
{
closed = 1;
nodes = (
(208,700,l),
(138,700,l),
(138,0,l),
(208,0,l)
);
},
{
closed = 1;
nodes = (
(708,0,l),
(778,0,l),
(778,700,l),
(708,700,l)
);
},
{
closed = 1;
nodes = (
(188,444,l),
(188,286,l),
(204,286,l),
(204,347,o),
(213,357,o),
(263,357,cs),
(653,357,ls),
(703,357,o),
(712,347,o),
(712,286,c),
(728,286,l),
(728,444,l),
(712,444,l),
(712,383,o),
(703,373,o),
(653,373,cs),
(263,373,ls),
(213,373,o),
(204,383,o),
(204,444,c)
);
}
);
width = 916;
},
{
associatedMasterId = m002;
layerId = "3066A1DD-974C-40E6-8F7D-8B61A2723B7D";
width = 600;
},
{
associatedMasterId = m003;
layerId = "B2DA110A-38A4-419B-853E-D7226147048C";
width = 600;
}
);
unicode = 72;
},
{
glyphname = I;
kernLeft = H;
kernRight = H;
lastChange = "2023-10-03 16:45:15 +0000";
layers = (
{
associatedMasterId = m003;
layerId = "B826CCEB-93D1-4672-AA88-F03DC20D1A32";
width = 600;
},
{
associatedMasterId = m003;
layerId = "E785B07C-7638-40DD-A08B-5080B4C14061";
width = 600;
},
{
anchors = (
{
name = bottom;
pos = (104,0);
},
{
name = ogonek;
pos = (180,10);
},
{
name = top;
pos = (104,700);
},
{
name = topleft;
pos = (25,700);
}
);
hints = (
{
name = _corner.LeftSerifL;
options = 1;
origin = (0,0);
scale = (-1,1);
type = Corner;
},
{
name = _corner.LeftSerifL;
options = 2;
origin = (0,1);
type = Corner;
},
{
name = _corner.LeftSerifL;
options = 2;
origin = (0,2);
scale = (-1,1);
type = Corner;
},
{
name = _corner.LeftSerifL;
options = 2;
origin = (0,3);
type = Corner;
},
{
name = _segment.curve.capheight.outer;
origin = (0,2);
type = Segment;
},
{
name = _segment.curve.capheight.outer;
origin = (0,0);
type = Segment;
}
);
layerId = m003;
shapes = (
{
closed = 1;
nodes = (
(136,700,l,{
GSSegment = {
name = _segment.curve.capheight.inner;
};
}),
(71,700,l),
(71,0,l,{
GSSegment = {
name = _segment.curve.capheight.outer;
};
}),
(136,0,l)
);
}
);
width = 207;
},
{
associatedMasterId = m002;
layerId = "8DD7DC52-75DA-4D26-91CF-A132B31B4398";
width = 600;
},
{
associatedMasterId = m002;
layerId = "6A29EE81-E7C7-4B67-8101-C69505B236C1";
width = 600;
},
{
anchors = (
{
name = bottom;
pos = (175,0);
},
{
name = ogonek;
pos = (291,10);
},
{
name = top;
pos = (175,700);
},
{
name = topleft;
pos = (50,700);
}
);
hints = (
{
name = _corner.LeftSerifL;
options = 1;
origin = (0,0);
scale = (-1,1);
type = Corner;
},
{
name = _corner.LeftSerifL;
options = 2;
origin = (0,1);
type = Corner;
},
{
name = _corner.LeftSerifL;
options = 2;
origin = (0,2);
scale = (-1,1);
type = Corner;
},
{
name = _corner.LeftSerifL;
options = 2;
origin = (0,3);
type = Corner;
},
{
name = _segment.curve.capheight.outer;
origin = (0,2);
type = Segment;
},
{
name = _segment.curve.capheight.outer;
origin = (0,0);
type = Segment;
}
);
layerId = m002;
shapes = (
{
closed = 1;
nodes = (
(212,700,l),
(138,700,l),
(138,0,l),
(212,0,l)
);
}
);
width = 350;
},
{
associatedMasterId = m003;
layerId = "B2DA110A-38A4-419B-853E-D7226147048C";
width = 600;
}
);
metricLeft = H;
metricRight = H;
unicode = 73;
},
{
glyphname = Iogonek;
lastChange = "2024-08-21 14:52:39 +0000";
layers = (
{
layerId = m003;
shapes = (
{
ref = I;
},
{
closed = 1;
nodes = (
(171,-116,o),
(167,-125,o),
(145,-125,cs),
(124,-125,o),
(113,-115,o),
(113,-94,cs),
(113,-62,o),
(141,-25,o),
(184,0,c),
(164,8,l),
(138,-1,l),
(163,-3,o),
(157,-6,o),
(154,-8,cs),
(151,-10,o),
(139,-18,o),
(132,-23,cs),
(90,-52,o),
(67,-83,o),
(67,-116,cs),
(67,-141,o),
(85,-162,o),
(114,-162,cs),
(135,-162,o),
(151,-152,o),
(165,-138,cs),
(174,-129,o),
(177,-123,o),
(175,-120,cs)
);
}
);
width = 207;
},
{
layerId = m002;
shapes = (
{
ref = I;
},
{
closed = 1;
nodes = (
(290,-116,o),
(286,-125,o),
(264,-125,cs),
(243,-125,o),
(232,-113,o),
(232,-92,cs),
(232,-60,o),
(260,-27,o),
(306,-5,c),
(283,8,l),
(252,-4,l),
(272,-5,o),
(275,-8,o),
(273,-10,cs),
(270,-13,o),
(258,-21,o),
(251,-26,cs),
(209,-55,o),
(186,-83,o),
(186,-116,cs),
(186,-141,o),
(204,-162,o),
(233,-162,cs),
(254,-162,o),
(270,-152,o),
(284,-138,cs),
(293,-129,o),
(296,-123,o),
(294,-120,cs)
);
}
);
width = 350;
}
);
unicode = 302;
},
{
glyphname = J;
kernLeft = J;
kernRight = U;
lastChange = "2024-06-05 14:23:59 +0000";
layers = (
{
associatedMasterId = m003;
layerId = "B826CCEB-93D1-4672-AA88-F03DC20D1A32";
width = 600;
},
{
associatedMasterId = m003;
layerId = "E785B07C-7638-40DD-A08B-5080B4C14061";
width = 600;
},
{
associatedMasterId = m003;
background = {
shapes = (
{
pos = (-82,0);
ref = H;
}
);
};
hints = (
{
name = _corner.LeftSerifL;
origin = (0,2);
type = Corner;
},
{
name = _corner.LeftSerifL;
origin = (0,1);
scale = (-1,1);
type = Corner;
}
);
layerId = "BF143E00-78AE-4AD2-822A-E089B8996750";
name = "18 Dec 22 at 14:55";
shapes = (
{
closed = 1;
nodes = (
(219,515,o),
(224,700,c),
(161,700,l),
(166,550,o),
(171,182,o),
(171,132,cs),
(171,40,o),
(160,6,o),
(110,6,cs),
(50,6,o),
(19,66,o),
(17,188,cs),
(17,197,o),
(15,202,o),
(9,202,cs),
(3,202,o),
(1,196,o),
(1,191,cs),
(1,177,o),
(10,133,o),
(9,87,cs),
(8,29,o),
(0,12,o),
(0,2,cs),
(0,-5,o),
(4,-9,o),
(9,-9,cs),
(25,-9,o),
(11,33,o),
(28,33,cs),
(39,33,o),
(55,-9,o),
(112,-9,cs),
(190,-9,o),
(220,35,o),
(220,149,cs),
(220,270,o)
);
}
);
width = 290;
},
{
associatedMasterId = m003;
background = {
shapes = (
{
pos = (-91,0);
ref = H;
}
);
};
hints = (
{
name = _corner.LeftSerifL;
origin = (0,2);
type = Corner;
},
{
name = _corner.LeftSerifL;
origin = (0,1);
scale = (-1,1);
type = Corner;
}
);
layerId = "19D5974A-9953-400C-8E24-9C25136A087D";
name = "22 Dec 22 at 13:27";
shapes = (
{
closed = 1;
nodes = (
(209,515,o),
(214,700,c),
(151,700,l),
(157,549,o),
(162,222,o),
(162,132,cs),
(162,40,o),
(151,6,o),
(101,6,cs),
(47,6,o),
(20,66,o),
(18,188,cs),
(18,197,o),
(16,202,o),
(10,202,cs),
(4,202,o),
(2,196,o),
(2,191,cs),
(2,177,o),
(11,133,o),
(10,87,cs),
(9,29,o),
(0,12,o),
(0,2,cs),
(0,-5,o),
(5,-9,o),
(10,-9,cs),
(26,-9,o),
(10,33,o),
(27,33,cs),
(38,33,o),
(51,-9,o),
(106,-9,cs),
(181,-9,o),
(211,35,o),
(211,149,cs),
(211,270,o)
);
}
);
width = 280;
},
{
associatedMasterId = m003;
background = {
shapes = (
{
angle = 180;
pos = (290,526);
ref = r;
}
);
};
hints = (
{
name = _corner.LeftSerifL;
origin = (0,3);
type = Corner;
},
{
name = _corner.LeftSerifL;
origin = (0,2);
scale = (-1,1);
type = Corner;
}
);
layerId = "AC5F36C5-DF99-4844-9CB5-C2C957D22515";
name = "22 Dec 22 at 13:31";
shapes = (
{
closed = 1;
nodes = (
(211,280,o),
(209,515,o),
(214,700,c),
(151,700,l),
(157,549,o),
(162,232,o),
(162,142,cs),
(162,44,o),
(142,6,o),
(91,6,cs),
(31,6,o),
(72,67,o),
(72,96,cs),
(72,115,o),
(62,125,o),
(47,125,cs),
(29,125,o),
(9,107,o),
(9,75,cs),
(9,21,o),
(44,-9,o),
(106,-9,cs),
(182,-9,o),
(211,38,o),
(211,159,cs)
);
}
);
width = 280;
},
{
anchors = (
{
name = bottom;
pos = (130,0);
},
{
name = top;
pos = (130,700);
}
);
hints = (
{
name = _corner.LeftSerifL;
origin = (0,3);
scale = (1.3,1);
type = Corner;
},
{
name = _corner.LeftSerifL;
origin = (0,2);
scale = (-1,1);
type = Corner;
}
);
layerId = m003;
metricRight = "=H-10";
name = Regular;
shapes = (
{
closed = 1;
nodes = (
(188,214,o),
(188,515,o),
(188,700,c),
(128,700,l),
(132,549,o),
(132,205,o),
(132,132,cs),
(132,23,o),
(122,6,o),
(90,6,cs),
(38,6,o),
(54,86,o),
(54,112,cs),
(54,136,o),
(43,145,o),
(29,145,cs),
(10,145,o),
(0,125,o),
(0,91,cs),
(0,30,o),
(37,-9,o),
(92,-9,cs),
(158,-9,o),
(188,38,o),
(188,149,cs)
);
}
);
width = 249;
},
{
associatedMasterId = m003;
background = {
shapes = (
{
angle = 180;
pos = (290,526);
ref = r;
}
);
};
hints = (
{
name = _corner.LeftSerifL;
origin = (0,3);
type = Corner;
},
{
name = _corner.LeftSerifL;
origin = (0,2);
scale = (-1,1);
type = Corner;
}
);
layerId = "CC654A57-D082-4810-BC6F-7FA3DC6F767E";
name = "22 Dec 22 at 13:32";
shapes = (
{
closed = 1;
nodes = (
(211,270,o),
(209,515,o),
(214,700,c),
(151,700,l),
(157,549,o),
(162,222,o),
(162,132,cs),
(162,40,o),
(151,6,o),
(101,6,cs),
(21,6,o),
(72,67,o),
(72,96,cs),
(72,115,o),
(62,125,o),
(47,125,cs),
(29,125,o),
(9,107,o),
(9,75,cs),
(9,21,o),
(44,-9,o),
(106,-9,cs),
(181,-9,o),
(211,35,o),
(211,149,cs)
);
}
);
width = 280;
},
{
associatedMasterId = m002;
layerId = "A9B524F6-FC12-423A-8ADE-EB3994EDEDB7";
width = 600;
},
{
associatedMasterId = m002;
layerId = "D8811187-EBBD-474D-A962-D339DEB6BD15";
width = 600;
},
{
associatedMasterId = m002;
background = {
shapes = (
{
pos = (-82,0);
ref = H;
}
);
};
hints = (
{
name = _corner.LeftSerifL;
origin = (0,2);
type = Corner;
},
{
name = _corner.LeftSerifL;
origin = (0,1);
scale = (-1,1);
type = Corner;
}
);
layerId = "9B6583BA-E760-4C3B-B754-0C714A0EFE7C";
name = "18 Dec 22 at 14:55";
shapes = (
{
closed = 1;
nodes = (
(219,515,o),
(224,700,c),
(161,700,l),
(166,550,o),
(171,182,o),
(171,132,cs),
(171,40,o),
(160,6,o),
(110,6,cs),
(50,6,o),
(19,66,o),
(17,188,cs),
(17,197,o),
(15,202,o),
(9,202,cs),
(3,202,o),
(1,196,o),
(1,191,cs),
(1,177,o),
(10,133,o),
(9,87,cs),
(8,29,o),
(0,12,o),
(0,2,cs),
(0,-5,o),
(4,-9,o),
(9,-9,cs),
(25,-9,o),
(11,33,o),
(28,33,cs),
(39,33,o),
(55,-9,o),
(112,-9,cs),
(190,-9,o),
(220,35,o),
(220,149,cs),
(220,270,o)
);
}
);
width = 290;
},
{
associatedMasterId = m002;
background = {
shapes = (
{
pos = (-91,0);
ref = H;
}
);
};
hints = (
{
name = _corner.LeftSerifL;
origin = (0,2);
type = Corner;
},
{
name = _corner.LeftSerifL;
origin = (0,1);
scale = (-1,1);
type = Corner;
}
);
layerId = "7BDF193F-82EA-4BFF-ABD8-0BCDB7948D82";
name = "22 Dec 22 at 13:27";
shapes = (
{
closed = 1;
nodes = (
(209,515,o),
(214,700,c),
(151,700,l),
(157,549,o),
(162,222,o),
(162,132,cs),
(162,40,o),
(151,6,o),
(101,6,cs),
(47,6,o),
(20,66,o),
(18,188,cs),
(18,197,o),
(16,202,o),
(10,202,cs),
(4,202,o),
(2,196,o),
(2,191,cs),
(2,177,o),
(11,133,o),
(10,87,cs),
(9,29,o),
(0,12,o),
(0,2,cs),
(0,-5,o),
(5,-9,o),
(10,-9,cs),
(26,-9,o),
(10,33,o),
(27,33,cs),
(38,33,o),
(51,-9,o),
(106,-9,cs),
(181,-9,o),
(211,35,o),
(211,149,cs),
(211,270,o)
);
}
);
width = 280;
},
{
associatedMasterId = m002;
background = {
shapes = (
{
angle = 180;
pos = (290,526);
ref = r;
}
);
};
hints = (
{
name = _corner.LeftSerifL;
origin = (0,3);
type = Corner;
},
{
name = _corner.LeftSerifL;
origin = (0,2);
scale = (-1,1);
type = Corner;
}
);
layerId = "515F7649-726F-43B1-972E-BA7A7F5C951F";
name = "22 Dec 22 at 13:31";
shapes = (
{
closed = 1;
nodes = (
(211,280,o),
(209,515,o),
(214,700,c),
(151,700,l),
(157,549,o),
(162,232,o),
(162,142,cs),
(162,44,o),
(142,6,o),
(91,6,cs),
(31,6,o),
(72,67,o),
(72,96,cs),
(72,115,o),
(62,125,o),
(47,125,cs),
(29,125,o),
(9,107,o),
(9,75,cs),
(9,21,o),
(44,-9,o),
(106,-9,cs),
(182,-9,o),
(211,38,o),
(211,159,cs)
);
}
);
width = 280;
},
{
anchors = (
{
name = bottom;
pos = (258,0);
},
{
name = top;
pos = (338,700);
}
);
background = {
shapes = (
{
angle = 180;
pos = (414,526);
ref = r;
}
);
};
hints = (
{
name = _corner.LeftSerifL;
origin = (0,3);
scale = (1.3,1);
type = Corner;
},
{
name = _corner.LeftSerifL;
origin = (0,2);
scale = (-1,1);
type = Corner;
}
);
layerId = m002;
metricRight = "=H-10";
name = Regular;
shapes = (
{
closed = 1;
nodes = (
(384,214,o),
(384,515,o),
(384,700,c),
(318,700,l),
(318,549,o),
(326,205,o),
(326,132,cs),
(326,45,o),
(284,6,o),
(193,6,cs),
(114,6,o),
(84,34,o),
(84,108,cs),
(84,132,o),
(74,145,o),
(53,145,cs),
(31,145,o),
(20,129,o),
(20,102,cs),
(20,32,o),
(79,-9,o),
(185,-9,cs),
(329,-9,o),
(384,35,o),
(384,149,cs)
);
}
);
width = 512;
},
{
associatedMasterId = m002;
background = {
shapes = (
{
angle = 180;
pos = (290,526);
ref = r;
}
);
};
hints = (
{
name = _corner.LeftSerifL;
origin = (0,3);
type = Corner;
},
{
name = _corner.LeftSerifL;
origin = (0,2);
scale = (-1,1);
type = Corner;
}
);
layerId = "B1FB8B6B-CD86-4802-95E9-3013A3B55311";
name = "22 Dec 22 at 13:32";
shapes = (
{
closed = 1;
nodes = (
(211,270,o),
(209,515,o),
(214,700,c),
(151,700,l),
(157,549,o),
(162,222,o),
(162,132,cs),
(162,40,o),
(151,6,o),
(101,6,cs),
(21,6,o),
(72,67,o),
(72,96,cs),
(72,115,o),
(62,125,o),
(47,125,cs),
(29,125,o),
(9,107,o),
(9,75,cs),
(9,21,o),
(44,-9,o),
(106,-9,cs),
(181,-9,o),
(211,35,o),
(211,149,cs)
);
}
);
width = 280;
},
{
associatedMasterId = m003;
layerId = "B2DA110A-38A4-419B-853E-D7226147048C";
width = 600;
}
);
metricLeft = "=H-20";
metricRight = H;
unicode = 74;
},
{
glyphname = Jcircumflex;
lastChange = "2024-03-24 15:40:47 +0000";
layers = (
{
anchors = (
{
name = top;
pos = (130,876);
}
);
layerId = m003;
shapes = (
{
ref = J;
},
{
closed = 1;
nodes = (
(65,739,o),
(90,771,o),
(123,800,cs),
(129,805,o),
(137,813,o),
(145,813,cs),
(153,813,o),
(158,807,o),
(166,800,cs),
(195,775,o),
(223,739,o),
(248,739,cs),
(254,739,o),
(256,741,o),
(256,745,cs),
(256,759,o),
(221,760,o),
(183,844,cs),
(175,861,o),
(173,876,o),
(158,876,cs),
(146,876,o),
(139,867,o),
(126,846,cs),
(79,771,o),
(43,758,o),
(43,745,cs),
(43,741,o),
(45,739,o),
(51,739,cs)
);
}
);
width = 259;
},
{
anchors = (
{
name = top;
pos = (338,886);
}
);
layerId = m002;
shapes = (
{
ref = J;
},
{
closed = 1;
nodes = (
(222,750,o),
(261,791,o),
(305,829,cs),
(312,835,o),
(323,845,o),
(329,845,cs),
(335,845,o),
(342,839,o),
(351,830,cs),
(405,776,o),
(450,749,o),
(471,749,cs),
(479,749,o),
(482,752,o),
(482,755,cs),
(482,769,o),
(419,774,o),
(372,874,cs),
(364,890,o),
(356,906,o),
(338,906,cs),
(324,906,o),
(314,896,o),
(301,876,cs),
(243,781,o),
(182,767,o),
(182,755,cs),
(182,751,o),
(187,749,o),
(192,749,cs)
);
}
);
width = 512;
}
);
unicode = 308;
},
{
glyphname = K;
kernLeft = h;
kernRight = K;
lastChange = "2023-10-03 16:46:13 +0000";
layers = (
{
associatedMasterId = m003;
layerId = "B826CCEB-93D1-4672-AA88-F03DC20D1A32";
width = 600;
},
{
associatedMasterId = m003;
layerId = "E785B07C-7638-40DD-A08B-5080B4C14061";
width = 600;
},
{
anchors = (
{
name = bottom;
pos = (187,0);
},
{
name = top;
pos = (187,700);
}
);
background = {
shapes = (
{
closed = 1;
nodes = (
(133,269,o),
(135,278,o),
(137,284,cs),
(150,316,o),
(154,325,o),
(161,341,cs),
(163,345,o),
(164,346,o),
(166,346,cs),
(168,346,o),
(168,346,o),
(170,341,cs),
(215,209,o),
(248,102,o),
(263,43,cs),
(271,2,o),
(266,11,o),
(251,10,cs),
(243,10,o),
(239,6,o),
(239,1,cs),
(239,-3,o),
(243,-6,o),
(249,-6,cs),
(259,-5,o),
(272,-1,o),
(292,0,cs),
(318,0,ls),
(338,-1,o),
(351,-3,o),
(361,-1,cs),
(367,0,o),
(371,3,o),
(370,7,cs),
(369,12,o),
(365,15,o),
(357,14,cs),
(342,12,o),
(337,2,o),
(323,41,cs),
(302,99,o),
(266,207,o),
(199,410,cs),
(196,419,o),
(199,428,o),
(201,434,cs),
(225,495,o),
(255,568,o),
(289,644,cs),
(300,673,o),
(310,690,o),
(325,690,c),
(329,691,o),
(331,690,o),
(335,690,cs),
(339,690,o),
(342,692,o),
(342,696,cs),
(342,701,o),
(337,704,o),
(331,704,cs),
(322,703,o),
(314,700,o),
(280,699,c),
(288,698,ls),
(246,701,o),
(239,704,o),
(231,704,cs),
(225,704,o),
(221,701,o),
(221,696,cs),
(221,690,o),
(225,687,o),
(231,687,cs),
(250,687,o),
(259,703,o),
(243,647,cs),
(216,557,o),
(177,438,o),
(146,355,cs),
(144,350,o),
(142,343,o),
(137,343,cs),
(133,343,o),
(131,348,o),
(131,356,cs),
(131,457,o),
(128,581,o),
(131,655,cs),
(134,697,o),
(139,688,o),
(154,687,cs),
(162,686,o),
(166,690,o),
(167,695,cs),
(167,699,o),
(163,702,o),
(157,702,cs),
(147,703,o),
(134,700,o),
(114,699,cs),
(110,699,o),
(105,699,o),
(102,699,cs),
(91,699,ls),
(57,701,o),
(53,703,o),
(43,703,c),
(38,702,o),
(34,700,o),
(34,695,cs),
(35,689,o),
(39,685,o),
(48,686,cs),
(65,687,o),
(71,701,o),
(74,645,cs),
(78,558,o),
(81,434,o),
(82,331,cs),
(83,232,o),
(83,150,o),
(81,55,cs),
(79,-1,o),
(72,13,o),
(55,12,cs),
(46,12,o),
(42,8,o),
(42,2,cs),
(42,-3,o),
(46,-5,o),
(51,-5,cs),
(61,-5,o),
(65,0,o),
(99,1,cs),
(103,1,o),
(106,1,o),
(110,1,cs),
(121,1,ls),
(141,0,o),
(154,-4,o),
(164,-4,cs),
(170,-4,o),
(174,-1,o),
(174,3,cs),
(174,8,o),
(170,12,o),
(162,12,cs),
(147,12,o),
(141,3,o),
(138,45,cs),
(134,107,o),
(131,188,o),
(133,261,cs)
);
},
{
pos = (5,0);
ref = H;
}
);
};
hints = (
{
name = _corner.LeftSerifS;
origin = (0,35);
scale = (1,-1);
type = Corner;
},
{
name = _corner.LeftSerifL;
options = 1;
origin = (0,0);
type = Corner;
},
{
name = _corner.LeftSerifS;
options = 1;
origin = (0,10);
type = Corner;
},
{
name = _corner.LeftSerifL;
origin = (0,9);
scale = (-1,1);
type = Corner;
},
{
name = _corner.LeftSerifS;
options = 1;
origin = (1,1);
scale = (-1,1);
type = Corner;
},
{
name = _corner.LeftSerifL;
options = 2;
origin = (1,2);
type = Corner;
},
{
name = _corner.LeftSerifL;
origin = (1,3);
scale = (-1,1);
type = Corner;
},
{
name = _corner.LeftSerifS;
options = 1;
origin = (1,0);
type = Corner;
},
{
name = _segment.curve.capheight.inner;
origin = (1,1);
type = Segment;
},
{
name = _segment.curve.capheight.outer;
origin = (1,3);
type = Segment;
}
);
layerId = m003;
shapes = (
{
closed = 1;
nodes = (
(343,0,l),
(304,99,o),
(267,211,o),
(199,417,cs),
(197,423,o),
(199,429,o),
(203,439,cs),
(225,495,o),
(261,568,o),
(316,700,c),
(266,700,l),
(226,557,o),
(175,431,o),
(141,340,cs),
(140,337,o),
(138,334,o),
(135,334,cs),
(130,334,o),
(131,340,o),
(131,348,c),
(102,356,l),
(103,257,l),
(131,257,l),
(131,268,o),
(135,276,o),
(137,282,cs),
(161,341,ls),
(163,345,o),
(164,346,o),
(166,346,cs),
(168,346,o),
(168,346,o),
(170,341,cs),
(212,209,o),
(248,102,o),
(273,0,c)
);
},
{
closed = 1;
nodes = (
(135,0,l),
(135,700,l,{
GSSegment = {
name = _segment.curve.capheight.inner;
};
}),
(71,700,l),
(71,0,l,{
GSSegment = {
name = _segment.curve.capheight.outer;
};
})
);
}
);
width = 394;
},
{
associatedMasterId = m003;
background = {
shapes = (
{
closed = 1;
nodes = (
(109,269,o),
(111,278,o),
(113,284,cs),
(126,316,o),
(130,325,o),
(137,341,cs),
(139,345,o),
(140,346,o),
(142,346,cs),
(144,346,o),
(144,346,o),
(146,341,cs),
(191,209,o),
(224,102,o),
(239,43,cs),
(247,2,o),
(242,11,o),
(227,10,cs),
(219,10,o),
(215,6,o),
(215,1,cs),
(215,-3,o),
(219,-6,o),
(225,-6,cs),
(235,-5,o),
(248,-1,o),
(268,0,cs),
(294,0,ls),
(314,-1,o),
(327,-3,o),
(337,-1,cs),
(343,0,o),
(347,3,o),
(346,7,cs),
(345,12,o),
(341,15,o),
(333,14,cs),
(318,12,o),
(313,2,o),
(299,41,cs),
(278,99,o),
(242,207,o),
(175,410,cs),
(172,419,o),
(175,428,o),
(177,434,cs),
(201,495,o),
(231,568,o),
(265,644,cs),
(276,673,o),
(286,690,o),
(301,690,c),
(305,691,o),
(307,690,o),
(311,690,cs),
(315,690,o),
(318,692,o),
(318,696,cs),
(318,701,o),
(313,704,o),
(307,704,cs),
(298,703,o),
(290,700,o),
(256,699,c),
(264,698,ls),
(222,701,o),
(215,704,o),
(207,704,cs),
(201,704,o),
(197,701,o),
(197,696,cs),
(197,690,o),
(201,687,o),
(207,687,cs),
(226,687,o),
(235,703,o),
(219,647,cs),
(192,557,o),
(153,438,o),
(122,355,cs),
(120,350,o),
(118,343,o),
(113,343,cs),
(109,343,o),
(107,348,o),
(107,356,cs),
(107,457,o),
(104,581,o),
(107,655,cs),
(110,697,o),
(115,688,o),
(130,687,cs),
(138,686,o),
(142,690,o),
(143,695,cs),
(143,699,o),
(139,702,o),
(133,702,cs),
(123,703,o),
(110,700,o),
(90,699,cs),
(86,699,o),
(81,699,o),
(78,699,cs),
(67,699,ls),
(33,701,o),
(29,703,o),
(19,703,c),
(14,702,o),
(10,700,o),
(10,695,cs),
(11,689,o),
(15,685,o),
(24,686,cs),
(41,687,o),
(47,701,o),
(50,645,cs),
(54,558,o),
(57,434,o),
(58,331,cs),
(59,232,o),
(59,150,o),
(57,55,cs),
(55,-1,o),
(48,13,o),
(31,12,cs),
(22,12,o),
(18,8,o),
(18,2,cs),
(18,-3,o),
(22,-5,o),
(27,-5,cs),
(37,-5,o),
(41,0,o),
(75,1,cs),
(79,1,o),
(82,1,o),
(86,1,cs),
(97,1,ls),
(117,0,o),
(130,-4,o),
(140,-4,cs),
(146,-4,o),
(150,-1,o),
(150,3,cs),
(150,8,o),
(146,12,o),
(138,12,cs),
(123,12,o),
(117,3,o),
(114,45,cs),
(110,107,o),
(107,188,o),
(109,261,cs)
);
}
);
};
hints = (
{
name = _corner.LeftSerifS;
origin = (0,13);
scale = (1,-1);
type = Corner;
},
{
name = _corner.LeftSerifL;
options = 1;
origin = (0,14);
type = Corner;
},
{
name = _corner.LeftSerifS;
options = 1;
origin = (0,24);
type = Corner;
},
{
name = _corner.LeftSerifL;
origin = (0,23);
scale = (-1,1);
type = Corner;
},
{
name = _corner.LeftSerifS;
options = 1;
origin = (1,0);
scale = (-1,1);
type = Corner;
},
{
name = _corner.LeftSerifL;
options = 2;
origin = (1,1);
type = Corner;
},
{
name = _corner.LeftSerifL;
origin = (1,2);
scale = (-1,1);
type = Corner;
},
{
name = _corner.LeftSerifS;
options = 1;
origin = (1,3);
type = Corner;
},
{
name = _segment.curve.capheight.inner;
origin = (1,0);
type = Segment;
},
{
name = _segment.curve.capheight.outer;
origin = (1,2);
type = Segment;
}
);
layerId = "409ABA9B-43EA-438B-A845-DDEFD1D07A58";
name = "18 Dec 22 at 02:44";
shapes = (
{
closed = 1;
nodes = (
(107,253,l),
(107,264,o),
(111,274,o),
(113,280,cs),
(137,341,ls),
(139,345,o),
(140,346,o),
(142,346,cs),
(144,346,o),
(144,346,o),
(146,341,cs),
(191,209,o),
(224,102,o),
(247,0,c),
(314,0,l),
(278,99,o),
(242,207,o),
(175,410,cs),
(172,419,o),
(173,425,o),
(177,434,cs),
(201,495,o),
(231,568,o),
(287,700,c),
(234,700,l),
(192,557,o),
(153,438,o),
(122,355,cs),
(120,350,o),
(118,343,o),
(113,343,cs),
(109,343,o),
(107,348,o),
(107,356,c),
(78,356,l),
(79,257,l)
);
},
{
closed = 1;
nodes = (
(111,700,l,{
GSSegment = {
name = _segment.curve.capheight.inner;
};
}),
(47,700,l),
(47,0,l,{
GSSegment = {
name = _segment.curve.capheight.outer;
};
}),
(111,0,l)
);
}
);
width = 600;
},
{
associatedMasterId = m003;
background = {
shapes = (
{
closed = 1;
nodes = (
(128,269,o),
(130,278,o),
(132,284,cs),
(145,316,o),
(149,325,o),
(156,341,cs),
(158,345,o),
(159,346,o),
(161,346,cs),
(163,346,o),
(163,346,o),
(165,341,cs),
(210,209,o),
(243,102,o),
(258,43,cs),
(266,2,o),
(261,11,o),
(246,10,cs),
(238,10,o),
(234,6,o),
(234,1,cs),
(234,-3,o),
(238,-6,o),
(244,-6,cs),
(254,-5,o),
(267,-1,o),
(287,0,cs),
(313,0,ls),
(333,-1,o),
(346,-3,o),
(356,-1,cs),
(362,0,o),
(366,3,o),
(365,7,cs),
(364,12,o),
(360,15,o),
(352,14,cs),
(337,12,o),
(332,2,o),
(318,41,cs),
(297,99,o),
(261,207,o),
(194,410,cs),
(191,419,o),
(194,428,o),
(196,434,cs),
(220,495,o),
(250,568,o),
(284,644,cs),
(295,673,o),
(305,690,o),
(320,690,c),
(324,691,o),
(326,690,o),
(330,690,cs),
(334,690,o),
(337,692,o),
(337,696,cs),
(337,701,o),
(332,704,o),
(326,704,cs),
(317,703,o),
(309,700,o),
(275,699,c),
(283,698,ls),
(241,701,o),
(234,704,o),
(226,704,cs),
(220,704,o),
(216,701,o),
(216,696,cs),
(216,690,o),
(220,687,o),
(226,687,cs),
(245,687,o),
(254,703,o),
(238,647,cs),
(211,557,o),
(172,438,o),
(141,355,cs),
(139,350,o),
(137,343,o),
(132,343,cs),
(128,343,o),
(126,348,o),
(126,356,cs),
(126,457,o),
(123,581,o),
(126,655,cs),
(129,697,o),
(134,688,o),
(149,687,cs),
(157,686,o),
(161,690,o),
(162,695,cs),
(162,699,o),
(158,702,o),
(152,702,cs),
(142,703,o),
(129,700,o),
(109,699,cs),
(105,699,o),
(100,699,o),
(97,699,cs),
(86,699,ls),
(52,701,o),
(48,703,o),
(38,703,c),
(33,702,o),
(29,700,o),
(29,695,cs),
(30,689,o),
(34,685,o),
(43,686,cs),
(60,687,o),
(66,701,o),
(69,645,cs),
(73,558,o),
(76,434,o),
(77,331,cs),
(78,232,o),
(78,150,o),
(76,55,cs),
(74,-1,o),
(67,13,o),
(50,12,cs),
(41,12,o),
(37,8,o),
(37,2,cs),
(37,-3,o),
(41,-5,o),
(46,-5,cs),
(56,-5,o),
(60,0,o),
(94,1,cs),
(98,1,o),
(101,1,o),
(105,1,cs),
(116,1,ls),
(136,0,o),
(149,-4,o),
(159,-4,cs),
(165,-4,o),
(169,-1,o),
(169,3,cs),
(169,8,o),
(165,12,o),
(157,12,cs),
(142,12,o),
(136,3,o),
(133,45,cs),
(129,107,o),
(126,188,o),
(128,261,cs)
);
},
{
ref = H;
}
);
};
hints = (
{
name = _corner.LeftSerifS;
origin = (0,13);
scale = (1,-1);
type = Corner;
},
{
name = _corner.LeftSerifL;
options = 1;
origin = (0,14);
type = Corner;
},
{
name = _corner.LeftSerifS;
options = 1;
origin = (0,24);
type = Corner;
},
{
name = _corner.LeftSerifL;
origin = (0,23);
scale = (-1,1);
type = Corner;
},
{
name = _corner.LeftSerifS;
options = 1;
origin = (1,0);
scale = (-1,1);
type = Corner;
},
{
name = _corner.LeftSerifL;
options = 2;
origin = (1,1);
type = Corner;
},
{
name = _corner.LeftSerifL;
origin = (1,2);
scale = (-1,1);
type = Corner;
},
{
name = _corner.LeftSerifS;
options = 1;
origin = (1,3);
type = Corner;
},
{
name = _segment.curve.capheight.inner;
origin = (1,0);
type = Segment;
},
{
name = _segment.curve.capheight.outer;
origin = (1,2);
type = Segment;
}
);
layerId = "E90CB4AC-57A0-471F-8BE8-62353EBF3E9C";
name = "21 Dec 22 at 16:54";
shapes = (
{
closed = 1;
nodes = (
(126,257,l),
(126,268,o),
(130,276,o),
(132,282,cs),
(156,341,ls),
(158,345,o),
(159,346,o),
(161,346,cs),
(163,346,o),
(163,346,o),
(165,341,cs),
(207,209,o),
(243,102,o),
(268,0,c),
(338,0,l),
(299,99,o),
(262,211,o),
(194,417,cs),
(192,423,o),
(194,429,o),
(198,439,cs),
(220,495,o),
(246,568,o),
(301,700,c),
(251,700,l),
(211,557,o),
(170,431,o),
(136,340,cs),
(135,337,o),
(133,334,o),
(130,334,cs),
(125,334,o),
(126,340,o),
(126,348,c),
(97,356,l),
(98,257,l)
);
},
{
closed = 1;
nodes = (
(130,700,l,{
GSSegment = {
name = _segment.curve.capheight.inner;
};
}),
(66,700,l),
(66,0,l,{
GSSegment = {
name = _segment.curve.capheight.outer;
};
}),
(130,0,l)
);
}
);
width = 374;
},
{
associatedMasterId = m002;
layerId = "33BFE472-6ED3-4CB0-9E9C-755148FF5FBB";
width = 600;
},
{
associatedMasterId = m002;
layerId = "D61A9BE1-0267-4C58-8882-C8555D28DDA8";
width = 600;
},
{
anchors = (
{
name = bottom;
pos = (406,0);
},
{
name = top;
pos = (406,700);
}
);
background = {
shapes = (
{
pos = (3,0);
ref = H;
}
);
};
hints = (
{
name = _corner.LeftSerifS;
origin = (0,35);
scale = (1,-1);
type = Corner;
},
{
name = _corner.LeftSerifL;
options = 1;
origin = (0,0);
type = Corner;
},
{
name = _corner.LeftSerifS;
options = 1;
origin = (0,10);
type = Corner;
},
{
name = _corner.LeftSerifL;
origin = (0,9);
scale = (-1,1);
type = Corner;
},
{
name = _corner.LeftSerifS;
origin = (1,1);
scale = (-1,1);
type = Corner;
},
{
name = _corner.LeftSerifL;
options = 2;
origin = (1,2);
type = Corner;
},
{
name = _corner.LeftSerifL;
origin = (1,3);
scale = (-1,1);
type = Corner;
},
{
name = _corner.LeftSerifS;
options = 1;
origin = (1,0);
type = Corner;
},
{
name = _segment.curve.capheight.inner;
origin = (1,1);
type = Segment;
},
{
name = _segment.curve.capheight.outer;
origin = (1,3);
type = Segment;
}
);
layerId = m002;
shapes = (
{
closed = 1;
nodes = (
(703,0,l),
(593,138,o),
(486,277,o),
(382,417,cs),
(371,432,o),
(373,444,o),
(391,459,cs),
(484,540,o),
(578,621,o),
(673,700,c),
(591,700,l),
(475,585,o),
(359,471,o),
(239,358,cs),
(226,345,o),
(219,342,o),
(214,342,cs),
(207,342,o),
(204,347,o),
(204,368,c),
(170,368,l),
(170,207,l),
(204,207,l),
(204,259,o),
(209,305,o),
(234,326,cs),
(306,388,ls),
(313,394,o),
(317,396,o),
(320,396,cs),
(325,396,o),
(329,391,o),
(336,382,cs),
(434,256,o),
(529,128,o),
(621,0,c)
);
},
{
closed = 1;
nodes = (
(208,0,l),
(208,700,l),
(138,700,l),
(138,0,l)
);
}
);
width = 811;
},
{
associatedMasterId = m002;
background = {
shapes = (
{
closed = 1;
nodes = (
(109,269,o),
(111,278,o),
(113,284,cs),
(126,316,o),
(130,325,o),
(137,341,cs),
(139,345,o),
(140,346,o),
(142,346,cs),
(144,346,o),
(144,346,o),
(146,341,cs),
(191,209,o),
(224,102,o),
(239,43,cs),
(247,2,o),
(242,11,o),
(227,10,cs),
(219,10,o),
(215,6,o),
(215,1,cs),
(215,-3,o),
(219,-6,o),
(225,-6,cs),
(235,-5,o),
(248,-1,o),
(268,0,cs),
(294,0,ls),
(314,-1,o),
(327,-3,o),
(337,-1,cs),
(343,0,o),
(347,3,o),
(346,7,cs),
(345,12,o),
(341,15,o),
(333,14,cs),
(318,12,o),
(313,2,o),
(299,41,cs),
(278,99,o),
(242,207,o),
(175,410,cs),
(172,419,o),
(175,428,o),
(177,434,cs),
(201,495,o),
(231,568,o),
(265,644,cs),
(276,673,o),
(286,690,o),
(301,690,c),
(305,691,o),
(307,690,o),
(311,690,cs),
(315,690,o),
(318,692,o),
(318,696,cs),
(318,701,o),
(313,704,o),
(307,704,cs),
(298,703,o),
(290,700,o),
(256,699,c),
(264,698,ls),
(222,701,o),
(215,704,o),
(207,704,cs),
(201,704,o),
(197,701,o),
(197,696,cs),
(197,690,o),
(201,687,o),
(207,687,cs),
(226,687,o),
(235,703,o),
(219,647,cs),
(192,557,o),
(153,438,o),
(122,355,cs),
(120,350,o),
(118,343,o),
(113,343,cs),
(109,343,o),
(107,348,o),
(107,356,cs),
(107,457,o),
(104,581,o),
(107,655,cs),
(110,697,o),
(115,688,o),
(130,687,cs),
(138,686,o),
(142,690,o),
(143,695,cs),
(143,699,o),
(139,702,o),
(133,702,cs),
(123,703,o),
(110,700,o),
(90,699,cs),
(86,699,o),
(81,699,o),
(78,699,cs),
(67,699,ls),
(33,701,o),
(29,703,o),
(19,703,c),
(14,702,o),
(10,700,o),
(10,695,cs),
(11,689,o),
(15,685,o),
(24,686,cs),
(41,687,o),
(47,701,o),
(50,645,cs),
(54,558,o),
(57,434,o),
(58,331,cs),
(59,232,o),
(59,150,o),
(57,55,cs),
(55,-1,o),
(48,13,o),
(31,12,cs),
(22,12,o),
(18,8,o),
(18,2,cs),
(18,-3,o),
(22,-5,o),
(27,-5,cs),
(37,-5,o),
(41,0,o),
(75,1,cs),
(79,1,o),
(82,1,o),
(86,1,cs),
(97,1,ls),
(117,0,o),
(130,-4,o),
(140,-4,cs),
(146,-4,o),
(150,-1,o),
(150,3,cs),
(150,8,o),
(146,12,o),
(138,12,cs),
(123,12,o),
(117,3,o),
(114,45,cs),
(110,107,o),
(107,188,o),
(109,261,cs)
);
}
);
};
hints = (
{
name = _corner.LeftSerifS;
origin = (0,13);
scale = (1,-1);
type = Corner;
},
{
name = _corner.LeftSerifL;
options = 1;
origin = (0,14);
type = Corner;
},
{
name = _corner.LeftSerifS;
options = 1;
origin = (0,24);
type = Corner;
},
{
name = _corner.LeftSerifL;
origin = (0,23);
scale = (-1,1);
type = Corner;
},
{
name = _corner.LeftSerifS;
options = 1;
origin = (1,0);
scale = (-1,1);
type = Corner;
},
{
name = _corner.LeftSerifL;
options = 2;
origin = (1,1);
type = Corner;
},
{
name = _corner.LeftSerifL;
origin = (1,2);
scale = (-1,1);
type = Corner;
},
{
name = _corner.LeftSerifS;
options = 1;
origin = (1,3);
type = Corner;
},
{
name = _segment.curve.capheight.inner;
origin = (1,0);
type = Segment;
},
{
name = _segment.curve.capheight.outer;
origin = (1,2);
type = Segment;
}
);
layerId = "6410B8CC-62EF-43B7-A4BA-7B63B909C5E1";
name = "18 Dec 22 at 02:44";
shapes = (
{
closed = 1;
nodes = (
(107,253,l),
(107,264,o),
(111,274,o),
(113,280,cs),
(137,341,ls),
(139,345,o),
(140,346,o),
(142,346,cs),
(144,346,o),
(144,346,o),
(146,341,cs),
(191,209,o),
(224,102,o),
(247,0,c),
(314,0,l),
(278,99,o),
(242,207,o),
(175,410,cs),
(172,419,o),
(173,425,o),
(177,434,cs),
(201,495,o),
(231,568,o),
(287,700,c),
(234,700,l),
(192,557,o),
(153,438,o),
(122,355,cs),
(120,350,o),
(118,343,o),
(113,343,cs),
(109,343,o),
(107,348,o),
(107,356,c),
(78,356,l),
(79,257,l)
);
},
{
closed = 1;
nodes = (
(111,700,l,{
GSSegment = {
name = _segment.curve.capheight.inner;
};
}),
(47,700,l),
(47,0,l,{
GSSegment = {
name = _segment.curve.capheight.outer;
};
}),
(111,0,l)
);
}
);
width = 600;
},
{
associatedMasterId = m002;
background = {
shapes = (
{
closed = 1;
nodes = (
(128,269,o),
(130,278,o),
(132,284,cs),
(145,316,o),
(149,325,o),
(156,341,cs),
(158,345,o),
(159,346,o),
(161,346,cs),
(163,346,o),
(163,346,o),
(165,341,cs),
(210,209,o),
(243,102,o),
(258,43,cs),
(266,2,o),
(261,11,o),
(246,10,cs),
(238,10,o),
(234,6,o),
(234,1,cs),
(234,-3,o),
(238,-6,o),
(244,-6,cs),
(254,-5,o),
(267,-1,o),
(287,0,cs),
(313,0,ls),
(333,-1,o),
(346,-3,o),
(356,-1,cs),
(362,0,o),
(366,3,o),
(365,7,cs),
(364,12,o),
(360,15,o),
(352,14,cs),
(337,12,o),
(332,2,o),
(318,41,cs),
(297,99,o),
(261,207,o),
(194,410,cs),
(191,419,o),
(194,428,o),
(196,434,cs),
(220,495,o),
(250,568,o),
(284,644,cs),
(295,673,o),
(305,690,o),
(320,690,c),
(324,691,o),
(326,690,o),
(330,690,cs),
(334,690,o),
(337,692,o),
(337,696,cs),
(337,701,o),
(332,704,o),
(326,704,cs),
(317,703,o),
(309,700,o),
(275,699,c),
(283,698,ls),
(241,701,o),
(234,704,o),
(226,704,cs),
(220,704,o),
(216,701,o),
(216,696,cs),
(216,690,o),
(220,687,o),
(226,687,cs),
(245,687,o),
(254,703,o),
(238,647,cs),
(211,557,o),
(172,438,o),
(141,355,cs),
(139,350,o),
(137,343,o),
(132,343,cs),
(128,343,o),
(126,348,o),
(126,356,cs),
(126,457,o),
(123,581,o),
(126,655,cs),
(129,697,o),
(134,688,o),
(149,687,cs),
(157,686,o),
(161,690,o),
(162,695,cs),
(162,699,o),
(158,702,o),
(152,702,cs),
(142,703,o),
(129,700,o),
(109,699,cs),
(105,699,o),
(100,699,o),
(97,699,cs),
(86,699,ls),
(52,701,o),
(48,703,o),
(38,703,c),
(33,702,o),
(29,700,o),
(29,695,cs),
(30,689,o),
(34,685,o),
(43,686,cs),
(60,687,o),
(66,701,o),
(69,645,cs),
(73,558,o),
(76,434,o),
(77,331,cs),
(78,232,o),
(78,150,o),
(76,55,cs),
(74,-1,o),
(67,13,o),
(50,12,cs),
(41,12,o),
(37,8,o),
(37,2,cs),
(37,-3,o),
(41,-5,o),
(46,-5,cs),
(56,-5,o),
(60,0,o),
(94,1,cs),
(98,1,o),
(101,1,o),
(105,1,cs),
(116,1,ls),
(136,0,o),
(149,-4,o),
(159,-4,cs),
(165,-4,o),
(169,-1,o),
(169,3,cs),
(169,8,o),
(165,12,o),
(157,12,cs),
(142,12,o),
(136,3,o),
(133,45,cs),
(129,107,o),
(126,188,o),
(128,261,cs)
);
},
{
ref = H;
}
);
};
hints = (
{
name = _corner.LeftSerifS;
origin = (0,13);
scale = (1,-1);
type = Corner;
},
{
name = _corner.LeftSerifL;
options = 1;
origin = (0,14);
type = Corner;
},
{
name = _corner.LeftSerifS;
options = 1;
origin = (0,24);
type = Corner;
},
{
name = _corner.LeftSerifL;
origin = (0,23);
scale = (-1,1);
type = Corner;
},
{
name = _corner.LeftSerifS;
options = 1;
origin = (1,0);
scale = (-1,1);
type = Corner;
},
{
name = _corner.LeftSerifL;
options = 2;
origin = (1,1);
type = Corner;
},
{
name = _corner.LeftSerifL;
origin = (1,2);
scale = (-1,1);
type = Corner;
},
{
name = _corner.LeftSerifS;
options = 1;
origin = (1,3);
type = Corner;
},
{
name = _segment.curve.capheight.inner;
origin = (1,0);
type = Segment;
},
{
name = _segment.curve.capheight.outer;
origin = (1,2);
type = Segment;
}
);
layerId = "2BD49E2A-BC3E-4618-8066-76A88A0DD2EA";
name = "21 Dec 22 at 16:54";
shapes = (
{
closed = 1;
nodes = (
(126,257,l),
(126,268,o),
(130,276,o),
(132,282,cs),
(156,341,ls),
(158,345,o),
(159,346,o),
(161,346,cs),
(163,346,o),
(163,346,o),
(165,341,cs),
(207,209,o),
(243,102,o),
(268,0,c),
(338,0,l),
(299,99,o),
(262,211,o),
(194,417,cs),
(192,423,o),
(194,429,o),
(198,439,cs),
(220,495,o),
(246,568,o),
(301,700,c),
(251,700,l),
(211,557,o),
(170,431,o),
(136,340,cs),
(135,337,o),
(133,334,o),
(130,334,cs),
(125,334,o),
(126,340,o),
(126,348,c),
(97,356,l),
(98,257,l)
);
},
{
closed = 1;
nodes = (
(130,700,l,{
GSSegment = {
name = _segment.curve.capheight.inner;
};
}),
(66,700,l),
(66,0,l,{
GSSegment = {
name = _segment.curve.capheight.outer;
};
}),
(130,0,l)
);
}
);
width = 374;
},
{
associatedMasterId = m003;
layerId = "B2DA110A-38A4-419B-853E-D7226147048C";
width = 600;
}
);
metricLeft = H;
metricRight = V;
unicode = 75;
},
{
glyphname = L;
kernLeft = H;
kernRight = L;
lastChange = "2023-10-03 16:46:13 +0000";
layers = (
{
associatedMasterId = m003;
layerId = "B826CCEB-93D1-4672-AA88-F03DC20D1A32";
width = 600;
},
{
associatedMasterId = m003;
layerId = "E785B07C-7638-40DD-A08B-5080B4C14061";
width = 600;
},
{
anchors = (
{
name = bottom;
pos = (149,0);
},
{
name = center;
pos = (149,350);
},
{
name = top;
pos = (119,700);
},
{
name = topright;
pos = (273,700);
}
);
background = {
shapes = (
{
pos = (25,0);
ref = C;
}
);
};
hints = (
{
name = _segment.curve.capheight.inner;
origin = (0,0);
type = Segment;
},
{
name = _corner.LeftSerifL;
options = 2;
origin = (0,1);
type = Corner;
},
{
name = _corner.LeftSerifL;
origin = (0,2);
scale = (-1,1);
type = Corner;
},
{
name = _corner.LeftSerifL;
origin = (0,0);
scale = (-1.3,1);
type = Corner;
},
{
name = _segment.curve.capheight.outer;
origin = (0,2);
type = Segment;
}
);
layerId = m003;
shapes = (
{
closed = 1;
nodes = (
(135,700,l,{
GSSegment = {
name = _segment.curve.capheight.inner;
};
}),
(71,700,l),
(71,0,l,{
GSSegment = {
name = _segment.curve.capheight.outer;
};
}),
(135,0,l)
);
},
{
closed = 1;
nodes = (
(285,-6,o),
(289,-3,o),
(288,5,cs),
(286,20,o),
(281,40,o),
(281,80,cs),
(281,144,o),
(286,175,o),
(288,208,cs),
(289,217,o),
(285,220,o),
(280,220,cs),
(275,220,o),
(272,215,o),
(272,208,cs),
(272,34,o),
(255,13,o),
(152,13,cs),
(136,13,o),
(133,24,o),
(133,45,c),
(124,45,l),
(124,0,l),
(262,0,o),
(270,-6,o),
(280,-6,cs)
);
}
);
width = 293;
},
{
associatedMasterId = m003;
hints = (
{
name = _segment.curve.capheight.inner;
origin = (0,0);
type = Segment;
},
{
name = _corner.LeftSerifL;
options = 2;
origin = (0,1);
type = Corner;
},
{
name = _corner.LeftSerifL;
origin = (0,2);
scale = (-1,1);
type = Corner;
},
{
name = _corner.LeftSerifL;
origin = (0,0);
scale = (-1,1);
type = Corner;
},
{
name = _segment.curve.capheight.outer;
origin = (0,2);
type = Segment;
}
);
layerId = "EA39D2F3-E578-442E-B508-B62EE48E7D73";
name = "17 Dec 22 at 21:27";
shapes = (
{
closed = 1;
nodes = (
(130,700,l,{
GSSegment = {
name = _segment.curve.capheight.inner;
};
}),
(66,700,l),
(66,0,l,{
GSSegment = {
name = _segment.curve.capheight.outer;
};
}),
(130,2,l)
);
},
{
closed = 1;
nodes = (
(135,2,o),
(141,2,o),
(148,2,cs),
(214,2,o),
(254,0,o),
(258,0,cs),
(264,0,o),
(266,-1,o),
(266,-6,cs),
(266,-11,o),
(269,-14,o),
(273,-14,cs),
(277,-14,o),
(281,-11,o),
(281,-4,cs),
(281,13,o),
(270,59,o),
(270,92,cs),
(270,119,o),
(280,127,o),
(280,143,cs),
(280,152,o),
(276,159,o),
(270,159,cs),
(260,159,o),
(255,148,o),
(255,125,cs),
(255,104,o),
(261,49,o),
(261,36,cs),
(261,27,o),
(161,17,o),
(145,17,cs),
(130,17,o),
(128,16,o),
(128,41,c),
(119,55,l),
(119,2,l)
);
}
);
width = 311;
},
{
associatedMasterId = m003;
hints = (
{
name = _segment.curve.capheight.inner;
origin = (0,0);
type = Segment;
},
{
name = _corner.LeftSerifL;
options = 2;
origin = (0,1);
type = Corner;
},
{
name = _corner.LeftSerifL;
origin = (0,2);
scale = (-1,1);
type = Corner;
},
{
name = _corner.LeftSerifL;
origin = (0,0);
scale = (-1,1);
type = Corner;
},
{
name = _segment.curve.capheight.outer;
origin = (0,2);
type = Segment;
}
);
layerId = "A1C3230E-73BD-48C6-9813-25067E32AB40";
name = "19 Dec 22 at 16:35";
shapes = (
{
closed = 1;
nodes = (
(130,700,l,{
GSSegment = {
name = _segment.curve.capheight.inner;
};
}),
(66,700,l),
(66,0,l,{
GSSegment = {
name = _segment.curve.capheight.outer;
};
}),
(130,2,l)
);
},
{
closed = 1;
nodes = (
(135,2,o),
(141,2,o),
(148,2,cs),
(214,2,o),
(254,0,o),
(258,0,cs),
(264,0,o),
(266,-1,o),
(266,-6,cs),
(266,-11,o),
(269,-14,o),
(273,-14,cs),
(277,-14,o),
(281,-11,o),
(281,-4,cs),
(281,13,o),
(270,59,o),
(270,92,cs),
(270,119,o),
(280,127,o),
(280,143,cs),
(280,152,o),
(276,159,o),
(270,159,cs),
(260,159,o),
(255,148,o),
(255,125,cs),
(255,104,o),
(261,49,o),
(261,46,cs),
(261,27,o),
(161,17,o),
(145,17,cs),
(130,17,o),
(128,16,o),
(128,41,c),
(119,55,l),
(119,2,l)
);
}
);
width = 281;
},
{
associatedMasterId = m002;
layerId = "A0DE5957-013D-484A-9092-3B30C15594E1";
width = 600;
},
{
associatedMasterId = m002;
layerId = "B7631857-9690-47DA-AE85-C735291AEA9B";
width = 600;
},
{
anchors = (
{
name = bottom;
pos = (342,0);
},
{
name = center;
pos = (342,350);
},
{
name = top;
pos = (212,700);
},
{
name = topright;
pos = (663,700);
}
);
background = {
shapes = (
{
ref = E;
}
);
};
hints = (
{
name = _segment.curve.capheight.inner;
origin = (0,0);
type = Segment;
},
{
name = _corner.LeftSerifL;
options = 2;
origin = (0,1);
type = Corner;
},
{
name = _corner.LeftSerifL;
origin = (0,2);
scale = (-1,1);
type = Corner;
},
{
name = _corner.LeftSerifL;
origin = (0,0);
scale = (-1.3,1);
type = Corner;
},
{
name = _segment.curve.capheight.outer;
origin = (0,2);
type = Segment;
}
);
layerId = m002;
shapes = (
{
closed = 1;
nodes = (
(208,700,l),
(138,700,l),
(138,0,l),
(208,0,l)
);
},
{
closed = 1;
nodes = (
(657,-6,o),
(662,-3,o),
(661,5,cs),
(659,19,o),
(654,40,o),
(654,80,cs),
(654,144,o),
(659,175,o),
(661,208,cs),
(662,217,o),
(657,220,o),
(650,220,cs),
(643,220,o),
(639,216,o),
(639,208,cs),
(639,33,o),
(623,13,o),
(272,13,cs),
(208,13,o),
(206,23,o),
(206,45,c),
(191,45,l),
(191,0,l),
(630,0,o),
(638,-6,o),
(650,-6,cs)
);
}
);
width = 686;
},
{
associatedMasterId = m002;
hints = (
{
name = _segment.curve.capheight.inner;
origin = (0,0);
type = Segment;
},
{
name = _corner.LeftSerifL;
options = 2;
origin = (0,1);
type = Corner;
},
{
name = _corner.LeftSerifL;
origin = (0,2);
scale = (-1,1);
type = Corner;
},
{
name = _corner.LeftSerifL;
origin = (0,0);
scale = (-1,1);
type = Corner;
},
{
name = _segment.curve.capheight.outer;
origin = (0,2);
type = Segment;
}
);
layerId = "FCCA59F8-7664-47F8-8FFB-ADC266A4F7C5";
name = "17 Dec 22 at 21:27";
shapes = (
{
closed = 1;
nodes = (
(130,700,l,{
GSSegment = {
name = _segment.curve.capheight.inner;
};
}),
(66,700,l),
(66,0,l,{
GSSegment = {
name = _segment.curve.capheight.outer;
};
}),
(130,2,l)
);
},
{
closed = 1;
nodes = (
(135,2,o),
(141,2,o),
(148,2,cs),
(214,2,o),
(254,0,o),
(258,0,cs),
(264,0,o),
(266,-1,o),
(266,-6,cs),
(266,-11,o),
(269,-14,o),
(273,-14,cs),
(277,-14,o),
(281,-11,o),
(281,-4,cs),
(281,13,o),
(270,59,o),
(270,92,cs),
(270,119,o),
(280,127,o),
(280,143,cs),
(280,152,o),
(276,159,o),
(270,159,cs),
(260,159,o),
(255,148,o),
(255,125,cs),
(255,104,o),
(261,49,o),
(261,36,cs),
(261,27,o),
(161,17,o),
(145,17,cs),
(130,17,o),
(128,16,o),
(128,41,c),
(119,55,l),
(119,2,l)
);
}
);
width = 311;
},
{
associatedMasterId = m002;
hints = (
{
name = _segment.curve.capheight.inner;
origin = (0,0);
type = Segment;
},
{
name = _corner.LeftSerifL;
options = 2;
origin = (0,1);
type = Corner;
},
{
name = _corner.LeftSerifL;
origin = (0,2);
scale = (-1,1);
type = Corner;
},
{
name = _corner.LeftSerifL;
origin = (0,0);
scale = (-1,1);
type = Corner;
},
{
name = _segment.curve.capheight.outer;
origin = (0,2);
type = Segment;
}
);
layerId = "3AB724A5-A169-4BEB-94F8-D02054D49C76";
name = "19 Dec 22 at 16:35";
shapes = (
{
closed = 1;
nodes = (
(130,700,l,{
GSSegment = {
name = _segment.curve.capheight.inner;
};
}),
(66,700,l),
(66,0,l,{
GSSegment = {
name = _segment.curve.capheight.outer;
};
}),
(130,2,l)
);
},
{
closed = 1;
nodes = (
(135,2,o),
(141,2,o),
(148,2,cs),
(214,2,o),
(254,0,o),
(258,0,cs),
(264,0,o),
(266,-1,o),
(266,-6,cs),
(266,-11,o),
(269,-14,o),
(273,-14,cs),
(277,-14,o),
(281,-11,o),
(281,-4,cs),
(281,13,o),
(270,59,o),
(270,92,cs),
(270,119,o),
(280,127,o),
(280,143,cs),
(280,152,o),
(276,159,o),
(270,159,cs),
(260,159,o),
(255,148,o),
(255,125,cs),
(255,104,o),
(261,49,o),
(261,46,cs),
(261,27,o),
(161,17,o),
(145,17,cs),
(130,17,o),
(128,16,o),
(128,41,c),
(119,55,l),
(119,2,l)
);
}
);
width = 281;
},
{
associatedMasterId = m003;
layerId = "B2DA110A-38A4-419B-853E-D7226147048C";
width = 600;
}
);
metricLeft = H;
metricRight = "=E-10";
unicode = 76;
},
{
glyphname = M;
kernLeft = N;
kernRight = H;
lastChange = "2023-10-03 16:46:16 +0000";
layers = (
{
associatedMasterId = m003;
layerId = "B826CCEB-93D1-4672-AA88-F03DC20D1A32";
width = 600;
},
{
associatedMasterId = m003;
layerId = "E785B07C-7638-40DD-A08B-5080B4C14061";
width = 600;
},
{
anchors = (
{
name = bottom;
pos = (213,0);
},
{
name = top;
pos = (213,700);
}
);
background = {
shapes = (
{
pos = (27,0);
ref = H;
}
);
};
hints = (
{
name = _segment.curve.capheight.inner;
origin = (0,5);
type = Segment;
},
{
name = _corner.LeftSerifL;
options = 1;
origin = (0,0);
type = Corner;
},
{
name = _corner.LeftSerifS;
origin = (0,52);
scale = (-1,1);
type = Corner;
},
{
name = _corner.LeftSerifS;
options = 1;
origin = (0,40);
type = Corner;
},
{
name = _corner.LeftSerifL;
origin = (0,39);
scale = (-1,1);
type = Corner;
},
{
name = _corner.LeftSerifL;
origin = (0,5);
scale = (-1,1);
type = Corner;
},
{
name = _corner.LeftSerifS;
options = 2;
origin = (0,6);
type = Corner;
},
{
name = _corner.LeftSerifS;
options = 2;
origin = (0,37);
scale = (1,-1);
type = Corner;
},
{
name = _corner.LeftSerifL;
options = 1;
origin = (0,38);
type = Corner;
},
{
name = _segment.curve.capheight.outer;
origin = (0,39);
type = Segment;
}
);
layerId = m003;
shapes = (
{
closed = 1;
nodes = (
(56,700,l),
(69,629,ls),
(69,627,o),
(70,620,o),
(70,616,cs),
(66,0,l),
(108,0,l),
(100,205,o),
(91,390,o),
(90,521,cs),
(90,524,o),
(91,526,o),
(93,526,cs),
(95,526,o),
(96,525,o),
(97,521,cs),
(128,361,o),
(169,157,o),
(200,-9,cs),
(201,-12,o),
(203,-12,o),
(205,-12,cs),
(211,-12,ls),
(213,-12,o),
(214,-12,o),
(215,-9,c),
(261,277,o),
(273,349,o),
(302,522,cs),
(303,526,o),
(304,527,o),
(306,527,cs),
(308,527,o),
(309,525,o),
(309,522,cs),
(311,369,o),
(309,260,o),
(305,0,c),
(370,0,l),
(359,700,l),
(294,700,l),
(271,474,o),
(245,289,o),
(226,164,cs),
(225,159,o),
(224,157,o),
(222,157,cs),
(220,157,o),
(219,159,o),
(218,164,cs),
(195,293,o),
(160,469,o),
(120,700,c)
);
}
);
width = 431;
},
{
associatedMasterId = m002;
layerId = "56DA4A44-C4C3-469D-8C39-310D9D4E91F5";
width = 600;
},
{
associatedMasterId = m002;
layerId = "04D61C6D-7042-4B5A-8151-B43E1A035879";
width = 600;
},
{
anchors = (
{
name = bottom;
pos = (535,0);
},
{
name = top;
pos = (535,700);
}
);
background = {
shapes = (
{
pos = (209,0);
ref = H;
}
);
};
hints = (
{
name = _segment.curve.capheight.inner;
origin = (0,5);
type = Segment;
},
{
name = _corner.LeftSerifL;
options = 1;
origin = (0,0);
scale = (0.8,1);
type = Corner;
},
{
name = _corner.LeftSerifS;
origin = (0,52);
scale = (-1,1);
type = Corner;
},
{
name = _corner.LeftSerifS;
options = 1;
origin = (0,40);
type = Corner;
},
{
name = _corner.LeftSerifL;
origin = (0,39);
scale = (-1,1);
type = Corner;
},
{
name = _corner.LeftSerifL;
origin = (0,5);
scale = (-1,1);
type = Corner;
},
{
name = _corner.LeftSerifS;
options = 2;
origin = (0,6);
type = Corner;
},
{
name = _corner.LeftSerifS;
options = 2;
origin = (0,37);
scale = (1,-1);
type = Corner;
},
{
name = _corner.LeftSerifL;
options = 1;
origin = (0,38);
type = Corner;
},
{
name = _segment.curve.capheight.outer;
origin = (0,39);
type = Segment;
}
);
layerId = m002;
shapes = (
{
closed = 1;
nodes = (
(105,700,l),
(145,624,l),
(146,623,o),
(149,617,o),
(149,616,cs),
(123,0,l),
(188,0,l),
(180,184,o),
(175,367,o),
(172,551,cs),
(172,569,o),
(172,581,o),
(176,581,cs),
(179,581,o),
(192,561,o),
(201,544,cs),
(310,364,o),
(418,182,o),
(525,-2,cs),
(532,-13,o),
(534,-12,o),
(539,-12,cs),
(540,-12,ls),
(546,-12,o),
(547,-13,o),
(554,-1,cs),
(658,191,o),
(758,384,o),
(862,572,cs),
(870,587,o),
(875,593,o),
(877,593,cs),
(879,593,o),
(881,589,o),
(881,564,cs),
(879,380,o),
(881,187,o),
(879,0,c),
(948,0,l),
(944,700,l),
(873,700,l),
(779,499,o),
(683,300,o),
(584,101,cs),
(577,85,o),
(569,72,o),
(564,72,cs),
(562,72,o),
(558,74,o),
(550,88,cs),
(430,286,o),
(306,493,o),
(185,700,c)
);
}
);
width = 1076;
},
{
associatedMasterId = m003;
layerId = "B2DA110A-38A4-419B-853E-D7226147048C";
width = 600;
}
);
metricLeft = N;
metricRight = "=N-10";
unicode = 77;
},
{
glyphname = N;
kernLeft = N;
kernRight = H;
lastChange = "2023-10-03 16:46:13 +0000";
layers = (
{
associatedMasterId = m003;
layerId = "B826CCEB-93D1-4672-AA88-F03DC20D1A32";
width = 600;
},
{
associatedMasterId = m003;
layerId = "E785B07C-7638-40DD-A08B-5080B4C14061";
width = 600;
},
{
anchors = (
{
name = bottom;
pos = (188,0);
},
{
name = top;
pos = (188,700);
}
);
background = {
shapes = (
{
closed = 1;
nodes = (
(113,0,l),
(102,216,o),
(101,381,o),
(99,528,cs),
(99,532,o),
(100,534,o),
(103,534,cs),
(104,534,o),
(106,533,o),
(107,529,cs),
(151,377,o),
(194,220,o),
(254,0,c),
(305,0,l),
(295,140,o),
(297,560,o),
(309,700,c),
(264,700,l),
(274,520,o),
(279,283,o),
(283,118,cs),
(283,113,o),
(283,111,o),
(280,111,cs),
(278,111,o),
(277,115,o),
(276,118,cs),
(198,400,o),
(156,548,o),
(118,700,c),
(56,700,l),
(80,608,l),
(86,567,o),
(78,40,o),
(72,0,c)
);
}
);
};
hints = (
{
name = _corner.LeftSerifL;
options = 1;
origin = (0,30);
type = Corner;
},
{
name = _corner.LeftSerifS;
options = 1;
origin = (0,0);
type = Corner;
},
{
name = _corner.LeftSerifS;
origin = (0,29);
scale = (0.8,-1);
type = Corner;
},
{
name = _corner.LeftSerifL;
options = 1;
origin = (0,13);
type = Corner;
},
{
name = _corner.LeftSerifS;
origin = (0,12);
scale = (0.8,-1);
type = Corner;
},
{
name = _corner.LeftSerifS;
options = 1;
origin = (0,17);
type = Corner;
},
{
name = _corner.LeftSerifL;
origin = (0,37);
scale = (1,-1);
type = Corner;
},
{
name = _corner.LeftSerifL;
origin = (0,16);
scale = (1,-1);
type = Corner;
}
);
layerId = m003;
shapes = (
{
closed = 1;
nodes = (
(113,0,l),
(102,216,o),
(101,381,o),
(99,528,cs),
(99,532,o),
(100,534,o),
(103,534,cs),
(104,534,o),
(106,533,o),
(107,529,cs),
(151,377,o),
(194,220,o),
(254,0,c),
(305,0,l),
(295,140,o),
(297,560,o),
(309,700,c),
(264,700,l),
(274,520,o),
(279,283,o),
(283,118,cs),
(283,113,o),
(283,111,o),
(280,111,cs),
(278,111,o),
(277,115,o),
(276,118,cs),
(198,400,o),
(156,548,o),
(118,700,c),
(56,700,l),
(79,613,ls),
(80,610,o),
(81,605,o),
(81,602,cs),
(81,533,o),
(78,39,o),
(72,0,c)
);
}
);
width = 380;
},
{
associatedMasterId = m003;
background = {
shapes = (
{
closed = 1;
nodes = (
(298,0,ls),
(318,0,o),
(331,-4,o),
(341,-4,cs),
(347,-4,o),
(351,-1,o),
(351,3,cs),
(351,8,o),
(347,12,o),
(339,12,cs),
(324,12,o),
(318,3,o),
(317,45,cs),
(315,209,o),
(315,420,o),
(319,645,cs),
(320,701,o),
(327,687,o),
(344,687,cs),
(353,687,o),
(357,691,o),
(357,697,cs),
(357,702,o),
(353,704,o),
(348,704,cs),
(338,704,o),
(334,700,o),
(300,700,cs),
(298,700,ls),
(278,700,o),
(265,703,o),
(255,703,c),
(249,702,o),
(245,699,o),
(245,695,cs),
(246,690,o),
(250,686,o),
(258,687,cs),
(273,688,o),
(278,697,o),
(281,655,cs),
(288,520,o),
(295,283,o),
(299,118,cs),
(299,113,o),
(299,111,o),
(296,111,cs),
(294,111,o),
(293,115,o),
(292,118,cs),
(238,308,o),
(199,435,o),
(161,587,cs),
(155,609,o),
(150,632,o),
(144,656,cs),
(136,697,o),
(141,688,o),
(156,689,cs),
(164,689,o),
(168,693,o),
(168,698,cs),
(168,702,o),
(164,705,o),
(158,705,cs),
(148,705,o),
(135,700,o),
(115,699,cs),
(86,699,ls),
(66,700,o),
(53,702,o),
(43,701,cs),
(37,701,o),
(33,697,o),
(34,693,c),
(34,688,o),
(39,685,o),
(47,686,cs),
(61,687,o),
(67,697,o),
(79,657,cs),
(93,609,ls),
(94,605,o),
(94,599,o),
(94,594,cs),
(98,419,o),
(102,202,o),
(99,55,cs),
(98,-1,o),
(90,13,o),
(72,13,cs),
(62,13,o),
(57,9,o),
(57,3,cs),
(57,-2,o),
(62,-4,o),
(67,-4,cs),
(77,-4,o),
(83,0,o),
(115,0,cs),
(152,0,o),
(158,-4,o),
(166,-4,cs),
(172,-4,o),
(176,-1,o),
(176,4,cs),
(176,10,o),
(172,13,o),
(166,13,cs),
(147,13,o),
(139,-3,o),
(135,55,cs),
(124,216,o),
(119,381,o),
(113,529,cs),
(113,532,o),
(113,534,o),
(116,534,cs),
(117,534,o),
(118,533,o),
(119,529,cs),
(161,377,o),
(208,220,o),
(252,53,cs),
(267,-3,o),
(258,13,o),
(239,13,cs),
(233,13,o),
(229,10,o),
(229,4,cs),
(229,-1,o),
(233,-4,o),
(239,-4,cs),
(247,-4,o),
(254,0,o),
(296,0,cs)
);
}
);
};
hints = (
{
name = _corner.LeftSerifL;
options = 1;
origin = (0,15);
type = Corner;
},
{
name = _corner.LeftSerifL;
origin = (0,22);
scale = (1,-1);
type = Corner;
},
{
name = _corner.LeftSerifS;
options = 1;
origin = (0,23);
type = Corner;
},
{
name = _corner.LeftSerifL;
origin = (0,14);
scale = (1,-1);
type = Corner;
},
{
name = _corner.LeftSerifL;
origin = (0,0);
type = Corner;
},
{
name = _corner.LeftSerifS;
origin = (0,35);
scale = (1,-1);
type = Corner;
},
{
name = _corner.LeftSerifL;
origin = (0,2);
type = Corner;
},
{
name = _corner.LeftSerifL;
options = 2;
origin = (0,1);
scale = (-1,1);
type = Corner;
},
{
name = _segment.curve.capheight.outer;
origin = (0,1);
type = Segment;
}
);
layerId = "1D8F4606-0748-4506-8585-2D84127B5729";
name = "17 Dec 22 at 21:59";
shapes = (
{
closed = 1;
nodes = (
(318,0,l),
(320,700,l),
(278,700,l),
(288,520,o),
(292,283,o),
(296,118,cs),
(296,113,o),
(296,111,o),
(293,111,cs),
(291,111,o),
(290,115,o),
(289,118,cs),
(210,401,o),
(201,435,o),
(133,700,c),
(66,700,l),
(93,609,ls),
(94,605,o),
(94,599,o),
(94,594,cs),
(98,419,o),
(102,202,o),
(98,0,c),
(139,0,l),
(124,216,o),
(119,381,o),
(113,529,cs),
(113,532,o),
(113,534,o),
(116,534,cs),
(117,534,o),
(118,533,o),
(119,529,cs),
(161,377,o),
(207,220,o),
(267,0,c)
);
}
);
width = 639;
},
{
associatedMasterId = m002;
layerId = "3F671AFE-DA39-4DFE-A6E9-EEE17B629167";
width = 600;
},
{
associatedMasterId = m002;
layerId = "2890ABE9-AC5A-48CB-9A1B-912C675B72FA";
width = 600;
},
{
anchors = (
{
name = bottom;
pos = (493,0);
},
{
name = top;
pos = (493,700);
}
);
background = {
shapes = (
{
closed = 1;
nodes = (
(260,0,l),
(219,216,o),
(223,444,o),
(219,542,cs),
(218,568,o),
(216,583,o),
(228,583,cs),
(234,583,o),
(239,576,o),
(251,561,cs),
(344,440,o),
(500,228,o),
(671,0,c),
(722,0,l),
(712,140,o),
(714,560,o),
(736,700,c),
(651,700,l),
(691,520,o),
(696,263,o),
(699,148,cs),
(700,118,o),
(698,108,o),
(690,108,cs),
(682,108,o),
(676,115,o),
(665,129,cs),
(462,390,o),
(350,548,o),
(235,700,c),
(139,700,l),
(197,627,l),
(203,606,o),
(195,40,o),
(179,0,c)
);
},
{
pos = (43,0);
ref = V;
}
);
};
hints = (
{
name = _corner.LeftSerifS;
options = 1;
origin = (0,0);
type = Corner;
},
{
name = _corner.LeftSerifS;
origin = (0,12);
scale = (0.8,-1);
type = Corner;
},
{
name = _corner.LeftSerifL;
options = 1;
origin = (0,13);
type = Corner;
},
{
name = _corner.LeftSerifL;
origin = (0,16);
scale = (1,-1);
type = Corner;
},
{
name = _corner.LeftSerifS;
options = 1;
origin = (0,17);
type = Corner;
},
{
name = _corner.LeftSerifS;
origin = (0,29);
scale = (0.8,-1);
type = Corner;
},
{
name = _corner.LeftSerifL;
options = 1;
origin = (0,30);
type = Corner;
},
{
name = _corner.LeftSerifL;
origin = (0,37);
scale = (1,-1);
type = Corner;
}
);
layerId = m002;
shapes = (
{
closed = 1;
nodes = (
(250,0,l),
(222,226,o),
(224,444,o),
(220,542,cs),
(219,567,o),
(220,583,o),
(228,583,cs),
(231,583,o),
(237,576,o),
(251,561,cs),
(434,374,o),
(617,187,o),
(800,0,c),
(825,0,l),
(815,140,o),
(821,560,o),
(848,700,c),
(771,700,l),
(802,520,o),
(793,263,o),
(796,148,cs),
(797,118,o),
(794,108,o),
(788,108,cs),
(781,108,o),
(775,115,o),
(762,129,cs),
(576,318,o),
(390,509,o),
(202,700,c),
(123,700,l),
(189,633,ls),
(192,630,o),
(195,626,o),
(195,619,cs),
(199,546,o),
(191,37,o),
(173,0,c)
);
}
);
width = 986;
},
{
associatedMasterId = m002;
background = {
shapes = (
{
closed = 1;
nodes = (
(298,0,ls),
(318,0,o),
(331,-4,o),
(341,-4,cs),
(347,-4,o),
(351,-1,o),
(351,3,cs),
(351,8,o),
(347,12,o),
(339,12,cs),
(324,12,o),
(318,3,o),
(317,45,cs),
(315,209,o),
(315,420,o),
(319,645,cs),
(320,701,o),
(327,687,o),
(344,687,cs),
(353,687,o),
(357,691,o),
(357,697,cs),
(357,702,o),
(353,704,o),
(348,704,cs),
(338,704,o),
(334,700,o),
(300,700,cs),
(298,700,ls),
(278,700,o),
(265,703,o),
(255,703,c),
(249,702,o),
(245,699,o),
(245,695,cs),
(246,690,o),
(250,686,o),
(258,687,cs),
(273,688,o),
(278,697,o),
(281,655,cs),
(288,520,o),
(295,283,o),
(299,118,cs),
(299,113,o),
(299,111,o),
(296,111,cs),
(294,111,o),
(293,115,o),
(292,118,cs),
(238,308,o),
(199,435,o),
(161,587,cs),
(155,609,o),
(150,632,o),
(144,656,cs),
(136,697,o),
(141,688,o),
(156,689,cs),
(164,689,o),
(168,693,o),
(168,698,cs),
(168,702,o),
(164,705,o),
(158,705,cs),
(148,705,o),
(135,700,o),
(115,699,cs),
(86,699,ls),
(66,700,o),
(53,702,o),
(43,701,cs),
(37,701,o),
(33,697,o),
(34,693,c),
(34,688,o),
(39,685,o),
(47,686,cs),
(61,687,o),
(67,697,o),
(79,657,cs),
(93,609,ls),
(94,605,o),
(94,599,o),
(94,594,cs),
(98,419,o),
(102,202,o),
(99,55,cs),
(98,-1,o),
(90,13,o),
(72,13,cs),
(62,13,o),
(57,9,o),
(57,3,cs),
(57,-2,o),
(62,-4,o),
(67,-4,cs),
(77,-4,o),
(83,0,o),
(115,0,cs),
(152,0,o),
(158,-4,o),
(166,-4,cs),
(172,-4,o),
(176,-1,o),
(176,4,cs),
(176,10,o),
(172,13,o),
(166,13,cs),
(147,13,o),
(139,-3,o),
(135,55,cs),
(124,216,o),
(119,381,o),
(113,529,cs),
(113,532,o),
(113,534,o),
(116,534,cs),
(117,534,o),
(118,533,o),
(119,529,cs),
(161,377,o),
(208,220,o),
(252,53,cs),
(267,-3,o),
(258,13,o),
(239,13,cs),
(233,13,o),
(229,10,o),
(229,4,cs),
(229,-1,o),
(233,-4,o),
(239,-4,cs),
(247,-4,o),
(254,0,o),
(296,0,cs)
);
}
);
};
hints = (
{
name = _corner.LeftSerifL;
options = 1;
origin = (0,15);
type = Corner;
},
{
name = _corner.LeftSerifL;
origin = (0,22);
scale = (1,-1);
type = Corner;
},
{
name = _corner.LeftSerifS;
options = 1;
origin = (0,23);
type = Corner;
},
{
name = _corner.LeftSerifL;
origin = (0,14);
scale = (1,-1);
type = Corner;
},
{
name = _corner.LeftSerifL;
origin = (0,0);
type = Corner;
},
{
name = _corner.LeftSerifS;
origin = (0,35);
scale = (1,-1);
type = Corner;
},
{
name = _corner.LeftSerifL;
origin = (0,2);
type = Corner;
},
{
name = _corner.LeftSerifL;
options = 2;
origin = (0,1);
scale = (-1,1);
type = Corner;
},
{
name = _segment.curve.capheight.outer;
origin = (0,1);
type = Segment;
}
);
layerId = "6B9CF0B7-3B68-4834-B36F-7121C17C776D";
name = "17 Dec 22 at 21:59";
shapes = (
{
closed = 1;
nodes = (
(318,0,l),
(320,700,l),
(278,700,l),
(288,520,o),
(292,283,o),
(296,118,cs),
(296,113,o),
(296,111,o),
(293,111,cs),
(291,111,o),
(290,115,o),
(289,118,cs),
(210,401,o),
(201,435,o),
(133,700,c),
(66,700,l),
(93,609,ls),
(94,605,o),
(94,599,o),
(94,594,cs),
(98,419,o),
(102,202,o),
(98,0,c),
(139,0,l),
(124,216,o),
(119,381,o),
(113,529,cs),
(113,532,o),
(113,534,o),
(116,534,cs),
(117,534,o),
(118,533,o),
(119,529,cs),
(161,377,o),
(207,220,o),
(267,0,c)
);
}
);
width = 639;
},
{
associatedMasterId = m003;
layerId = "B2DA110A-38A4-419B-853E-D7226147048C";
width = 600;
}
);
metricLeft = "=H-15";
metricRight = H;
unicode = 78;
},
{
glyphname = O;
kernLeft = O;
kernRight = O;
lastChange = "2024-08-21 15:30:53 +0000";
layers = (
{
associatedMasterId = m003;
layerId = "B826CCEB-93D1-4672-AA88-F03DC20D1A32";
width = 600;
},
{
associatedMasterId = m003;
layerId = "E785B07C-7638-40DD-A08B-5080B4C14061";
width = 600;
},
{
anchors = (
{
name = bottom;
pos = (173,0);
},
{
name = center;
pos = (173,350);
},
{
name = ogonek;
pos = (307,10);
},
{
name = top;
pos = (173,700);
},
{
name = topleft;
pos = (25,700);
},
{
name = topright;
pos = (320,700);
}
);
background = {
shapes = (
{
closed = 1;
nodes = (
(262,-9,o),
(320,157,o),
(315,393,cs),
(310,570,o),
(247,709,o),
(172,709,cs),
(85,709,o),
(26,547,o),
(30,316,cs),
(33,134,o),
(96,-9,o),
(174,-9,cs)
);
},
{
closed = 1;
nodes = (
(91,577,o),
(112,693,o),
(159,693,cs),
(206,693,o),
(244,549,o),
(249,343,cs),
(254,121,o),
(234,11,o),
(189,11,cs),
(139,11,o),
(101,148,o),
(96,343,cs)
);
}
);
};
layerId = m003;
shapes = (
{
closed = 1;
nodes = (
(262,-10,o),
(320,157,o),
(315,366,cs),
(310,570,o),
(247,710,o),
(169,710,cs),
(85,710,o),
(26,547,o),
(30,340,cs),
(33,134,o),
(96,-10,o),
(176,-10,cs)
);
},
{
closed = 1;
nodes = (
(89,577,o),
(112,694,o),
(156,694,cs),
(206,694,o),
(246,549,o),
(251,314,cs),
(256,121,o),
(234,10,o),
(189,10,cs),
(139,10,o),
(99,148,o),
(94,382,cs)
);
}
);
width = 345;
},
{
associatedMasterId = m002;
layerId = "D8FCC912-90DD-446E-BF59-AB9A66CA6269";
width = 600;
},
{
associatedMasterId = m002;
layerId = "55F3F96C-D641-4BD1-86E9-225A6733294D";
width = 600;
},
{
anchors = (
{
name = bottom;
pos = (413,0);
},
{
name = center;
pos = (413,350);
},
{
name = ogonek;
pos = (711,10);
},
{
name = top;
pos = (407,700);
},
{
name = topleft;
pos = (60,700);
},
{
name = topright;
pos = (765,700);
}
);
background = {
shapes = (
{
closed = 1;
nodes = (
(192,712,o),
(25,547,o),
(30,337,cs),
(35,131,o),
(189,-6,o),
(416,-6,cs),
(632,-6,o),
(799,156,o),
(795,363,cs),
(792,573,o),
(638,712,o),
(409,712,cs)
);
},
{
closed = 1;
nodes = (
(736,134,o),
(616,10,o),
(429,10,cs),
(233,10,o),
(99,155,o),
(94,375,cs),
(89,566,o),
(209,692,o),
(396,692,cs),
(592,692,o),
(726,544,o),
(731,321,cs)
);
}
);
};
layerId = m002;
shapes = (
{
closed = 1;
nodes = (
(635,-9,o),
(803,157,o),
(798,366,cs),
(793,571,o),
(638,709,o),
(409,709,cs),
(191,709,o),
(23,546,o),
(27,340,cs),
(30,131,o),
(185,-9,o),
(416,-9,cs)
);
},
{
closed = 1;
nodes = (
(92,570,o),
(211,693,o),
(396,693,cs),
(590,693,o),
(723,549,o),
(728,328,cs),
(733,136,o),
(614,11,o),
(429,11,cs),
(235,11,o),
(102,158,o),
(97,382,cs)
);
}
);
width = 825;
},
{
associatedMasterId = m003;
layerId = "B2DA110A-38A4-419B-853E-D7226147048C";
width = 600;
}
);
unicode = 79;
},
{
glyphname = Oslash;
lastChange = "2024-03-24 15:29:40 +0000";
layers = (
{
background = {
shapes = (
{
angle = 180;
pos = (335,700);
ref = O;
},
{
angle = 180;
pos = (339,700);
ref = slash;
}
);
};
layerId = m003;
shapes = (
{
ref = O;
},
{
closed = 1;
nodes = (
(24,-7,o),
(25,-10,o),
(29,-10,cs),
(33,-10,o),
(34,-6,o),
(49,6,cs),
(59,14,o),
(58,20,o),
(64,36,c),
(142,257,o),
(222,479,o),
(304,700,cs),
(307,707,o),
(306,710,o),
(302,710,cs),
(298,710,o),
(297,706,o),
(282,694,cs),
(272,686,o),
(273,680,o),
(267,664,cs),
(189,443,o),
(109,221,o),
(27,0,cs)
);
}
);
width = 345;
},
{
layerId = m002;
shapes = (
{
ref = O;
},
{
closed = 1;
nodes = (
(26,-7,o),
(35,-10,o),
(40,-10,cs),
(45,-10,o),
(58,-5,o),
(72,6,cs),
(83,15,o),
(88,24,o),
(99,36,cs),
(315,258,o),
(530,480,o),
(746,700,cs),
(753,708,o),
(745,710,o),
(740,710,cs),
(735,710,o),
(722,705,o),
(708,694,cs),
(697,685,o),
(690,676,o),
(679,664,cs),
(463,442,o),
(248,220,o),
(32,0,cs)
);
}
);
width = 825;
}
);
unicode = 216;
},
{
glyphname = OE;
lastChange = "2023-10-03 16:46:13 +0000";
layers = (
{
anchors = (
{
name = bottom;
pos = (173,0);
},
{
name = center;
pos = (173,350);
},
{
name = ogonek;
pos = (307,10);
},
{
name = top;
pos = (173,700);
},
{
name = topleft;
pos = (25,700);
},
{
name = topright;
pos = (320,700);
}
);
background = {
shapes = (
{
ref = O;
}
);
};
hints = (
{
name = _segment.curve.capheight.outer;
origin = (2,3);
type = Segment;
},
{
name = _segment.curve.capheight.inner;
origin = (2,1);
type = Segment;
}
);
layerId = m003;
shapes = (
{
closed = 1;
nodes = (
(200,-10,o),
(204,0,o),
(270,0,c),
(191,33,l),
(191,10,o),
(182,5,o),
(169,12,cs),
(128,33,o),
(98,180,o),
(94,382,cs),
(89,577,o),
(112,694,o),
(156,694,cs),
(181,694,o),
(192,667,o),
(192,607,c),
(249,700,l),
(200,700,o),
(191,710,o),
(169,710,cs),
(85,710,o),
(26,547,o),
(30,340,cs),
(33,134,o),
(96,-10,o),
(176,-10,cs)
);
},
{
closed = 1;
nodes = (
(382,-6,o),
(386,-3,o),
(385,5,cs),
(383,20,o),
(378,40,o),
(378,80,cs),
(378,144,o),
(383,175,o),
(385,191,cs),
(386,200,o),
(382,203,o),
(377,203,cs),
(372,203,o),
(369,198,o),
(369,191,cs),
(369,40,o),
(353,13,o),
(264,13,cs),
(255,13,o),
(251,14,o),
(250,37,c),
(241,37,l),
(241,0,l),
(359,0,o),
(367,-6,o),
(377,-6,cs)
);
},
{
closed = 1;
nodes = (
(252,0,l),
(252,700,l),
(190,700,l),
(190,0,l)
);
},
{
closed = 1;
nodes = (
(334,238,o),
(338,241,o),
(338,249,cs),
(338,272,o),
(327,298,o),
(327,357,cs),
(327,420,o),
(338,440,o),
(338,461,cs),
(338,469,o),
(334,472,o),
(330,472,cs),
(325,472,o),
(322,467,o),
(322,460,cs),
(322,385,o),
(314,370,o),
(269,365,cs),
(253,363,o),
(247,364,o),
(247,388,c),
(238,388,l),
(238,330,l),
(247,330,l),
(247,350,o),
(253,351,o),
(269,349,cs),
(314,344,o),
(322,329,o),
(322,250,cs),
(322,243,o),
(325,238,o),
(330,238,cs)
);
},
{
closed = 1;
nodes = (
(376,500,o),
(380,503,o),
(379,512,cs),
(377,525,o),
(372,556,o),
(372,620,cs),
(372,660,o),
(377,680,o),
(379,695,cs),
(380,703,o),
(376,706,o),
(371,706,cs),
(361,706,o),
(353,700,o),
(241,700,c),
(241,663,l),
(250,663,l),
(251,683,o),
(253,687,o),
(264,687,cs),
(348,687,o),
(363,661,o),
(363,512,cs),
(363,505,o),
(366,500,o),
(371,500,cs)
);
}
);
width = 400;
},
{
anchors = (
{
name = bottom;
pos = (393,0);
},
{
name = center;
pos = (393,350);
},
{
name = ogonek;
pos = (691,10);
},
{
name = top;
pos = (387,700);
},
{
name = topleft;
pos = (40,700);
},
{
name = topright;
pos = (745,700);
}
);
hints = (
{
name = _segment.curve.capheight.outer;
origin = (2,3);
type = Segment;
},
{
name = _segment.curve.capheight.inner;
origin = (2,1);
type = Segment;
}
);
layerId = m002;
shapes = (
{
closed = 1;
nodes = (
(441,-9,o),
(483,0,o),
(534,0,c),
(487,115,l),
(487,34,o),
(470,11,o),
(409,11,cs),
(222,11,o),
(102,153,o),
(97,382,cs),
(92,566,o),
(208,693,o),
(376,693,cs),
(462,693,o),
(490,673,o),
(487,592,c),
(541,700,l),
(480,700,o),
(436,709,o),
(389,709,cs),
(182,709,o),
(23,546,o),
(27,340,cs),
(30,136,o),
(182,-9,o),
(396,-9,cs)
);
},
{
closed = 1;
nodes = (
(924,-6,o),
(929,-3,o),
(928,5,cs),
(926,19,o),
(921,40,o),
(921,80,cs),
(921,144,o),
(926,175,o),
(928,208,cs),
(929,217,o),
(924,220,o),
(917,220,cs),
(910,220,o),
(906,216,o),
(906,208,cs),
(906,33,o),
(890,13,o),
(614,13,cs),
(556,13,o),
(554,14,o),
(552,87,c),
(537,87,l),
(538,0,l),
(897,0,o),
(905,-6,o),
(917,-6,cs)
);
},
{
closed = 1;
nodes = (
(555,0,l),
(555,700,l),
(485,700,l),
(485,0,l)
);
},
{
closed = 1;
nodes = (
(766,238,o),
(771,240,o),
(771,249,cs),
(771,271,o),
(760,297,o),
(760,357,cs),
(760,421,o),
(771,441,o),
(771,461,cs),
(771,470,o),
(766,472,o),
(760,472,cs),
(753,472,o),
(749,468,o),
(749,460,cs),
(749,382,o),
(730,369,o),
(619,365,cs),
(554,363,o),
(550,364,o),
(550,438,c),
(535,438,l),
(535,280,l),
(550,280,l),
(550,350,o),
(554,351,o),
(619,349,cs),
(730,345,o),
(749,331,o),
(749,250,cs),
(749,242,o),
(753,238,o),
(760,238,cs)
);
},
{
closed = 1;
nodes = (
(908,480,o),
(913,483,o),
(912,492,cs),
(910,525,o),
(905,556,o),
(905,620,cs),
(905,660,o),
(910,681,o),
(912,695,cs),
(913,703,o),
(908,706,o),
(901,706,cs),
(889,706,o),
(881,700,o),
(538,700,c),
(537,613,l),
(552,613,l),
(554,686,o),
(556,687,o),
(614,687,cs),
(874,687,o),
(890,667,o),
(890,492,cs),
(890,484,o),
(894,480,o),
(901,480,cs)
);
}
);
width = 963;
}
);
metricLeft = O;
metricRight = E;
unicode = 338;
},
